FBJBMono-Italic.glyphspackage
{
glyphname = exclam;
layers = (
{
layerId = "9ADF6715-3D0F-493D-8567-18A6FBCFC567";
shapes = (
{
closed = 1;
nodes = (
(357,235,l),
(451,730,l),
(293,730,l),
(229,235,l)
);
},
{
closed = 1;
nodes = (
(269,-5,ls),
(315,-5,o),
(349,22,o),
(356,65,cs),
(363,107,o),
(337,135,o),
(292,135,cs),
(262,135,ls),
(217,135,o),
(183,107,o),
(176,65,cs),
(170,23,o),
(195,-5,o),
(240,-5,cs)
);
}
);
width = 600;
},
{
layerId = "CCC0BD40-BA8C-414E-B576-CF0B94E6C996";
shapes = (
{
closed = 1;
nodes = (
(331,215,l),
(425,730,l),
(319,730,l),
(249,215,l)
);
},
{
closed = 1;
nodes = (
(270,-5,ls),
(305,-5,o),
(334,21,o),
(340,56,cs),
(345,90,o),
(327,115,o),
(289,115,cs),
(259,115,ls),
(224,115,o),
(195,90,o),
(190,55,cs),
(184,20,o),
(205,-5,o),
(240,-5,cs)
);
}
);
width = 600;
},
{
layerId = "EDF5EB54-295C-4C90-9A2F-67CD82979CFF";
shapes = (
{
closed = 1;
nodes = (
(309,205,l),
(402,730,l),
(342,730,l),
(267,205,l)
);
},
{
closed = 1;
nodes = (
(261,-5,ls),
(294,-5,o),
(320,17,o),
(325,50,cs),
(330,83,o),
(312,105,o),
(279,105,cs),
(274,105,ls),
(241,105,o),
(215,83,o),
(210,50,cs),
(205,17,o),
(223,-5,o),
(256,-5,cs)
);
}
);
width = 600;
}
);
unicode = 33;
}
{
glyphname = percent;
layers = (
{
layerId = "EDF5EB54-295C-4C90-9A2F-67CD82979CFF";
shapes = (
{
closed = 1;
nodes = (
(28,0,l),
(645,730,l),
(600,730,l),
(-17,0,l)
);
},
{
closed = 1;
nodes = (
(485,-5,o),
(539,42,o),
(552,125,cs),
(564,200,ls),
(576,280,o),
(536,330,o),
(458,330,cs),
(378,330,o),
(324,283,o),
(312,200,cs),
(300,125,ls),
(287,45,o),
(327,-5,o),
(405,-5,cs)
);
},
{
closed = 1;
nodes = (
(359,37,o),
(335,68,o),
(344,125,cs),
(356,200,ls),
(365,256,o),
(400,288,o),
(452,288,cs),
(505,288,o),
(529,257,o),
(520,200,cs),
(508,125,ls),
(499,69,o),
(464,37,o),
(412,37,cs)
);
},
{
closed = 1;
nodes = (
(249,400,o),
(303,447,o),
(316,530,cs),
(328,605,ls),
(340,685,o),
(300,735,o),
(222,735,cs),
(142,735,o),
(88,688,o),
(76,605,cs),
(64,530,ls),
(51,450,o),
(92,400,o),
(169,400,cs)
);
},
{
closed = 1;
nodes = (
(124,442,o),
(99,473,o),
(108,530,cs),
(120,605,ls),
(129,661,o),
(164,693,o),
(216,693,cs),
(269,693,o),
(293,662,o),
(284,605,cs),
(272,530,ls),
(263,474,o),
(228,442,o),
(176,442,cs)
);
}
);
width = 600;
},
{
layerId = "CCC0BD40-BA8C-414E-B576-CF0B94E6C996";
shapes = (
{
closed = 1;
nodes = (
(44,0,l),
(658,730,l),
(584,730,l),
(-30,0,l)
);
},
{
closed = 1;
nodes = (
(492,-5,o),
(548,41,o),
(562,130,cs),
(572,195,ls),
(585,279,o),
(538,330,o),
(454,330,cs),
(362,330,o),
(307,284,o),
(294,195,cs),
(284,130,ls),
(270,46,o),
(317,-5,o),
(401,-5,cs)
);
},
{
closed = 1;
nodes = (
(368,64,o),
(350,85,o),
(358,130,cs),
(368,195,ls),
(375,239,o),
(401,262,o),
(443,262,cs),
(487,262,o),
(505,240,o),
(498,195,cs),
(488,130,ls),
(481,87,o),
(455,64,o),
(412,64,cs)
);
},
{
closed = 1;
nodes = (
(264,400,o),
(320,446,o),
(334,535,cs),
(344,600,ls),
(357,684,o),
(310,735,o),
(226,735,cs),
(134,735,o),
(79,689,o),
(66,600,cs),
(56,535,ls),
(42,451,o),
(89,400,o),
(173,400,cs)
);
},
{
closed = 1;
nodes = (
(141,468,o),
(123,490,o),
(130,535,cs),
(140,600,ls),
(147,644,o),
(173,667,o),
(216,667,cs),
(259,667,o),
(277,645,o),
(270,600,cs),
(260,535,ls),
(253,491,o),
(227,468,o),
(184,468,cs)
);
}
);
width = 600;
},
{
layerId = "9ADF6715-3D0F-493D-8567-18A6FBCFC567";
shapes = (
{
closed = 1;
nodes = (
(48,0,l),
(682,730,l),
(580,730,l),
(-54,0,l)
);
},
{
closed = 1;
nodes = (
(501,-5,o),
(563,44,o),
(577,130,cs),
(587,195,ls),
(600,276,o),
(545,330,o),
(458,330,cs),
(363,330,o),
(301,281,o),
(287,195,cs),
(277,130,ls),
(264,49,o),
(318,-5,o),
(405,-5,cs)
);
},
{
closed = 1;
nodes = (
(386,79,o),
(370,94,o),
(376,130,cs),
(386,195,ls),
(392,228,o),
(413,247,o),
(445,247,cs),
(477,247,o),
(494,231,o),
(488,195,cs),
(478,130,ls),
(473,98,o),
(451,79,o),
(419,79,cs)
);
},
{
closed = 1;
nodes = (
(264,400,o),
(327,449,o),
(341,535,cs),
(351,600,ls),
(364,684,o),
(306,735,o),
(222,735,cs),
(127,735,o),
(64,686,o),
(51,600,cs),
(41,535,ls),
(27,451,o),
(85,400,o),
(169,400,cs)
);
},
{
closed = 1;
nodes = (
(149,483,o),
(134,499,o),
(140,535,cs),
(150,600,ls),
(156,633,o),
(177,652,o),
(209,652,cs),
(242,652,o),
(258,636,o),
(252,600,cs),
(242,535,ls),
(236,502,o),
(215,483,o),
(182,483,cs)
);
}
);
width = 600;
}
);
unicode = 37;
}
{
glyphname = ampersand;
layers = (
{
layerId = "CCC0BD40-BA8C-414E-B576-CF0B94E6C996";
shapes = (
{
closed = 1;
nodes = (
(229,-9,o),
(289,19,o),
(345,74,cs),
(401,129,l),
(479,0,l),
(571,0,l),
(456,189,l),
(627,365,l),
(521,365,l),
(413,253,l),
(263,503,ls),
(248,528,o),
(242,553,o),
(246,579,cs),
(254,629,o),
(293,663,o),
(343,663,cs),
(401,663,o),
(433,617,o),
(422,550,c),
(510,550,l),
(528,661,o),
(463,740,o),
(355,740,cs),
(252,740,o),
(172,675,o),
(157,581,cs),
(151,544,o),
(169,501,o),
(198,455,cs),
(223,415,l),
(225,419,l),
(116,419,o),
(37,350,o),
(19,239,cs),
(10,182,ls),
(-8,67,o),
(55,-9,o),
(170,-9,cs)
);
},
{
closed = 1;
nodes = (
(122,70,o),
(87,114,o),
(98,182,cs),
(107,239,ls),
(118,307,o),
(163,349,o),
(226,349,c),
(263,349,l),
(357,192,l),
(287,126,ls),
(253,94,o),
(225,70,o),
(187,70,cs)
);
}
);
width = 600;
},
{
layerId = "EDF5EB54-295C-4C90-9A2F-67CD82979CFF";
shapes = (
{
closed = 1;
nodes = (
(211,-10,o),
(275,20,o),
(318,61,cs),
(417,157,l),
(518,0,l),
(571,0,l),
(448,192,l),
(621,365,l),
(559,365,l),
(422,226,l),
(254,495,ls),
(235,525,o),
(227,557,o),
(232,587,cs),
(243,654,o),
(290,696,o),
(354,696,cs),
(428,696,o),
(464,640,o),
(450,550,c),
(500,550,l),
(519,665,o),
(464,740,o),
(361,740,cs),
(267,740,o),
(197,681,o),
(182,587,cs),
(176,550,o),
(193,509,o),
(219,467,cs),
(255,410,l),
(224,410,l),
(127,410,o),
(55,342,o),
(38,234,cs),
(28,170,ls),
(11,60,o),
(61,-10,o),
(157,-10,cs)
);
},
{
closed = 1;
nodes = (
(99,34,o),
(63,88,o),
(76,170,cs),
(86,234,ls),
(99,316,o),
(149,367,o),
(217,367,c),
(281,367,l),
(391,190,l),
(284,89,ls),
(251,57,o),
(211,34,o),
(168,34,cs)
);
}
);
width = 600;
},
{
layerId = "9ADF6715-3D0F-493D-8567-18A6FBCFC567";
shapes = (
{
closed = 1;
nodes = (
(260,-10,o),
(330,21,o),
(380,71,cs),
(389,80,l),
(435,0,l),
(581,0,l),
(476,182,l),
(646,365,l),
(490,365,l),
(415,283,l),
(281,518,ls),
(274,531,o),
(268,551,o),
(270,565,cs),
(276,599,o),
(303,622,o),
(337,622,cs),
(376,622,o),
(397,589,o),
(390,540,c),
(525,540,l),
(543,657,o),
(472,740,o),
(355,740,cs),
(237,740,o),
(153,675,o),
(138,572,cs),
(132,538,o),
(145,497,o),
(165,464,cs),
(183,434,l),
(208,440,l),
(104,440,o),
(28,369,o),
(9,256,cs),
(-3,184,ls),
(-22,68,o),
(52,-10,o),
(182,-10,cs)
);
},
{
closed = 1;
nodes = (
(155,110,o),
(130,139,o),
(137,184,cs),
(149,256,ls),
(156,301,o),
(188,330,o),
(232,330,cs),
(243,330,l),
(326,181,l),
(307,162,ls),
(273,128,o),
(247,110,o),
(204,110,cs)
);
}
);
width = 600;
}
);
unicode = 38;
}
{
glyphname = quotesingle;
layers = (
{
layerId = "9ADF6715-3D0F-493D-8567-18A6FBCFC567";
shapes = (
{
closed = 1;
nodes = (
(394,430,l),
(450,730,l),
(294,730,l),
(255,430,l)
);
}
);
width = 600;
},
{
layerId = "CCC0BD40-BA8C-414E-B576-CF0B94E6C996";
shapes = (
{
closed = 1;
nodes = (
(368,430,l),
(423,730,l),
(321,730,l),
(281,430,l)
);
}
);
width = 600;
},
{
layerId = "EDF5EB54-295C-4C90-9A2F-67CD82979CFF";
shapes = (
{
closed = 1;
nodes = (
(351,430,l),
(405,730,l),
(339,730,l),
(298,430,l)
);
}
);
width = 600;
}
);
unicode = 39;
}
{
glyphname = asterisk;
layers = (
{
layerId = "9ADF6715-3D0F-493D-8567-18A6FBCFC567";
shapes = (
{
closed = 1;
nodes = (
(519,160,l),
(446,263,ls),
(418,303,o),
(393,321,o),
(353,350,c),
(302,314,l),
(315,268,o),
(324,236,o),
(352,197,cs),
(426,95,l)
);
},
{
closed = 1;
nodes = (
(276,197,ls),
(304,236,o),
(313,268,o),
(326,314,c),
(275,350,l),
(235,321,o),
(210,303,o),
(182,263,cs),
(109,160,l),
(202,95,l)
);
},
{
closed = 1;
nodes = (
(308,382,l),
(270,413,o),
(241,434,o),
(200,449,cs),
(83,492,l),
(44,385,l),
(161,342,ls),
(202,327,o),
(238,324,o),
(286,324,c)
);
},
{
closed = 1;
nodes = (
(352,284,o),
(382,314,o),
(382,352,cs),
(382,390,o),
(352,420,o),
(314,420,cs),
(276,420,o),
(246,390,o),
(246,352,cs),
(246,314,o),
(276,284,o),
(314,284,cs)
);
},
{
closed = 1;
nodes = (
(341,371,l),
(359,417,o),
(371,446,o),
(371,501,cs),
(371,620,l),
(257,620,l),
(257,501,ls),
(257,446,o),
(269,417,o),
(287,371,c)
);
},
{
closed = 1;
nodes = (
(390,324,o),
(426,327,o),
(467,342,cs),
(584,385,l),
(545,492,l),
(428,449,ls),
(387,434,o),
(358,413,o),
(320,382,c),
(342,324,l)
);
}
);
width = 600;
},
{
layerId = "EDF5EB54-295C-4C90-9A2F-67CD82979CFF";
shapes = (
{
closed = 1;
nodes = (
(492,147,l),
(392,286,ls),
(378,306,o),
(361,324,o),
(339,344,c),
(314,327,l),
(328,299,o),
(340,278,o),
(354,259,cs),
(454,120,l)
);
},
{
closed = 1;
nodes = (
(275,259,ls),
(289,278,o),
(301,299,o),
(315,327,c),
(290,344,l),
(268,324,o),
(251,306,o),
(237,286,cs),
(137,147,l),
(175,120,l)
);
},
{
closed = 1;
nodes = (
(306,370,l),
(280,386,o),
(258,397,o),
(235,405,cs),
(75,463,l),
(59,419,l),
(219,361,ls),
(241,353,o),
(265,347,o),
(296,342,c)
);
},
{
closed = 1;
nodes = (
(328,326,o),
(338,336,o),
(338,350,cs),
(338,364,o),
(328,374,o),
(314,374,cs),
(300,374,o),
(290,364,o),
(290,350,cs),
(290,336,o),
(300,326,o),
(314,326,cs)
);
},
{
closed = 1;
nodes = (
(329,371,l),
(335,402,o),
(337,426,o),
(337,450,cs),
(337,620,l),
(291,620,l),
(291,450,ls),
(291,425,o),
(293,401,o),
(299,371,c)
);
},
{
closed = 1;
nodes = (
(363,347,o),
(387,353,o),
(409,361,cs),
(569,419,l),
(553,463,l),
(393,405,ls),
(370,397,o),
(348,386,o),
(322,370,c),
(332,342,l)
);
}
);
width = 600;
},
{
layerId = "CCC0BD40-BA8C-414E-B576-CF0B94E6C996";
shapes = (
{
closed = 1;
nodes = (
(506,152,l),
(441,245,ls),
(422,272,o),
(378,323,o),
(350,347,c),
(306,318,l),
(320,283,o),
(353,224,o),
(372,197,cs),
(437,103,l)
);
},
{
closed = 1;
nodes = (
(256,197,ls),
(275,225,o),
(308,283,o),
(322,318,c),
(278,347,l),
(250,323,o),
(207,273,o),
(187,245,cs),
(122,152,l),
(191,103,l)
);
},
{
closed = 1;
nodes = (
(307,380,l),
(276,402,o),
(216,430,o),
(186,441,cs),
(78,481,l),
(50,402,l),
(157,362,ls),
(187,351,o),
(251,335,o),
(289,332,c)
);
},
{
closed = 1;
nodes = (
(342,301,o),
(365,324,o),
(365,352,cs),
(365,380,o),
(342,403,o),
(314,403,cs),
(286,403,o),
(263,380,o),
(263,352,cs),
(263,324,o),
(286,301,o),
(314,301,cs)
);
},
{
closed = 1;
nodes = (
(339,371,l),
(350,408,o),
(356,464,o),
(356,495,cs),
(356,620,l),
(272,620,l),
(272,495,ls),
(272,464,o),
(278,408,o),
(288,371,c)
);
},
{
closed = 1;
nodes = (
(377,335,o),
(441,351,o),
(471,362,cs),
(578,402,l),
(550,481,l),
(442,441,ls),
(412,430,o),
(352,402,o),
(321,380,c),
(339,332,l)
);
}
);
width = 600;
}
);
unicode = 42;
}
{
glyphname = comma;
layers = (
{
layerId = "9ADF6715-3D0F-493D-8567-18A6FBCFC567";
shapes = (
{
closed = 1;
nodes = (
(248,-160,l),
(376,146,l),
(204,146,l),
(104,-160,l)
);
}
);
width = 600;
},
{
layerId = "CCC0BD40-BA8C-414E-B576-CF0B94E6C996";
shapes = (
{
closed = 1;
nodes = (
(235,-160,l),
(353,146,l),
(243,146,l),
(140,-160,l)
);
}
);
width = 600;
},
{
layerId = "EDF5EB54-295C-4C90-9A2F-67CD82979CFF";
shapes = (
{
closed = 1;
nodes = (
(210,-160,l),
(329,146,l),
(257,146,l),
(150,-160,l)
);
}
);
width = 600;
}
);
unicode = 44;
}
{
glyphname = period;
layers = (
{
layerId = "9ADF6715-3D0F-493D-8567-18A6FBCFC567";
shapes = (
{
closed = 1;
nodes = (
(315,-10,o),
(362,31,o),
(371,91,cs),
(381,151,o),
(346,192,o),
(286,192,cs),
(226,192,o),
(179,151,o),
(169,91,cs),
(160,31,o),
(195,-10,o),
(254,-10,cs)
);
}
);
width = 600;
},
{
layerId = "CCC0BD40-BA8C-414E-B576-CF0B94E6C996";
shapes = (
{
closed = 1;
nodes = (
(303,-10,o),
(342,23,o),
(350,71,cs),
(358,121,o),
(330,156,o),
(281,156,cs),
(231,156,o),
(192,121,o),
(184,71,cs),
(176,23,o),
(205,-10,o),
(254,-10,cs)
);
}
);
width = 600;
},
{
layerId = "EDF5EB54-295C-4C90-9A2F-67CD82979CFF";
shapes = (
{
closed = 1;
nodes = (
(298,-10,o),
(332,21,o),
(339,65,cs),
(346,108,o),
(321,138,o),
(278,138,cs),
(234,138,o),
(200,108,o),
(193,65,cs),
(186,21,o),
(211,-10,o),
(254,-10,cs)
);
}
);
visible = 1;
width = 600;
}
);
unicode = 46;
}
{
glyphname = zero;
layers = (
{
layerId = "9ADF6715-3D0F-493D-8567-18A6FBCFC567";
shapes = (
{
closed = 1;
nodes = (
(407,-10,o),
(507,70,o),
(529,210,cs),
(578,520,ls),
(599,652,o),
(520,740,o),
(373,740,cs),
(221,740,o),
(121,660,o),
(98,520,cs),
(49,210,ls),
(28,78,o),
(107,-10,o),
(254,-10,cs)
);
},
{
closed = 1;
nodes = (
(213,120,o),
(180,154,o),
(189,210,cs),
(238,520,ls),
(247,576,o),
(290,610,o),
(353,610,cs),
(416,610,o),
(447,576,o),
(438,520,cs),
(389,210,ls),
(380,154,o),
(337,120,o),
(275,120,cs)
);
},
{
closed = 1;
nodes = (
(346,301,o),
(377,325,o),
(384,368,cs),
(391,410,o),
(367,433,o),
(325,433,cs),
(283,433,o),
(251,410,o),
(244,368,cs),
(237,325,o),
(262,301,o),
(304,301,cs)
);
}
);
width = 600;
},
{
layerId = "CCC0BD40-BA8C-414E-B576-CF0B94E6C996";
shapes = (
{
closed = 1;
nodes = (
(395,-10,o),
(487,68,o),
(508,205,cs),
(559,525,ls),
(580,656,o),
(508,740,o),
(373,740,cs),
(233,740,o),
(141,662,o),
(119,525,cs),
(68,205,ls),
(48,74,o),
(119,-10,o),
(254,-10,cs)
);
},
{
closed = 1;
nodes = (
(187,67,o),
(143,124,o),
(155,205,cs),
(206,525,ls),
(219,606,o),
(281,663,o),
(361,663,cs),
(441,663,o),
(485,606,o),
(472,525,cs),
(421,205,ls),
(409,124,o),
(347,67,o),
(267,67,cs)
);
},
{
closed = 1;
nodes = (
(341,310,o),
(368,331,o),
(374,368,cs),
(380,404,o),
(359,424,o),
(323,424,cs),
(287,424,o),
(260,404,o),
(254,368,cs),
(248,331,o),
(269,310,o),
(305,310,cs)
);
}
);
width = 600;
},
{
layerId = "EDF5EB54-295C-4C90-9A2F-67CD82979CFF";
shapes = (
{
closed = 1;
nodes = (
(386,-10,o),
(472,68,o),
(493,205,cs),
(544,525,ls),
(565,657,o),
(499,740,o),
(374,740,cs),
(243,740,o),
(156,662,o),
(134,525,cs),
(83,205,ls),
(63,73,o),
(128,-10,o),
(255,-10,cs)
);
},
{
closed = 1;
nodes = (
(166,34,o),
(117,100,o),
(133,205,cs),
(184,525,ls),
(201,630,o),
(271,696,o),
(367,696,cs),
(462,696,o),
(511,630,o),
(494,525,cs),
(443,205,ls),
(427,100,o),
(357,34,o),
(262,34,cs)
);
},
{
closed = 1;
nodes = (
(337,321,o),
(360,338,o),
(364,368,cs),
(369,398,o),
(352,414,o),
(322,414,cs),
(292,414,o),
(269,398,o),
(264,368,cs),
(260,338,o),
(277,321,o),
(307,321,cs)
);
}
);
width = 600;
}
);
unicode = 48;
}
{
glyphname = one;
layers = (
{
layerId = "EDF5EB54-295C-4C90-9A2F-67CD82979CFF";
shapes = (
{
closed = 1;
nodes = (
(486,0,l),
(493,45,l),
(320,45,l),
(429,730,l),
(363,730,l),
(158,595,l),
(149,537,l),
(371,683,l),
(270,45,l),
(63,45,l),
(56,0,l)
);
}
);
width = 600;
},
{
layerId = "CCC0BD40-BA8C-414E-B576-CF0B94E6C996";
shapes = (
{
closed = 1;
nodes = (
(496,0,l),
(509,82,l),
(347,82,l),
(450,730,l),
(327,730,l),
(142,607,l),
(126,501,l),
(347,649,l),
(257,82,l),
(59,82,l),
(46,0,l)
);
}
);
width = 600;
},
{
layerId = "9ADF6715-3D0F-493D-8567-18A6FBCFC567";
shapes = (
{
closed = 1;
nodes = (
(516,0,l),
(537,135,l),
(391,135,l),
(486,730,l),
(321,730,l),
(131,610,l),
(104,439,l),
(311,573,l),
(241,135,l),
(57,135,l),
(36,0,l)
);
}
);
width = 600;
}
);
unicode = 49;
}
{
glyphname = two;
layers = (
{
layerId = "9ADF6715-3D0F-493D-8567-18A6FBCFC567";
shapes = (
{
closed = 1;
nodes = (
(501,0,l),
(522,135,l),
(239,135,l),
(440,301,ls),
(525,371,o),
(563,444,o),
(576,521,cs),
(596,651,o),
(514,740,o),
(373,740,cs),
(221,740,o),
(112,649,o),
(89,505,c),
(239,505,l),
(248,564,o),
(292,605,o),
(347,605,cs),
(400,605,o),
(429,565,o),
(421,510,cs),
(415,473,o),
(393,435,o),
(363,409,cs),
(42,134,l),
(21,0,l)
);
}
);
width = 600;
},
{
layerId = "CCC0BD40-BA8C-414E-B576-CF0B94E6C996";
shapes = (
{
closed = 1;
nodes = (
(483,0,l),
(496,82,l),
(169,82,l),
(398,288,ls),
(505,384,o),
(547,458,o),
(558,528,cs),
(578,658,o),
(506,740,o),
(371,740,cs),
(234,740,o),
(141,662,o),
(115,525,c),
(205,525,l),
(218,608,o),
(278,660,o),
(359,660,cs),
(438,660,o),
(478,609,o),
(466,529,cs),
(457,473,o),
(420,418,o),
(339,343,cs),
(55,83,l),
(42,0,l)
);
}
);
width = 600;
},
{
layerId = "EDF5EB54-295C-4C90-9A2F-67CD82979CFF";
shapes = (
{
closed = 1;
nodes = (
(476,0,l),
(483,45,l),
(124,45,l),
(399,293,ls),
(486,370,o),
(539,459,o),
(551,536,cs),
(570,658,o),
(496,740,o),
(370,740,cs),
(239,740,o),
(145,661,o),
(125,535,c),
(175,535,l),
(190,630,o),
(266,696,o),
(363,696,cs),
(460,696,o),
(516,631,o),
(501,536,cs),
(490,467,o),
(442,391,o),
(367,323,cs),
(60,45,l),
(53,0,l)
);
}
);
width = 600;
}
);
unicode = 50;
}
{
glyphname = three;
layers = (
{
layerId = "9ADF6715-3D0F-493D-8567-18A6FBCFC567";
shapes = (
{
closed = 1;
nodes = (
(405,-10,o),
(508,67,o),
(528,200,cs),
(537,259,ls),
(557,389,o),
(476,470,o),
(326,470,c),
(306,398,l),
(570,609,l),
(590,730,l),
(154,730,l),
(133,600,l),
(404,600,l),
(225,460,l),
(206,344,l),
(306,344,ls),
(366,344,o),
(396,313,o),
(387,258,cs),
(378,200,ls),
(370,151,o),
(329,120,o),
(271,120,cs),
(213,120,o),
(182,151,o),
(190,200,c),
(40,200,l),
(19,71,o),
(100,-10,o),
(250,-10,cs)
);
}
);
width = 600;
},
{
layerId = "CCC0BD40-BA8C-414E-B576-CF0B94E6C996";
shapes = (
{
closed = 1;
nodes = (
(383,-10,o),
(477,67,o),
(498,200,cs),
(506,250,ls),
(527,379,o),
(455,460,o),
(321,460,c),
(317,431,l),
(550,646,l),
(564,730,l),
(162,730,l),
(149,648,l),
(447,648,l),
(240,458,l),
(227,380,l),
(306,380,ls),
(386,380,o),
(429,330,o),
(416,250,cs),
(408,200,ls),
(395,120,o),
(337,70,o),
(257,70,cs),
(177,70,o),
(135,120,o),
(148,200,c),
(58,200,l),
(37,71,o),
(108,-10,o),
(243,-10,cs)
);
}
);
width = 600;
},
{
layerId = "EDF5EB54-295C-4C90-9A2F-67CD82979CFF";
shapes = (
{
closed = 1;
nodes = (
(375,-10,o),
(462,65,o),
(482,195,cs),
(492,261,ls),
(510,381,o),
(440,456,o),
(315,456,c),
(291,429,l),
(548,682,l),
(556,730,l),
(182,730,l),
(174,685,l),
(492,685,l),
(257,454,l),
(250,411,l),
(311,411,ls),
(406,411,o),
(456,356,o),
(442,261,cs),
(432,195,ls),
(417,97,o),
(344,35,o),
(252,35,cs),
(160,35,o),
(106,97,o),
(122,195,c),
(72,195,l),
(52,69,o),
(121,-10,o),
(244,-10,cs)
);
}
);
width = 600;
}
);
unicode = 51;
}
{
glyphname = six;
layers = (
{
layerId = "9ADF6715-3D0F-493D-8567-18A6FBCFC567";
shapes = (
{
closed = 1;
nodes = (
(416,-10,o),
(523,77,o),
(547,229,cs),
(568,361,o),
(505,452,o),
(392,452,cs),
(343,452,o),
(300,432,o),
(273,399,c),
(269,402,l),
(514,730,l),
(338,730,l),
(144,455,ls),
(85,372,o),
(47,293,o),
(39,238,cs),
(15,86,o),
(97,-10,o),
(254,-10,cs)
);
},
{
closed = 1;
nodes = (
(207,115,o),
(172,158,o),
(183,227,cs),
(194,297,o),
(243,341,o),
(310,341,cs),
(377,341,o),
(412,297,o),
(401,227,cs),
(390,158,o),
(341,115,o),
(274,115,cs)
);
}
);
width = 600;
},
{
layerId = "CCC0BD40-BA8C-414E-B576-CF0B94E6C996";
shapes = (
{
closed = 1;
nodes = (
(400,-10,o),
(505,81,o),
(528,227,cs),
(548,354,o),
(470,450,o),
(346,450,cs),
(304,450,o),
(268,437,o),
(248,415,c),
(245,417,l),
(475,730,l),
(372,730,l),
(155,427,ls),
(102,354,o),
(65,287,o),
(55,223,cs),
(33,85,o),
(114,-10,o),
(255,-10,cs)
);
},
{
closed = 1;
nodes = (
(180,70,o),
(131,133,o),
(146,225,cs),
(160,317,o),
(229,380,o),
(316,380,cs),
(403,380,o),
(452,317,o),
(438,225,cs),
(423,133,o),
(354,70,o),
(267,70,cs)
);
}
);
width = 600;
},
{
layerId = "EDF5EB54-295C-4C90-9A2F-67CD82979CFF";
shapes = (
{
closed = 1;
nodes = (
(391,-9,o),
(490,78,o),
(512,215,cs),
(532,342,o),
(461,437,o),
(345,437,cs),
(278,437,o),
(225,408,o),
(201,384,c),
(197,387,l),
(457,730,l),
(398,730,l),
(159,406,ls),
(114,345,o),
(79,282,o),
(69,220,cs),
(47,84,o),
(122,-10,o),
(254,-10,cs)
);
},
{
closed = 1;
nodes = (
(157,35,o),
(98,108,o),
(118,215,cs),
(136,322,o),
(218,395,o),
(319,395,cs),
(421,395,o),
(479,322,o),
(462,215,cs),
(445,108,o),
(364,35,o),
(262,35,cs)
);
}
);
width = 600;
}
);
unicode = 54;
}
{
glyphname = seven;
layers = (
{
layerId = "9ADF6715-3D0F-493D-8567-18A6FBCFC567";
shapes = (
{
closed = 1;
nodes = (
(256,0,l),
(621,601,l),
(642,730,l),
(129,730,l),
(89,480,l),
(239,480,l),
(258,600,l),
(454,600,l),
(87,0,l)
);
}
);
width = 600;
},
{
layerId = "CCC0BD40-BA8C-414E-B576-CF0B94E6C996";
shapes = (
{
closed = 1;
nodes = (
(244,0,l),
(604,646,l),
(618,730,l),
(154,730,l),
(122,530,l),
(212,530,l),
(231,648,l),
(505,648,l),
(142,0,l)
);
}
);
width = 600;
},
{
layerId = "EDF5EB54-295C-4C90-9A2F-67CD82979CFF";
shapes = (
{
closed = 1;
nodes = (
(218,0,l),
(599,681,l),
(607,730,l),
(162,730,l),
(130,530,l),
(180,530,l),
(204,685,l),
(546,685,l),
(161,0,l)
);
}
);
width = 600;
}
);
unicode = 55;
}
{
glyphname = eight;
layers = (
{
layerId = "EDF5EB54-295C-4C90-9A2F-67CD82979CFF";
shapes = (
{
closed = 1;
nodes = (
(388,-10,o),
(485,69,o),
(505,196,cs),
(519,285,o),
(474,360,o),
(393,381,c),
(394,384,l),
(471,400,o),
(528,462,o),
(541,547,cs),
(558,659,o),
(488,740,o),
(373,740,cs),
(252,740,o),
(164,666,o),
(145,547,cs),
(132,465,o),
(170,399,o),
(240,384,c),
(239,381,l),
(149,359,o),
(83,288,o),
(69,196,cs),
(50,76,o),
(127,-10,o),
(254,-10,cs)
);
},
{
closed = 1;
nodes = (
(162,35,o),
(104,99,o),
(119,193,cs),
(134,290,o),
(212,356,o),
(312,356,cs),
(412,356,o),
(470,290,o),
(455,193,cs),
(440,99,o),
(362,35,o),
(262,35,cs)
);
},
{
closed = 1;
nodes = (
(232,401,o),
(181,460,o),
(195,547,cs),
(209,635,o),
(278,696,o),
(366,696,cs),
(454,696,o),
(505,635,o),
(491,547,cs),
(477,460,o),
(408,401,o),
(320,401,cs)
);
}
);
width = 600;
},
{
layerId = "9ADF6715-3D0F-493D-8567-18A6FBCFC567";
shapes = (
{
closed = 1;
nodes = (
(412,-10,o),
(524,74,o),
(545,208,cs),
(559,295,o),
(514,369,o),
(438,387,c),
(439,389,l),
(508,401,o),
(565,463,o),
(578,542,cs),
(596,657,o),
(511,740,o),
(373,740,cs),
(228,740,o),
(126,664,o),
(107,542,cs),
(94,463,o),
(132,401,o),
(197,389,c),
(196,387,l),
(114,369,o),
(47,295,o),
(33,208,cs),
(13,81,o),
(104,-10,o),
(254,-10,cs)
);
},
{
closed = 1;
nodes = (
(208,113,o),
(169,155,o),
(178,217,cs),
(188,279,o),
(241,321,o),
(307,321,cs),
(373,321,o),
(412,279,o),
(402,217,cs),
(393,155,o),
(340,113,o),
(274,113,cs)
);
},
{
closed = 1;
nodes = (
(271,437,o),
(240,474,o),
(249,528,cs),
(257,582,o),
(300,619,o),
(354,619,cs),
(409,619,o),
(440,582,o),
(432,528,cs),
(423,474,o),
(380,437,o),
(325,437,cs)
);
}
);
width = 600;
},
{
layerId = "CCC0BD40-BA8C-414E-B576-CF0B94E6C996";
shapes = (
{
closed = 1;
nodes = (
(398,-10,o),
(501,73,o),
(522,204,cs),
(537,296,o),
(491,369,o),
(411,384,c),
(411,387,l),
(485,404,o),
(544,469,o),
(557,547,cs),
(575,660,o),
(499,740,o),
(373,740,cs),
(242,740,o),
(148,666,o),
(129,547,cs),
(116,469,o),
(155,404,o),
(223,387,c),
(223,384,l),
(137,369,o),
(69,296,o),
(54,204,cs),
(34,78,o),
(116,-10,o),
(254,-10,cs)
);
},
{
closed = 1;
nodes = (
(182,71,o),
(132,126,o),
(145,206,cs),
(157,287,o),
(225,342,o),
(310,342,cs),
(395,342,o),
(445,287,o),
(433,206,cs),
(420,126,o),
(352,71,o),
(267,71,cs)
);
},
{
closed = 1;
nodes = (
(249,422,o),
(206,470,o),
(218,541,cs),
(229,612,o),
(287,660,o),
(361,660,cs),
(435,660,o),
(477,612,o),
(466,541,cs),
(454,470,o),
(397,422,o),
(323,422,cs)
);
}
);
width = 600;
}
);
unicode = 56;
}
{
glyphname = question;
layers = (
{
layerId = "9ADF6715-3D0F-493D-8567-18A6FBCFC567";
shapes = (
{
closed = 1;
nodes = (
(294,235,l),
(305,305,l),
(431,305,o),
(528,389,o),
(548,515,cs),
(568,646,o),
(485,730,o),
(332,730,cs),
(177,730,l),
(154,590,l),
(319,590,ls),
(374,590,o),
(405,561,o),
(398,515,cs),
(390,470,o),
(351,440,o),
(297,440,cs),
(197,440,l),
(169,235,l)
);
},
{
closed = 1;
nodes = (
(208,-5,ls),
(254,-5,o),
(288,22,o),
(295,65,cs),
(302,107,o),
(276,135,o),
(231,135,cs),
(201,135,ls),
(156,135,o),
(122,107,o),
(115,65,cs),
(109,23,o),
(134,-5,o),
(179,-5,cs)
);
}
);
width = 600;
},
{
layerId = "CCC0BD40-BA8C-414E-B576-CF0B94E6C996";
shapes = (
{
closed = 1;
nodes = (
(286,215,l),
(301,310,l),
(414,316,o),
(504,400,o),
(523,515,cs),
(543,646,o),
(467,730,o),
(327,730,cs),
(202,730,l),
(188,645,l),
(313,645,ls),
(399,645,o),
(445,594,o),
(433,515,cs),
(420,436,o),
(358,385,o),
(273,385,cs),
(223,385,l),
(196,215,l)
);
},
{
closed = 1;
nodes = (
(220,-5,ls),
(255,-5,o),
(284,21,o),
(290,56,cs),
(295,90,o),
(277,115,o),
(239,115,cs),
(209,115,ls),
(174,115,o),
(145,90,o),
(140,55,cs),
(134,20,o),
(155,-5,o),
(190,-5,cs)
);
}
);
width = 600;
},
{
layerId = "EDF5EB54-295C-4C90-9A2F-67CD82979CFF";
shapes = (
{
closed = 1;
nodes = (
(279,205,l),
(299,330,l),
(427,330,o),
(516,408,o),
(535,530,cs),
(554,651,o),
(484,730,o),
(357,730,cs),
(217,730,l),
(209,685,l),
(349,685,ls),
(446,685,o),
(500,624,o),
(485,530,cs),
(470,436,o),
(403,375,o),
(306,375,cs),
(256,375,l),
(229,205,l)
);
},
{
closed = 1;
nodes = (
(221,-5,ls),
(254,-5,o),
(280,17,o),
(285,50,cs),
(290,83,o),
(272,105,o),
(239,105,cs),
(234,105,ls),
(201,105,o),
(175,83,o),
(170,50,cs),
(165,17,o),
(183,-5,o),
(216,-5,cs)
);
}
);
width = 600;
}
);
unicode = 63;
}
{
glyphname = at;
layers = (
{
layerId = "CCC0BD40-BA8C-414E-B576-CF0B94E6C996";
shapes = (
{
closed = 1;
nodes = (
(362,-180,l),
(374,-105,l),
(264,-105,ls),
(140,-105,o),
(77,-23,o),
(98,110,cs),
(152,450,ls),
(174,589,o),
(257,670,o),
(377,670,cs),
(484,670,o),
(532,608,o),
(514,495,cs),
(503,425,l),
(489,425,l),
(501,399,l),
(510,452,o),
(473,485,o),
(407,485,cs),
(322,485,o),
(264,429,o),
(248,330,cs),
(230,214,ls),
(215,119,o),
(267,55,o),
(365,55,cs),
(467,55,o),
(534,117,o),
(551,224,cs),
(594,495,ls),
(618,647,o),
(540,740,o),
(388,740,cs),
(217,740,o),
(102,634,o),
(72,450,cs),
(18,110,ls),
(-10,-67,o),
(81,-180,o),
(252,-180,cs)
);
},
{
closed = 1;
nodes = (
(324,122,o),
(301,156,o),
(310,214,cs),
(328,330,ls),
(337,388,o),
(372,422,o),
(423,422,cs),
(474,422,o),
(498,389,o),
(488,331,cs),
(470,214,ls),
(461,156,o),
(426,122,o),
(375,122,cs)
);
}
);
width = 600;
},
{
layerId = "EDF5EB54-295C-4C90-9A2F-67CD82979CFF";
shapes = (
{
closed = 1;
nodes = (
(328,-179,l),
(335,-134,l),
(260,-134,ls),
(128,-134,o),
(65,-37,o),
(89,116,cs),
(141,445,ls),
(167,603,o),
(252,696,o),
(381,696,cs),
(493,696,o),
(549,616,o),
(528,485,cs),
(516,410,l),
(494,410,l),
(513,390,l),
(522,448,o),
(484,485,o),
(414,485,cs),
(331,485,o),
(275,432,o),
(261,340,cs),
(240,210,ls),
(225,115,o),
(273,55,o),
(363,55,cs),
(456,55,o),
(518,111,o),
(534,210,cs),
(578,485,ls),
(603,641,o),
(529,740,o),
(388,740,cs),
(229,740,o),
(121,633,o),
(91,445,cs),
(39,116,ls),
(11,-64,o),
(91,-179,o),
(253,-179,cs)
);
},
{
closed = 1;
nodes = (
(308,100,o),
(279,140,o),
(290,210,cs),
(311,340,ls),
(321,404,o),
(362,440,o),
(424,440,cs),
(486,440,o),
(515,404,o),
(505,340,cs),
(484,210,ls),
(473,140,o),
(432,100,o),
(370,100,cs)
);
}
);
width = 600;
},
{
layerId = "9ADF6715-3D0F-493D-8567-18A6FBCFC567";
shapes = (
{
closed = 1;
nodes = (
(362,-180,l),
(380,-70,l),
(270,-70,ls),
(154,-70,o),
(100,-5,o),
(119,111,cs),
(172,450,ls),
(191,569,o),
(264,635,o),
(365,635,cs),
(464,635,o),
(509,586,o),
(495,500,cs),
(484,429,l),
(469,429,l),
(480,400,l),
(490,458,o),
(454,495,o),
(388,495,cs),
(306,495,o),
(250,435,o),
(233,330,cs),
(217,230,ls),
(200,122,o),
(257,55,o),
(365,55,cs),
(479,55,o),
(554,119,o),
(572,230,cs),
(615,500,ls),
(637,638,o),
(554,740,o),
(388,740,cs),
(204,740,o),
(82,634,o),
(52,450,cs),
(-1,111,ls),
(-30,-69,o),
(66,-180,o),
(252,-180,cs)
);
},
{
closed = 1;
nodes = (
(342,150,o),
(324,179,o),
(332,230,cs),
(348,330,ls),
(356,381,o),
(383,410,o),
(421,410,cs),
(459,410,o),
(476,381,o),
(468,330,cs),
(452,230,ls),
(444,179,o),
(418,150,o),
(380,150,cs)
);
}
);
width = 600;
}
);
unicode = 64;
}
{
glyphname = B;
layers = (
{
anchors = (
{
name = bottom;
pos = (256,0);
},
{
name = top;
pos = (372,730);
}
);
layerId = "9ADF6715-3D0F-493D-8567-18A6FBCFC567";
shapes = (
{
closed = 1;
nodes = (
(266,0,ls),
(425,0,o),
(529,77,o),
(550,211,cs),
(565,304,o),
(520,378,o),
(439,387,c),
(440,389,l),
(513,399,o),
(573,459,o),
(586,542,cs),
(603,651,o),
(515,730,o),
(373,730,cs),
(138,730,l),
(22,0,l)
);
},
{
closed = 1;
nodes = (
(217,318,l),
(311,318,ls),
(376,318,o),
(410,280,o),
(401,219,cs),
(391,158,o),
(345,121,o),
(280,121,cs),
(186,121,l)
);
},
{
closed = 1;
nodes = (
(263,609,l),
(351,609,ls),
(409,609,o),
(440,577,o),
(432,523,cs),
(423,469,o),
(382,436,o),
(324,436,cs),
(236,436,l)
);
}
);
width = 600;
},
{
anchors = (
{
name = bottom;
pos = (256,0);
},
{
name = top;
pos = (372,730);
}
);
layerId = "CCC0BD40-BA8C-414E-B576-CF0B94E6C996";
shapes = (
{
closed = 1;
nodes = (
(271,0,ls),
(404,0,o),
(498,78,o),
(518,203,cs),
(533,295,o),
(486,370,o),
(401,381,c),
(402,384,l),
(480,399,o),
(543,466,o),
(555,541,cs),
(573,659,o),
(505,730,o),
(372,730,cs),
(165,730,l),
(49,0,l)
);
},
{
closed = 1;
nodes = (
(191,341,l),
(315,341,ls),
(399,341,o),
(442,286,o),
(430,206,cs),
(417,129,o),
(358,81,o),
(274,81,cs),
(150,81,l)
);
},
{
closed = 1;
nodes = (
(240,649,l),
(359,649,ls),
(436,649,o),
(476,605,o),
(465,534,cs),
(453,463,o),
(398,419,o),
(321,419,cs),
(203,419,l)
);
}
);
width = 600;
},
{
anchors = (
{
name = bottom;
pos = (256,0);
},
{
name = top;
pos = (372,730);
}
);
layerId = "EDF5EB54-295C-4C90-9A2F-67CD82979CFF";
shapes = (
{
closed = 1;
nodes = (
(257,0,ls),
(393,0,o),
(482,73,o),
(503,200,cs),
(517,289,o),
(469,368,o),
(391,381,c),
(392,384,l),
(464,397,o),
(528,467,o),
(540,542,cs),
(558,656,o),
(491,730,o),
(370,730,cs),
(182,730,l),
(66,0,l)
);
},
{
closed = 1;
nodes = (
(172,353,l),
(313,353,ls),
(415,353,o),
(469,294,o),
(454,199,cs),
(438,104,o),
(366,46,o),
(264,46,cs),
(123,46,l)
);
},
{
closed = 1;
nodes = (
(224,684,l),
(362,684,ls),
(455,684,o),
(504,630,o),
(490,541,cs),
(476,452,o),
(411,398,o),
(317,398,cs),
(179,398,l)
);
}
);
width = 600;
}
);
unicode = 66;
}
{
glyphname = C;
layers = (
{
anchors = (
{
name = bottom;
pos = (261,0);
},
{
name = top;
pos = (377,730);
}
);
layerId = "9ADF6715-3D0F-493D-8567-18A6FBCFC567";
shapes = (
{
closed = 1;
nodes = (
(417,-10,o),
(519,70,o),
(541,210,c),
(391,210,l),
(382,152,o),
(343,120,o),
(283,120,cs),
(223,120,o),
(194,152,o),
(203,210,cs),
(252,520,ls),
(262,578,o),
(301,610,o),
(361,610,cs),
(421,610,o),
(450,578,o),
(440,520,c),
(590,520,l),
(610,649,o),
(524,740,o),
(381,740,cs),
(226,740,o),
(124,660,o),
(102,520,cs),
(53,210,ls),
(32,78,o),
(115,-10,o),
(262,-10,cs)
);
}
);
width = 600;
},
{
anchors = (
{
name = bottom;
pos = (261,0);
},
{
name = top;
pos = (377,730);
}
);
layerId = "EDF5EB54-295C-4C90-9A2F-67CD82979CFF";
shapes = (
{
closed = 1;
nodes = (
(391,-10,o),
(480,69,o),
(502,200,c),
(452,200,l),
(436,98,o),
(368,35,o),
(272,35,cs),
(178,35,o),
(130,94,o),
(145,190,cs),
(201,540,ls),
(216,636,o),
(283,695,o),
(376,695,cs),
(471,695,o),
(520,632,o),
(504,530,c),
(554,530,l),
(574,658,o),
(507,740,o),
(383,740,cs),
(258,740,o),
(171,665,o),
(151,540,cs),
(95,190,ls),
(76,69,o),
(142,-10,o),
(264,-10,cs)
);
}
);
width = 600;
},
{
anchors = (
{
name = bottom;
pos = (261,0);
},
{
name = top;
pos = (377,730);
}
);
layerId = "CCC0BD40-BA8C-414E-B576-CF0B94E6C996";
shapes = (
{
closed = 1;
nodes = (
(398,-10,o),
(488,67,o),
(510,200,c),
(420,200,l),
(408,121,o),
(352,71,o),
(275,71,cs),
(198,71,o),
(158,121,o),
(170,200,cs),
(222,530,ls),
(234,609,o),
(291,659,o),
(368,659,cs),
(444,659,o),
(484,609,o),
(472,530,c),
(562,530,l),
(582,655,o),
(509,740,o),
(381,740,cs),
(244,740,o),
(154,663,o),
(132,530,cs),
(80,200,ls),
(60,71,o),
(130,-10,o),
(262,-10,cs)
);
}
);
width = 600;
}
);
unicode = 67;
}
{
glyphname = G;
layers = (
{
anchors = (
{
name = bottom;
pos = (260,0);
},
{
name = top;
pos = (372,730);
}
);
layerId = "9ADF6715-3D0F-493D-8567-18A6FBCFC567";
shapes = (
{
closed = 1;
nodes = (
(413,-10,o),
(515,70,o),
(537,210,cs),
(568,405,l),
(310,405,l),
(290,278,l),
(398,278,l),
(387,210,ls),
(378,152,o),
(339,120,o),
(279,120,cs),
(219,120,o),
(190,152,o),
(199,210,cs),
(248,520,ls),
(258,578,o),
(297,610,o),
(357,610,cs),
(417,610,o),
(446,578,o),
(436,520,c),
(586,520,l),
(606,649,o),
(520,740,o),
(377,740,cs),
(222,740,o),
(120,660,o),
(98,520,cs),
(49,210,ls),
(28,78,o),
(111,-10,o),
(258,-10,cs)
);
}
);
width = 600;
},
{
anchors = (
{
name = bottom;
pos = (260,0);
},
{
name = top;
pos = (372,730);
}
);
layerId = "CCC0BD40-BA8C-414E-B576-CF0B94E6C996";
shapes = (
{
closed = 1;
nodes = (
(393,-10,o),
(483,67,o),
(506,200,cs),
(535,382,l),
(297,382,l),
(284,300,l),
(432,300,l),
(416,200,ls),
(403,120,o),
(348,70,o),
(271,70,cs),
(194,70,o),
(153,120,o),
(166,200,cs),
(218,531,ls),
(230,610,o),
(287,659,o),
(364,659,cs),
(440,659,o),
(480,609,o),
(468,530,c),
(558,530,l),
(577,655,o),
(504,740,o),
(377,740,cs),
(241,740,o),
(151,663,o),
(128,530,cs),
(76,200,ls),
(55,71,o),
(126,-10,o),
(258,-10,cs)
);
}
);
width = 600;
},
{
anchors = (
{
name = bottom;
pos = (262,0);
},
{
name = top;
pos = (378,730);
}
);
layerId = "EDF5EB54-295C-4C90-9A2F-67CD82979CFF";
shapes = (
{
closed = 1;
nodes = (
(388,-10,o),
(477,68,o),
(498,200,cs),
(524,364,l),
(301,364,l),
(293,318,l),
(466,318,l),
(448,200,ls),
(432,98,o),
(364,35,o),
(268,35,cs),
(174,35,o),
(126,94,o),
(141,190,cs),
(197,540,ls),
(212,636,o),
(279,695,o),
(372,695,cs),
(467,695,o),
(516,632,o),
(500,530,c),
(550,530,l),
(570,658,o),
(503,740,o),
(379,740,cs),
(253,740,o),
(167,666,o),
(147,540,cs),
(91,190,ls),
(72,69,o),
(138,-10,o),
(260,-10,cs)
);
}
);
width = 600;
}
);
unicode = 71;
}
{
glyphname = J;
layers = (
{
anchors = (
{
name = bottom;
pos = (256,0);
},
{
name = top;
pos = (522,730);
}
);
layerId = "9ADF6715-3D0F-493D-8567-18A6FBCFC567";
shapes = (
{
closed = 1;
nodes = (
(383,-10,o),
(487,73,o),
(511,219,cs),
(592,730,l),
(442,730,l),
(361,219,ls),
(351,160,o),
(304,120,o),
(245,120,cs),
(183,120,o),
(151,159,o),
(161,221,c),
(11,221,l),
(-11,79,o),
(70,-10,o),
(224,-10,cs)
);
}
);
width = 600;
},
{
anchors = (
{
name = bottom;
pos = (256,0);
},
{
name = top;
pos = (522,730);
}
);
layerId = "CCC0BD40-BA8C-414E-B576-CF0B94E6C996";
shapes = (
{
closed = 1;
nodes = (
(367,-10,o),
(462,70,o),
(484,210,cs),
(567,730,l),
(477,730,l),
(394,210,ls),
(380,123,o),
(320,70,o),
(237,70,cs),
(152,70,o),
(110,121,o),
(124,210,c),
(34,210,l),
(13,75,o),
(86,-10,o),
(224,-10,cs)
);
}
);
width = 600;
},
{
anchors = (
{
name = bottom;
pos = (256,0);
},
{
name = top;
pos = (525,730);
}
);
layerId = "EDF5EB54-295C-4C90-9A2F-67CD82979CFF";
shapes = (
{
closed = 1;
nodes = (
(360,-10,o),
(447,66,o),
(468,199,cs),
(552,730,l),
(502,730,l),
(418,199,ls),
(402,98,o),
(333,35,o),
(237,35,cs),
(141,35,o),
(91,97,o),
(108,200,c),
(58,200,l),
(37,69,o),
(101,-10,o),
(229,-10,cs)
);
}
);
width = 600;
}
);
unicode = 74;
}
{
glyphname = L;
layers = (
{
anchors = (
{
name = bottom;
pos = (296,0);
},
{
name = center;
pos = (314,365);
},
{
name = top;
pos = (262,730);
}
);
layerId = "9ADF6715-3D0F-493D-8567-18A6FBCFC567";
shapes = (
{
closed = 1;
nodes = (
(516,0,l),
(537,135,l),
(242,135,l),
(337,730,l),
(187,730,l),
(71,0,l)
);
}
);
width = 600;
},
{
anchors = (
{
name = bottom;
pos = (296,0);
},
{
name = center;
pos = (314,365);
},
{
name = top;
pos = (247,730);
}
);
layerId = "CCC0BD40-BA8C-414E-B576-CF0B94E6C996";
shapes = (
{
closed = 1;
nodes = (
(506,0,l),
(519,82,l),
(189,82,l),
(292,730,l),
(202,730,l),
(86,0,l)
);
}
);
width = 600;
},
{
anchors = (
{
name = bottom;
pos = (296,0);
},
{
name = center;
pos = (314,365);
},
{
name = top;
pos = (238,730);
}
);
layerId = "EDF5EB54-295C-4C90-9A2F-67CD82979CFF";
shapes = (
{
closed = 1;
nodes = (
(501,0,l),
(508,46,l),
(153,46,l),
(262,730,l),
(212,730,l),
(96,0,l)
);
}
);
width = 600;
}
);
unicode = 76;
}
{
glyphname = M;
layers = (
{
anchors = (
{
name = bottom;
pos = (256,0);
},
{
name = top;
pos = (372,730);
}
);
layerId = "CCC0BD40-BA8C-414E-B576-CF0B94E6C996";
shapes = (
{
closed = 1;
nodes = (
(115,0,l),
(170,345,ls),
(191,477,o),
(206,595,o),
(211,694,c),
(266,326,l),
(344,326,l),
(521,703,l),
(496,598,o),
(468,443,o),
(452,345,cs),
(397,0,l),
(484,0,l),
(600,730,l),
(465,730,l),
(318,414,l),
(275,730,l),
(144,730,l),
(28,0,l)
);
}
);
width = 600;
},
{
anchors = (
{
name = bottom;
pos = (256,0);
},
{
name = top;
pos = (372,730);
}
);
layerId = "9ADF6715-3D0F-493D-8567-18A6FBCFC567";
shapes = (
{
closed = 1;
nodes = (
(135,0,l),
(179,280,ls),
(203,433,o),
(208,574,o),
(209,661,c),
(243,310,l),
(363,310,l),
(512,670,l),
(483,567,o),
(444,426,o),
(421,280,cs),
(377,0,l),
(514,0,l),
(630,730,l),
(441,730,l),
(317,418,l),
(293,730,l),
(114,730,l),
(-2,0,l)
);
}
);
width = 600;
},
{
anchors = (
{
name = bottom;
pos = (256,0);
},
{
name = top;
pos = (372,730);
}
);
layerId = "EDF5EB54-295C-4C90-9A2F-67CD82979CFF";
shapes = (
{
closed = 1;
nodes = (
(97,0,l),
(167,440,ls),
(183,542,o),
(195,651,o),
(199,705,c),
(280,325,l),
(335,325,l),
(535,707,l),
(522,653,o),
(501,542,o),
(485,440,cs),
(415,0,l),
(464,0,l),
(580,730,l),
(506,730,l),
(311,361,l),
(232,730,l),
(164,730,l),
(48,0,l)
);
}
);
width = 600;
}
);
unicode = 77;
}
{
glyphname = R;
layers = (
{
anchors = (
{
name = bottom;
pos = (256,0);
},
{
name = top;
pos = (372,730);
}
);
layerId = "9ADF6715-3D0F-493D-8567-18A6FBCFC567";
shapes = (
{
closed = 1;
nodes = (
(169,0,l),
(213,276,l),
(289,276,l),
(363,0,l),
(521,0,l),
(431,300,l),
(517,334,o),
(576,410,o),
(591,508,cs),
(612,640,o),
(523,730,o),
(372,730,cs),
(138,730,l),
(22,0,l)
);
},
{
closed = 1;
nodes = (
(264,600,l),
(351,600,ls),
(417,600,o),
(450,563,o),
(440,501,cs),
(431,441,o),
(386,406,o),
(320,406,cs),
(233,406,l)
);
}
);
width = 600;
},
{
anchors = (
{
name = bottom;
pos = (256,0);
},
{
name = top;
pos = (372,730);
}
);
layerId = "CCC0BD40-BA8C-414E-B576-CF0B94E6C996";
shapes = (
{
closed = 1;
nodes = (
(138,0,l),
(187,310,l),
(311,310,l),
(405,0,l),
(501,0,l),
(403,319,l),
(497,349,o),
(559,422,o),
(573,520,cs),
(593,645,o),
(520,730,o),
(390,730,cs),
(165,730,l),
(49,0,l)
);
},
{
closed = 1;
nodes = (
(241,649,l),
(377,649,ls),
(451,649,o),
(493,598,o),
(480,520,cs),
(468,442,o),
(411,391,o),
(336,391,cs),
(200,391,l)
);
}
);
width = 600;
},
{
anchors = (
{
name = bottom;
pos = (256,0);
},
{
name = top;
pos = (372,730);
}
);
layerId = "EDF5EB54-295C-4C90-9A2F-67CD82979CFF";
shapes = (
{
closed = 1;
nodes = (
(116,0,l),
(168,330,l),
(321,330,l),
(434,0,l),
(486,0,l),
(368,332,l),
(472,347,o),
(548,422,o),
(565,528,cs),
(585,650,o),
(514,730,o),
(387,730,cs),
(182,730,l),
(66,0,l)
);
},
{
closed = 1;
nodes = (
(224,684,l),
(379,684,ls),
(476,684,o),
(530,624,o),
(515,530,cs),
(500,436,o),
(427,375,o),
(330,375,cs),
(175,375,l)
);
}
);
width = 600;
}
);
unicode = 82;
}
{
glyphname = S;
layers = (
{
anchors = (
{
name = bottom;
pos = (256,0);
},
{
name = top;
pos = (372,730);
}
);
layerId = "9ADF6715-3D0F-493D-8567-18A6FBCFC567";
shapes = (
{
closed = 1;
nodes = (
(416,-10,o),
(520,69,o),
(542,206,cs),
(560,324,o),
(503,415,o),
(392,441,cs),
(303,462,ls),
(261,472,o),
(240,496,o),
(246,535,cs),
(253,582,o),
(292,612,o),
(349,612,cs),
(408,612,o),
(438,581,o),
(430,531,c),
(576,531,l),
(595,655,o),
(512,740,o),
(369,740,cs),
(219,740,o),
(121,663,o),
(99,530,cs),
(82,423,o),
(141,342,o),
(252,315,cs),
(338,294,ls),
(383,283,o),
(401,247,o),
(395,206,cs),
(388,156,o),
(340,120,o),
(277,120,cs),
(210,120,o),
(174,155,o),
(182,210,c),
(36,210,l),
(16,79,o),
(106,-10,o),
(256,-10,cs)
);
}
);
width = 600;
},
{
anchors = (
{
name = bottom;
pos = (256,0);
},
{
name = top;
pos = (372,730);
}
);
layerId = "CCC0BD40-BA8C-414E-B576-CF0B94E6C996";
shapes = (
{
closed = 1;
nodes = (
(399,-10,o),
(495,67,o),
(516,200,cs),
(532,301,o),
(487,377,o),
(394,405,cs),
(286,437,ls),
(236,452,o),
(212,493,o),
(221,547,cs),
(231,614,o),
(287,660,o),
(358,660,cs),
(429,660,o),
(471,614,o),
(461,547,c),
(551,547,l),
(569,660,o),
(493,740,o),
(370,740,cs),
(239,740,o),
(152,668,o),
(132,545,cs),
(117,451,o),
(162,380,o),
(250,354,cs),
(356,323,ls),
(411,307,o),
(437,259,o),
(428,200,cs),
(415,122,o),
(354,70,o),
(271,70,cs),
(185,70,o),
(137,119,o),
(150,200,c),
(60,200,l),
(39,69,o),
(117,-10,o),
(258,-10,cs)
);
}
);
width = 600;
},
{
anchors = (
{
name = bottom;
pos = (256,0);
},
{
name = top;
pos = (372,730);
}
);
layerId = "EDF5EB54-295C-4C90-9A2F-67CD82979CFF";
shapes = (
{
closed = 1;
nodes = (
(391,-10,o),
(481,63,o),
(500,183,cs),
(515,279,o),
(469,357,o),
(380,386,cs),
(283,418,ls),
(221,439,o),
(188,495,o),
(199,563,cs),
(212,642,o),
(281,696,o),
(369,696,cs),
(459,696,o),
(511,635,o),
(496,545,c),
(545,545,l),
(564,659,o),
(493,740,o),
(377,740,cs),
(252,740,o),
(168,672,o),
(150,559,cs),
(136,471,o),
(180,399,o),
(264,372,cs),
(361,341,ls),
(429,319,o),
(463,257,o),
(451,180,cs),
(437,94,o),
(362,35,o),
(267,35,cs),
(166,35,o),
(106,102,o),
(122,200,c),
(73,200,l),
(53,75,o),
(129,-10,o),
(259,-10,cs)
);
}
);
width = 600;
}
);
unicode = 83;
}
{
glyphname = W;
layers = (
{
anchors = (
{
name = bottom;
pos = (256,0);
},
{
name = top;
pos = (372,730);
}
);
layerId = "9ADF6715-3D0F-493D-8567-18A6FBCFC567";
shapes = (
{
closed = 1;
nodes = (
(191,0,l),
(322,485,ls),
(331,519,o),
(347,594,o),
(357,640,c),
(353,594,o),
(347,519,o),
(345,485,cs),
(317,0,l),
(473,0,l),
(662,730,l),
(539,730,l),
(427,242,ls),
(421,213,o),
(406,144,o),
(398,100,c),
(400,144,o),
(404,213,o),
(405,242,cs),
(427,730,l),
(313,730,l),
(177,242,ls),
(170,213,o),
(153,144,o),
(142,100,c),
(148,144,o),
(155,213,o),
(157,242,cs),
(198,730,l),
(82,730,l),
(34,0,l)
);
}
);
width = 600;
},
{
anchors = (
{
name = bottom;
pos = (256,0);
},
{
name = top;
pos = (372,730);
}
);
layerId = "CCC0BD40-BA8C-414E-B576-CF0B94E6C996";
shapes = (
{
closed = 1;
nodes = (
(176,0,l),
(334,550,ls),
(347,595,o),
(357,643,o),
(364,667,c),
(362,643,o),
(357,595,o),
(355,550,cs),
(334,0,l),
(447,0,l),
(652,730,l),
(570,730,l),
(425,190,ls),
(413,146,o),
(401,93,o),
(394,65,c),
(396,93,o),
(398,146,o),
(400,190,cs),
(420,730,l),
(323,730,l),
(165,190,ls),
(152,146,o),
(140,93,o),
(132,65,c),
(136,93,o),
(141,146,o),
(143,190,cs),
(172,730,l),
(92,730,l),
(63,0,l)
);
}
);
width = 600;
},
{
anchors = (
{
name = bottom;
pos = (256,0);
},
{
name = top;
pos = (372,730);
}
);
layerId = "EDF5EB54-295C-4C90-9A2F-67CD82979CFF";
shapes = (
{
closed = 1;
nodes = (
(156,0,l),
(322,530,ls),
(338,582,o),
(356,652,o),
(368,690,c),
(367,651,o),
(363,581,o),
(362,530,cs),
(353,0,l),
(425,0,l),
(632,730,l),
(583,730,l),
(435,190,ls),
(425,154,o),
(404,80,o),
(391,35,c),
(392,79,o),
(395,153,o),
(396,190,cs),
(405,730,l),
(341,730,l),
(175,190,ls),
(164,154,o),
(144,80,o),
(131,35,c),
(133,80,o),
(137,154,o),
(138,190,cs),
(156,730,l),
(112,730,l),
(86,0,l)
);
}
);
width = 600;
}
);
unicode = 87;
}
{
glyphname = Y;
layers = (
{
anchors = (
{
name = bottom;
pos = (256,0);
},
{
name = top;
pos = (372,730);
},
{
name = topleft;
pos = (92,730);
}
);
layerId = "9ADF6715-3D0F-493D-8567-18A6FBCFC567";
shapes = (
{
closed = 1;
nodes = (
(331,0,l),
(372,260,l),
(657,730,l),
(496,730,l),
(372,510,ls),
(347,466,o),
(325,410,o),
(314,380,c),
(313,410,o),
(307,466,o),
(296,510,cs),
(239,730,l),
(87,730,l),
(222,260,l),
(181,0,l)
);
}
);
width = 600;
},
{
anchors = (
{
name = bottom;
pos = (256,0);
},
{
name = top;
pos = (372,730);
},
{
name = topleft;
pos = (92,730);
}
);
layerId = "CCC0BD40-BA8C-414E-B576-CF0B94E6C996";
shapes = (
{
closed = 1;
nodes = (
(301,0,l),
(344,273,l),
(637,730,l),
(540,730,l),
(350,430,ls),
(329,397,o),
(315,372,o),
(310,362,c),
(309,372,o),
(304,397,o),
(293,430,cs),
(199,730,l),
(107,730,l),
(254,273,l),
(211,0,l)
);
}
);
width = 600;
},
{
anchors = (
{
name = bottom;
pos = (256,0);
},
{
name = top;
pos = (372,730);
},
{
name = topleft;
pos = (92,730);
}
);
layerId = "EDF5EB54-295C-4C90-9A2F-67CD82979CFF";
shapes = (
{
closed = 1;
nodes = (
(281,0,l),
(325,280,l),
(622,730,l),
(568,730,l),
(350,400,ls),
(331,370,o),
(315,342,o),
(307,330,c),
(303,343,o),
(295,371,o),
(285,400,cs),
(173,730,l),
(122,730,l),
(275,280,l),
(231,0,l)
);
}
);
width = 600;
}
);
unicode = 89;
}
{
glyphname = a;
layers = (
{
anchors = (
{
name = bottom;
pos = (261,0);
},
{
name = ogonek;
pos = (390,0);
},
{
name = top;
pos = (348,550);
}
);
layerId = "9ADF6715-3D0F-493D-8567-18A6FBCFC567";
shapes = (
{
closed = 1;
nodes = (
(271,-10,o),
(349,55,o),
(364,150,c),
(335,125,l),
(360,125,l),
(359,117,ls),
(348,48,o),
(399,0,o),
(485,0,cs),
(540,0,l),
(561,130,l),
(515,130,ls),
(492,130,o),
(478,145,o),
(482,168,cs),
(542,550,l),
(393,550,l),
(380,445,l),
(345,445,l),
(375,410,l),
(389,499,o),
(344,560,o),
(265,560,cs),
(166,560,o),
(83,472,o),
(62,345,cs),
(39,205,ls),
(18,78,o),
(72,-10,o),
(174,-10,cs)
);
},
{
closed = 1;
nodes = (
(204,120,o),
(182,155,o),
(190,210,cs),
(211,340,ls),
(220,395,o),
(253,430,o),
(298,430,cs),
(344,430,o),
(368,395,o),
(359,340,cs),
(338,210,ls),
(330,155,o),
(295,120,o),
(249,120,cs)
);
}
);
width = 600;
},
{
anchors = (
{
name = bottom;
pos = (261,0);
},
{
name = ogonek;
pos = (410,0);
},
{
name = top;
pos = (348,550);
}
);
layerId = "EDF5EB54-295C-4C90-9A2F-67CD82979CFF";
shapes = (
{
closed = 1;
nodes = (
(318,-10,o),
(391,51,o),
(405,140,c),
(385,119,l),
(398,119,l),
(396,105,ls),
(386,43,o),
(419,0,o),
(478,0,cs),
(523,0,l),
(530,45,l),
(485,45,ls),
(450,45,o),
(429,69,o),
(435,105,cs),
(505,550,l),
(455,550,l),
(442,465,l),
(424,465,l),
(443,410,l),
(456,499,o),
(404,560,o),
(316,560,cs),
(215,560,o),
(133,479,o),
(114,360,cs),
(87,189,ls),
(68,71,o),
(124,-10,o),
(225,-10,cs)
);
},
{
closed = 1;
nodes = (
(163,33,o),
(122,93,o),
(137,189,cs),
(164,360,ls),
(179,456,o),
(239,517,o),
(319,517,cs),
(400,517,o),
(440,456,o),
(425,360,cs),
(398,189,ls),
(383,93,o),
(323,33,o),
(242,33,cs)
);
}
);
width = 600;
},
{
anchors = (
{
name = bottom;
pos = (261,0);
},
{
name = ogonek;
pos = (420,0);
},
{
name = top;
pos = (348,550);
}
);
layerId = "CCC0BD40-BA8C-414E-B576-CF0B94E6C996";
shapes = (
{
closed = 1;
nodes = (
(301,-10,o),
(376,54,o),
(390,147,c),
(369,147,l),
(385,136,l),
(382,117,ls),
(371,48,o),
(409,0,o),
(475,0,cs),
(525,0,l),
(538,82,l),
(493,82,ls),
(467,82,o),
(451,100,o),
(455,127,cs),
(522,550,l),
(432,550,l),
(417,445,l),
(397,445,l),
(412,424,l),
(425,505,o),
(378,560,o),
(296,560,cs),
(197,560,o),
(115,477,o),
(95,355,cs),
(70,194,ls),
(51,73,o),
(106,-10,o),
(205,-10,cs)
);
},
{
closed = 1;
nodes = (
(182,68,o),
(149,119,o),
(161,200,cs),
(184,350,ls),
(196,431,o),
(246,482,o),
(313,482,cs),
(378,482,o),
(412,431,o),
(400,350,cs),
(377,200,ls),
(364,119,o),
(314,68,o),
(248,68,cs)
);
}
);
width = 600;
}
);
unicode = 97;
}
{
glyphname = b;
layers = (
{
anchors = (
{
name = bottom;
pos = (256,0);
},
{
name = top;
pos = (372,730);
}
);
layerId = "CCC0BD40-BA8C-414E-B576-CF0B94E6C996";
shapes = (
{
closed = 1;
nodes = (
(401,-10,o),
(479,64,o),
(500,194,cs),
(525,355,ls),
(545,482,o),
(488,560,o),
(377,560,cs),
(280,560,o),
(216,510,o),
(203,424,c),
(226,445,l),
(206,445,l),
(228,570,l),
(254,730,l),
(164,730,l),
(48,0,l),
(138,0,l),
(155,105,l),
(173,105,l),
(158,126,l),
(145,42,o),
(195,-10,o),
(286,-10,cs)
);
},
{
closed = 1;
nodes = (
(195,68,o),
(157,117,o),
(170,200,cs),
(193,350,ls),
(207,433,o),
(260,482,o),
(334,482,cs),
(410,482,o),
(449,445,o),
(435,355,cs),
(410,195,ls),
(396,105,o),
(345,68,o),
(269,68,cs)
);
}
);
width = 600;
},
{
anchors = (
{
name = bottom;
pos = (256,0);
},
{
name = top;
pos = (372,730);
}
);
layerId = "EDF5EB54-295C-4C90-9A2F-67CD82979CFF";
shapes = (
{
closed = 1;
nodes = (
(379,-10,o),
(461,67,o),
(481,189,cs),
(508,360,ls),
(527,480,o),
(468,560,o),
(358,560,cs),
(258,560,o),
(185,502,o),
(171,410,c),
(206,455,l),
(188,455,l),
(208,580,l),
(232,730,l),
(182,730,l),
(66,0,l),
(116,0,l),
(131,95,l),
(146,95,l),
(128,140,l),
(114,49,o),
(171,-10,o),
(267,-10,cs)
);
},
{
closed = 1;
nodes = (
(174,33,o),
(130,91,o),
(146,189,cs),
(173,360,ls),
(189,458,o),
(250,517,o),
(341,517,cs),
(430,517,o),
(474,458,o),
(458,360,cs),
(431,189,ls),
(415,91,o),
(353,33,o),
(264,33,cs)
);
}
);
width = 600;
},
{
anchors = (
{
name = bottom;
pos = (256,0);
},
{
name = top;
pos = (372,730);
}
);
layerId = "9ADF6715-3D0F-493D-8567-18A6FBCFC567";
shapes = (
{
closed = 1;
nodes = (
(426,-10,o),
(508,73,o),
(528,205,cs),
(551,345,ls),
(571,476,o),
(513,560,o),
(407,560,cs),
(302,560,o),
(231,487,o),
(210,360,c),
(271,435,l),
(236,435,l),
(264,580,l),
(288,730,l),
(138,730,l),
(22,0,l),
(167,0,l),
(185,115,l),
(220,115,l),
(183,190,l),
(163,66,o),
(214,-10,o),
(316,-10,cs)
);
},
{
closed = 1;
nodes = (
(222,120,o),
(196,154,o),
(206,215,cs),
(225,335,ls),
(235,396,o),
(271,430,o),
(328,430,cs),
(383,430,o),
(409,398,o),
(400,340,cs),
(379,210,ls),
(370,152,o),
(334,120,o),
(279,120,cs)
);
}
);
width = 600;
}
);
unicode = 98;
}
{
glyphname = c;
layers = (
{
anchors = (
{
name = bottom;
pos = (265,0);
},
{
name = top;
pos = (352,550);
}
);
layerId = "9ADF6715-3D0F-493D-8567-18A6FBCFC567";
shapes = (
{
closed = 1;
nodes = (
(413,-10,o),
(513,65,o),
(539,195,c),
(393,195,l),
(381,147,o),
(339,120,o),
(284,120,cs),
(224,120,o),
(196,152,o),
(205,210,cs),
(226,340,ls),
(235,398,o),
(273,430,o),
(333,430,cs),
(387,430,o),
(422,402,o),
(418,355,c),
(564,355,l),
(579,480,o),
(497,560,o),
(354,560,cs),
(199,560,o),
(99,480,o),
(76,340,cs),
(55,210,ls),
(34,79,o),
(118,-10,o),
(263,-10,cs)
);
}
);
width = 600;
},
{
anchors = (
{
name = bottom;
pos = (264,0);
},
{
name = top;
pos = (351,550);
}
);
layerId = "CCC0BD40-BA8C-414E-B576-CF0B94E6C996";
shapes = (
{
closed = 1;
nodes = (
(394,-10,o),
(484,59,o),
(508,180,c),
(418,180,l),
(402,110,o),
(349,70,o),
(275,70,cs),
(196,70,o),
(153,117,o),
(166,200,cs),
(190,351,ls),
(203,433,o),
(261,480,o),
(340,480,cs),
(414,480,o),
(455,440,o),
(448,370,c),
(538,370,l),
(552,485,o),
(479,560,o),
(353,560,cs),
(214,560,o),
(119,483,o),
(99,350,cs),
(76,200,ls),
(56,71,o),
(131,-10,o),
(262,-10,cs)
);
}
);
width = 600;
},
{
anchors = (
{
name = bottom;
pos = (265,0);
},
{
name = top;
pos = (352,550);
}
);
layerId = "EDF5EB54-295C-4C90-9A2F-67CD82979CFF";
shapes = (
{
closed = 1;
nodes = (
(389,-10,o),
(473,59,o),
(492,180,c),
(442,180,l),
(427,90,o),
(363,36,o),
(271,36,cs),
(180,36,o),
(133,94,o),
(148,190,cs),
(175,360,ls),
(190,457,o),
(255,514,o),
(346,514,cs),
(438,514,o),
(486,460,o),
(472,370,c),
(522,370,l),
(540,482,o),
(471,560,o),
(354,560,cs),
(229,560,o),
(145,487,o),
(125,360,cs),
(98,190,ls),
(79,70,o),
(144,-10,o),
(263,-10,cs)
);
}
);
width = 600;
}
);
unicode = 99;
}
{
glyphname = d;
layers = (
{
anchors = (
{
name = bottom;
pos = (256,0);
},
{
name = center;
pos = (300,275);
},
{
name = top;
pos = (372,730);
},
{
name = topright;
pos = (623,550);
}
);
layerId = "EDF5EB54-295C-4C90-9A2F-67CD82979CFF";
shapes = (
{
closed = 1;
nodes = (
(345,-10,o),
(413,45,o),
(428,140,c),
(393,95,l),
(411,95,l),
(396,0,l),
(446,0,l),
(562,730,l),
(512,730,l),
(488,580,l),
(468,455,l),
(450,455,l),
(471,410,l),
(485,501,o),
(428,560,o),
(332,560,cs),
(216,560,o),
(138,487,o),
(118,360,cs),
(91,189,ls),
(72,71,o),
(133,-10,o),
(241,-10,cs)
);
},
{
closed = 1;
nodes = (
(169,33,o),
(126,91,o),
(141,189,cs),
(168,360,ls),
(183,458,o),
(246,517,o),
(335,517,cs),
(426,517,o),
(468,458,o),
(453,360,cs),
(426,189,ls),
(411,91,o),
(348,33,o),
(258,33,cs)
);
}
);
width = 600;
},
{
anchors = (
{
name = bottom;
pos = (256,0);
},
{
name = center;
pos = (300,275);
},
{
name = top;
pos = (372,730);
},
{
name = topright;
pos = (623,550);
}
);
layerId = "9ADF6715-3D0F-493D-8567-18A6FBCFC567";
shapes = (
{
closed = 1;
nodes = (
(296,-10,o),
(367,63,o),
(388,190,c),
(328,115,l),
(363,115,l),
(345,0,l),
(490,0,l),
(606,730,l),
(456,730,l),
(432,580,l),
(414,435,l),
(379,435,l),
(416,360,l),
(436,485,o),
(385,560,o),
(283,560,cs),
(171,560,o),
(94,482,o),
(71,345,cs),
(48,205,ls),
(27,76,o),
(88,-10,o),
(192,-10,cs)
);
},
{
closed = 1;
nodes = (
(216,120,o),
(190,152,o),
(199,210,cs),
(220,340,ls),
(229,398,o),
(265,430,o),
(320,430,cs),
(377,430,o),
(403,396,o),
(393,335,cs),
(374,215,ls),
(364,154,o),
(328,120,o),
(271,120,cs)
);
}
);
width = 600;
},
{
anchors = (
{
name = bottom;
pos = (256,0);
},
{
name = center;
pos = (300,275);
},
{
name = top;
pos = (372,730);
},
{
name = topright;
pos = (623,550);
}
);
layerId = "CCC0BD40-BA8C-414E-B576-CF0B94E6C996";
shapes = (
{
closed = 1;
nodes = (
(318,-10,o),
(381,40,o),
(394,126,c),
(373,105,l),
(391,105,l),
(374,0,l),
(464,0,l),
(580,730,l),
(490,730,l),
(464,570,l),
(446,445,l),
(426,445,l),
(443,424,l),
(456,507,o),
(403,560,o),
(313,560,cs),
(197,560,o),
(119,485,o),
(99,355,cs),
(74,194,ls),
(55,71,o),
(116,-10,o),
(222,-10,cs)
);
},
{
closed = 1;
nodes = (
(189,68,o),
(150,105,o),
(164,195,cs),
(189,355,ls),
(203,445,o),
(254,482,o),
(330,482,cs),
(404,482,o),
(442,433,o),
(429,350,cs),
(406,200,ls),
(393,117,o),
(339,68,o),
(265,68,cs)
);
}
);
width = 600;
}
);
unicode = 100;
}
{
glyphname = e;
layers = (
{
anchors = (
{
name = bottom;
pos = (256,0);
},
{
name = ogonek;
pos = (311,0);
},
{
name = top;
pos = (343,550);
}
);
layerId = "EDF5EB54-295C-4C90-9A2F-67CD82979CFF";
shapes = (
{
closed = 1;
nodes = (
(359,-10,o),
(437,43,o),
(468,135,c),
(418,135,l),
(397,72,o),
(336,34,o),
(262,34,cs),
(167,34,o),
(125,92,o),
(141,190,cs),
(153,265,l),
(367,265,ls),
(449,265,o),
(500,306,o),
(512,384,cs),
(527,479,o),
(465,560,o),
(346,560,cs),
(220,560,o),
(138,487,o),
(118,360,cs),
(91,190,ls),
(72,72,o),
(132,-10,o),
(255,-10,cs)
);
},
{
closed = 1;
nodes = (
(168,360,ls),
(183,457,o),
(245,516,o),
(339,516,cs),
(431,516,o),
(474,456,o),
(462,384,cs),
(454,334,o),
(425,308,o),
(375,308,cs),
(160,308,l)
);
}
);
width = 600;
},
{
anchors = (
{
name = bottom;
pos = (256,0);
},
{
name = ogonek;
pos = (306,0);
},
{
name = top;
pos = (343,550);
}
);
layerId = "CCC0BD40-BA8C-414E-B576-CF0B94E6C996";
shapes = (
{
closed = 1;
nodes = (
(377,-10,o),
(463,45,o),
(490,140,c),
(400,140,l),
(384,96,o),
(334,68,o),
(267,68,cs),
(189,68,o),
(147,119,o),
(160,200,cs),
(168,250,l),
(370,250,ls),
(460,250,o),
(519,295,o),
(533,382,cs),
(549,486,o),
(470,560,o),
(345,560,cs),
(208,560,o),
(116,480,o),
(94,340,cs),
(73,210,ls),
(51,73,o),
(124,-10,o),
(254,-10,cs)
);
},
{
closed = 1;
nodes = (
(183,350,ls),
(196,437,o),
(252,486,o),
(333,486,cs),
(407,486,o),
(452,444,o),
(442,382,cs),
(435,339,o),
(412,322,o),
(380,322,cs),
(179,322,l)
);
}
);
width = 600;
},
{
anchors = (
{
name = bottom;
pos = (256,0);
},
{
name = ogonek;
pos = (301,0);
},
{
name = top;
pos = (343,550);
}
);
layerId = "9ADF6715-3D0F-493D-8567-18A6FBCFC567";
shapes = (
{
closed = 1;
nodes = (
(380,-10,o),
(474,48,o),
(512,150,c),
(365,150,l),
(354,123,o),
(316,110,o),
(274,110,cs),
(209,110,o),
(178,141,o),
(192,210,cs),
(197,234,l),
(385,234,ls),
(480,234,o),
(544,285,o),
(557,373,cs),
(574,485,o),
(488,560,o),
(346,560,cs),
(194,560,o),
(94,480,o),
(70,340,cs),
(49,210,ls),
(27,81,o),
(111,-10,o),
(255,-10,cs)
);
},
{
closed = 1;
nodes = (
(213,340,ls),
(224,408,o),
(262,449,o),
(328,449,cs),
(382,449,o),
(415,417,o),
(407,371,cs),
(402,339,o),
(386,329,o),
(364,329,cs),
(211,327,l)
);
}
);
width = 600;
}
);
unicode = 101;
}
{
glyphname = f;
layers = (
{
anchors = (
{
name = bottom;
pos = (256,0);
},
{
name = top;
pos = (372,730);
}
);
layerId = "CCC0BD40-BA8C-414E-B576-CF0B94E6C996";
shapes = (
{
closed = 1;
nodes = (
(73,-180,ls),
(181,-180,o),
(255,-119,o),
(271,-20,cs),
(332,353,l),
(546,353,l),
(559,435,l),
(345,435,l),
(367,570,ls),
(376,623,o),
(405,648,o),
(461,648,cs),
(587,648,l),
(600,730,l),
(475,730,ls),
(367,730,o),
(293,669,o),
(277,570,cs),
(255,435,l),
(84,435,l),
(71,353,l),
(242,353,l),
(181,-20,ls),
(172,-73,o),
(143,-98,o),
(87,-98,cs),
(13,-98,l),
(0,-180,l)
);
}
);
width = 600;
},
{
anchors = (
{
name = bottom;
pos = (256,0);
},
{
name = top;
pos = (372,730);
}
);
layerId = "EDF5EB54-295C-4C90-9A2F-67CD82979CFF";
shapes = (
{
closed = 1;
nodes = (
(98,-180,ls),
(179,-180,o),
(235,-133,o),
(248,-55,cs),
(321,389,l),
(540,389,l),
(547,434,l),
(328,434,l),
(356,605,ls),
(365,656,o),
(397,685,o),
(448,685,cs),
(587,685,l),
(595,730,l),
(456,730,ls),
(375,730,o),
(319,683,o),
(306,605,cs),
(278,434,l),
(94,434,l),
(87,389,l),
(271,389,l),
(198,-55,ls),
(189,-106,o),
(157,-135,o),
(106,-135,cs),
(8,-135,l),
(0,-180,l)
);
}
);
width = 600;
},
{
anchors = (
{
name = bottom;
pos = (256,0);
},
{
name = top;
pos = (372,730);
}
);
layerId = "9ADF6715-3D0F-493D-8567-18A6FBCFC567";
shapes = (
{
closed = 1;
nodes = (
(48,-180,ls),
(189,-180,o),
(288,-106,o),
(308,14,cs),
(354,300,l),
(549,300,l),
(571,435,l),
(376,435,l),
(395,555,ls),
(400,582,o),
(420,600,o),
(447,600,cs),
(579,600,l),
(600,730,l),
(463,730,ls),
(349,730,o),
(262,662,o),
(246,560,cs),
(226,435,l),
(74,435,l),
(52,300,l),
(204,300,l),
(159,19,ls),
(152,-31,o),
(115,-60,o),
(62,-60,cs),
(19,-60,l),
(0,-180,l)
);
}
);
width = 600;
}
);
unicode = 102;
}
{
glyphname = g;
layers = (
{
anchors = (
{
name = bottom;
pos = (213,-270);
},
{
name = top;
pos = (340,550);
}
);
layerId = "EDF5EB54-295C-4C90-9A2F-67CD82979CFF";
shapes = (
{
closed = 1;
nodes = (
(246,-180,ls),
(358,-180,o),
(426,-124,o),
(444,-15,cs),
(533,550,l),
(483,550,l),
(468,455,l),
(455,455,l),
(468,410,l),
(482,501,o),
(428,560,o),
(332,560,cs),
(219,560,o),
(137,483,o),
(118,360,cs),
(99,239,ls),
(80,119,o),
(139,40,o),
(249,40,cs),
(345,40,o),
(419,99,o),
(433,190,c),
(401,145,l),
(419,145,l),
(401,30,l),
(394,-15,ls),
(381,-94,o),
(333,-135,o),
(254,-135,cs),
(109,-135,l),
(101,-180,l)
);
},
{
closed = 1;
nodes = (
(177,83,o),
(133,141,o),
(149,239,cs),
(168,360,ls),
(184,458,o),
(246,517,o),
(335,517,cs),
(426,517,o),
(469,458,o),
(453,360,cs),
(434,239,ls),
(418,141,o),
(356,83,o),
(266,83,cs)
);
}
);
width = 600;
},
{
anchors = (
{
name = bottom;
pos = (213,-270);
},
{
name = top;
pos = (340,550);
}
);
layerId = "9ADF6715-3D0F-493D-8567-18A6FBCFC567";
shapes = (
{
closed = 1;
nodes = (
(232,-180,ls),
(373,-180,o),
(473,-106,o),
(492,14,cs),
(577,550,l),
(432,550,l),
(417,455,l),
(382,455,l),
(422,360,l),
(442,484,o),
(391,560,o),
(288,560,cs),
(177,560,o),
(92,476,o),
(71,345,cs),
(55,245,ls),
(34,113,o),
(93,30,o),
(204,30,cs),
(310,30,o),
(382,103,o),
(401,230,c),
(336,165,l),
(371,165,l),
(349,40,l),
(346,19,ls),
(339,-31,o),
(302,-60,o),
(246,-60,cs),
(91,-60,l),
(72,-180,l)
);
},
{
closed = 1;
nodes = (
(222,160,o),
(197,192,o),
(206,250,cs),
(220,340,ls),
(229,397,o),
(265,430,o),
(321,430,cs),
(376,430,o),
(403,397,o),
(394,340,cs),
(380,250,ls),
(371,192,o),
(333,160,o),
(278,160,cs)
);
}
);
width = 600;
},
{
anchors = (
{
name = bottom;
pos = (213,-270);
},
{
name = top;
pos = (340,550);
}
);
layerId = "CCC0BD40-BA8C-414E-B576-CF0B94E6C996";
shapes = (
{
closed = 1;
nodes = (
(242,-180,ls),
(360,-180,o),
(445,-111,o),
(463,0,cs),
(550,550,l),
(461,550,l),
(446,455,l),
(429,455,l),
(442,430,l),
(455,510,o),
(405,560,o),
(316,560,cs),
(203,560,o),
(119,481,o),
(100,356,cs),
(82,240,ls),
(62,114,o),
(120,38,o),
(233,38,cs),
(322,38,o),
(387,85,o),
(400,165,c),
(379,140,l),
(397,140,l),
(381,50,l),
(373,0,ls),
(363,-60,o),
(318,-98,o),
(256,-98,cs),
(101,-98,l),
(88,-180,l)
);
},
{
closed = 1;
nodes = (
(196,113,o),
(159,160,o),
(171,235,cs),
(191,360,ls),
(203,435,o),
(254,482,o),
(330,482,cs),
(404,482,o),
(442,433,o),
(429,350,cs),
(413,245,ls),
(400,162,o),
(346,113,o),
(272,113,cs)
);
}
);
width = 600;
}
);
unicode = 103;
}
{
glyphname = k;
layers = (
{
anchors = (
{
name = bottom;
pos = (256,0);
},
{
name = top;
pos = (372,730);
}
);
layerId = "EDF5EB54-295C-4C90-9A2F-67CD82979CFF";
shapes = (
{
closed = 1;
nodes = (
(121,0,l),
(163,264,l),
(296,264,l),
(433,0,l),
(489,0,l),
(340,289,l),
(566,550,l),
(505,550,l),
(296,309,l),
(170,309,l),
(237,730,l),
(187,730,l),
(71,0,l)
);
}
);
width = 600;
},
{
anchors = (
{
name = bottom;
pos = (256,0);
},
{
name = top;
pos = (372,730);
}
);
layerId = "CCC0BD40-BA8C-414E-B576-CF0B94E6C996";
shapes = (
{
closed = 1;
nodes = (
(143,0,l),
(182,245,l),
(293,245,l),
(414,0,l),
(515,0,l),
(372,288,l),
(592,550,l),
(485,550,l),
(295,323,l),
(194,323,l),
(259,730,l),
(169,730,l),
(53,0,l)
);
}
);
width = 600;
},
{
anchors = (
{
name = bottom;
pos = (256,0);
},
{
name = top;
pos = (372,730);
}
);
layerId = "9ADF6715-3D0F-493D-8567-18A6FBCFC567";
shapes = (
{
closed = 1;
nodes = (
(177,0,l),
(211,216,l),
(291,216,l),
(372,0,l),
(536,0,l),
(425,281,l),
(620,550,l),
(451,550,l),
(303,342,l),
(231,342,l),
(293,730,l),
(143,730,l),
(27,0,l)
);
}
);
width = 600;
}
);
unicode = 107;
}
{
glyphname = l;
layers = (
{
anchors = (
{
name = bottom;
pos = (276,0);
},
{
name = center;
pos = (314,365);
},
{
name = top;
pos = (302,730);
}
);
layerId = "EDF5EB54-295C-4C90-9A2F-67CD82979CFF";
shapes = (
{
closed = 1;
nodes = (
(496,0,l),
(503,45,l),
(333,45,ls),
(274,45,o),
(248,76,o),
(257,135,cs),
(352,730,l),
(122,730,l),
(114,685,l),
(294,685,l),
(207,135,ls),
(194,48,o),
(236,0,o),
(326,0,cs)
);
}
);
width = 600;
},
{
anchors = (
{
name = bottom;
pos = (276,0);
},
{
name = center;
pos = (314,365);
},
{
name = top;
pos = (342,730);
}
);
layerId = "9ADF6715-3D0F-493D-8567-18A6FBCFC567";
shapes = (
{
closed = 1;
nodes = (
(521,0,l),
(542,135,l),
(387,135,ls),
(351,135,o),
(331,161,o),
(338,200,cs),
(422,730,l),
(97,730,l),
(75,595,l),
(250,595,l),
(187,195,ls),
(168,78,o),
(234,0,o),
(351,0,cs)
);
}
);
width = 600;
},
{
anchors = (
{
name = bottom;
pos = (276,0);
},
{
name = center;
pos = (314,365);
},
{
name = top;
pos = (312,730);
}
);
layerId = "CCC0BD40-BA8C-414E-B576-CF0B94E6C996";
shapes = (
{
closed = 1;
nodes = (
(506,0,l),
(519,82,l),
(349,82,ls),
(306,82,o),
(283,110,o),
(291,155,cs),
(382,730,l),
(102,730,l),
(89,648,l),
(279,648,l),
(201,155,ls),
(186,61,o),
(239,0,o),
(336,0,cs)
);
}
);
width = 600;
}
);
unicode = 108;
}
{
glyphname = m;
layers = (
{
anchors = (
{
name = bottom;
pos = (256,0);
},
{
name = top;
pos = (343,550);
}
);
layerId = "EDF5EB54-295C-4C90-9A2F-67CD82979CFF";
shapes = (
{
closed = 1;
nodes = (
(80,0,l),
(147,425,ls),
(156,482,o),
(192,518,o),
(239,518,cs),
(285,518,o),
(308,482,o),
(299,425,cs),
(232,0,l),
(280,0,l),
(347,425,ls),
(356,482,o),
(392,518,o),
(439,518,cs),
(485,518,o),
(508,482,o),
(499,425,cs),
(432,0,l),
(481,0,l),
(549,431,ls),
(562,510,o),
(528,560,o),
(461,560,cs),
(400,560,o),
(356,522,o),
(346,461,c),
(357,475,l),
(344,475,l),
(351,461,l),
(353,522,o),
(318,560,o),
(261,560,cs),
(203,560,o),
(160,522,o),
(150,461,c),
(156,475,l),
(150,475,l),
(162,550,l),
(118,550,l),
(31,0,l)
);
}
);
width = 600;
},
{
anchors = (
{
name = bottom;
pos = (256,0);
},
{
name = top;
pos = (343,550);
}
);
layerId = "9ADF6715-3D0F-493D-8567-18A6FBCFC567";
shapes = (
{
closed = 1;
nodes = (
(123,0,l),
(187,403,ls),
(192,434,o),
(207,451,o),
(232,451,cs),
(257,451,o),
(266,434,o),
(261,403,cs),
(197,0,l),
(315,0,l),
(379,403,ls),
(384,434,o),
(397,451,o),
(422,451,cs),
(447,451,o),
(458,434,o),
(453,403,cs),
(389,0,l),
(518,0,l),
(585,420,ls),
(598,502,o),
(556,560,o),
(491,560,cs),
(435,560,o),
(389,518,o),
(379,454,c),
(391,465,l),
(363,465,l),
(380,440,l),
(391,510,o),
(356,560,o),
(300,560,cs),
(244,560,o),
(201,516,o),
(191,454,c),
(212,465,l),
(191,465,l),
(204,550,l),
(81,550,l),
(-6,0,l)
);
}
);
width = 600;
},
{
anchors = (
{
name = bottom;
pos = (256,0);
},
{
name = top;
pos = (343,550);
}
);
layerId = "CCC0BD40-BA8C-414E-B576-CF0B94E6C996";
shapes = (
{
closed = 1;
nodes = (
(100,0,l),
(167,420,ls),
(173,464,o),
(201,491,o),
(238,491,cs),
(274,491,o),
(292,463,o),
(285,419,cs),
(219,0,l),
(293,0,l),
(360,420,ls),
(366,464,o),
(394,491,o),
(430,491,cs),
(467,491,o),
(485,463,o),
(478,419,cs),
(412,0,l),
(496,0,l),
(562,418,ls),
(576,502,o),
(539,560,o),
(469,560,cs),
(411,560,o),
(365,519,o),
(356,460,c),
(383,477,l),
(341,477,l),
(360,430,l),
(372,507,o),
(341,560,o),
(277,560,cs),
(221,560,o),
(177,519,o),
(168,460,c),
(190,477,l),
(170,477,l),
(181,550,l),
(103,550,l),
(16,0,l)
);
}
);
width = 600;
}
);
unicode = 109;
}
{
glyphname = p;
layers = (
{
anchors = (
{
name = bottom;
pos = (256,0);
},
{
name = top;
pos = (343,550);
}
);
layerId = "EDF5EB54-295C-4C90-9A2F-67CD82979CFF";
shapes = (
{
closed = 1;
nodes = (
(87,-180,l),
(116,0,l),
(131,95,l),
(149,95,l),
(128,140,l),
(114,52,o),
(172,-10,o),
(267,-10,cs),
(383,-10,o),
(461,63,o),
(481,190,cs),
(508,361,ls),
(527,479,o),
(466,560,o),
(358,560,cs),
(255,560,o),
(186,505,o),
(171,410,c),
(206,455,l),
(188,455,l),
(203,550,l),
(153,550,l),
(37,-180,l)
);
},
{
closed = 1;
nodes = (
(174,33,o),
(130,91,o),
(146,190,cs),
(173,361,ls),
(188,459,o),
(251,517,o),
(341,517,cs),
(430,517,o),
(473,459,o),
(458,361,cs),
(431,190,ls),
(415,91,o),
(353,33,o),
(264,33,cs)
);
}
);
width = 600;
},
{
anchors = (
{
name = bottom;
pos = (256,0);
},
{
name = top;
pos = (343,550);
}
);
layerId = "9ADF6715-3D0F-493D-8567-18A6FBCFC567";
shapes = (
{
closed = 1;
nodes = (
(143,-180,l),
(167,-30,l),
(185,114,l),
(220,114,l),
(183,190,l),
(164,69,o),
(217,-10,o),
(316,-10,cs),
(429,-10,o),
(506,68,o),
(528,205,cs),
(551,345,ls),
(572,470,o),
(511,560,o),
(407,560,cs),
(301,560,o),
(230,487,o),
(210,360,c),
(271,435,l),
(236,435,l),
(254,550,l),
(109,550,l),
(-7,-180,l)
);
},
{
closed = 1;
nodes = (
(222,120,o),
(196,154,o),
(206,215,cs),
(225,335,ls),
(235,396,o),
(271,430,o),
(328,430,cs),
(383,430,o),
(409,398,o),
(400,340,cs),
(379,210,ls),
(370,152,o),
(334,120,o),
(279,120,cs)
);
}
);
width = 600;
},
{
anchors = (
{
name = bottom;
pos = (256,0);
},
{
name = top;
pos = (343,550);
}
);
layerId = "CCC0BD40-BA8C-414E-B576-CF0B94E6C996";
shapes = (
{
closed = 1;
nodes = (
(109,-180,l),
(135,-20,l),
(153,105,l),
(173,105,l),
(158,126,l),
(145,45,o),
(198,-10,o),
(286,-10,cs),
(401,-10,o),
(480,65,o),
(500,195,cs),
(525,356,ls),
(544,480,o),
(485,560,o),
(377,560,cs),
(281,560,o),
(218,510,o),
(205,424,c),
(226,445,l),
(208,445,l),
(225,550,l),
(135,550,l),
(19,-180,l)
);
},
{
closed = 1;
nodes = (
(195,68,o),
(157,117,o),
(170,200,cs),
(193,350,ls),
(206,433,o),
(260,482,o),
(334,482,cs),
(410,482,o),
(449,445,o),
(435,355,cs),
(410,195,ls),
(396,105,o),
(345,68,o),
(269,68,cs)
);
}
);
width = 600;
}
);
unicode = 112;
}
{
glyphname = q;
layers = (
{
anchors = (
{
name = bottom;
pos = (256,0);
},
{
name = top;
pos = (343,550);
}
);
layerId = "9ADF6715-3D0F-493D-8567-18A6FBCFC567";
shapes = (
{
closed = 1;
nodes = (
(461,-180,l),
(577,550,l),
(432,550,l),
(414,435,l),
(379,435,l),
(416,360,l),
(436,482,o),
(383,560,o),
(283,560,cs),
(169,560,o),
(93,482,o),
(71,345,cs),
(48,205,ls),
(27,76,o),
(88,-10,o),
(192,-10,cs),
(296,-10,o),
(368,63,o),
(389,190,c),
(325,95,l),
(360,95,l),
(335,-30,l),
(311,-180,l)
);
},
{
closed = 1;
nodes = (
(216,120,o),
(190,152,o),
(199,210,cs),
(220,340,ls),
(229,398,o),
(265,430,o),
(320,430,cs),
(377,430,o),
(403,396,o),
(393,335,cs),
(374,215,ls),
(364,154,o),
(328,120,o),
(271,120,cs)
);
}
);
width = 600;
},
{
anchors = (
{
name = bottom;
pos = (256,0);
},
{
name = top;
pos = (344,550);
}
);
layerId = "CCC0BD40-BA8C-414E-B576-CF0B94E6C996";
shapes = (
{
closed = 1;
nodes = (
(435,-180,l),
(551,550,l),
(461,550,l),
(444,445,l),
(426,445,l),
(441,424,l),
(454,506,o),
(402,560,o),
(313,560,cs),
(199,560,o),
(120,486,o),
(100,356,cs),
(75,195,ls),
(56,70,o),
(113,-10,o),
(222,-10,cs),
(320,-10,o),
(383,40,o),
(396,126,c),
(373,105,l),
(393,105,l),
(371,-20,l),
(345,-180,l)
);
},
{
closed = 1;
nodes = (
(189,68,o),
(153,115,o),
(166,200,cs),
(189,350,ls),
(202,435,o),
(254,482,o),
(330,482,cs),
(404,482,o),
(442,433,o),
(429,350,cs),
(406,200,ls),
(393,117,o),
(339,68,o),
(265,68,cs)
);
}
);
width = 600;
},
{
anchors = (
{
name = bottom;
pos = (256,0);
},
{
name = top;
pos = (344,550);
}
);
layerId = "EDF5EB54-295C-4C90-9A2F-67CD82979CFF";
shapes = (
{
closed = 1;
nodes = (
(417,-180,l),
(533,550,l),
(483,550,l),
(468,455,l),
(460,455,l),
(471,410,l),
(485,499,o),
(426,560,o),
(332,560,cs),
(216,560,o),
(138,488,o),
(118,361,cs),
(91,190,ls),
(72,72,o),
(133,-10,o),
(241,-10,cs),
(345,-10,o),
(413,45,o),
(428,140,c),
(398,95,l),
(411,95,l),
(391,-30,l),
(367,-180,l)
);
},
{
closed = 1;
nodes = (
(169,33,o),
(126,92,o),
(141,190,cs),
(168,361,ls),
(183,459,o),
(246,517,o),
(335,517,cs),
(425,517,o),
(468,459,o),
(453,361,cs),
(426,190,ls),
(411,92,o),
(349,33,o),
(258,33,cs)
);
}
);
width = 600;
}
);
unicode = 113;
}
{
glyphname = r;
layers = (
{
anchors = (
{
name = bottom;
pos = (91,0);
},
{
name = top;
pos = (363,550);
}
);
layerId = "EDF5EB54-295C-4C90-9A2F-67CD82979CFF";
shapes = (
{
closed = 1;
nodes = (
(138,0,l),
(195,360,ls),
(211,460,o),
(269,517,o),
(358,517,cs),
(449,517,o),
(487,463,o),
(472,365,cs),
(464,315,l),
(514,315,l),
(522,365,ls),
(541,489,o),
(494,560,o),
(373,560,cs),
(276,560,o),
(207,497,o),
(190,397,c),
(222,455,l),
(210,455,l),
(225,550,l),
(175,550,l),
(88,0,l)
);
}
);
width = 600;
},
{
anchors = (
{
name = bottom;
pos = (101,0);
},
{
name = top;
pos = (363,550);
}
);
layerId = "9ADF6715-3D0F-493D-8567-18A6FBCFC567";
shapes = (
{
closed = 1;
nodes = (
(192,0,l),
(244,328,ls),
(254,393,o),
(292,430,o),
(348,430,cs),
(404,430,o),
(431,397,o),
(422,340,cs),
(415,295,l),
(565,295,l),
(573,350,ls),
(594,481,o),
(541,560,o),
(430,560,cs),
(332,560,o),
(261,498,o),
(245,400,c),
(300,435,l),
(256,435,l),
(274,550,l),
(129,550,l),
(42,0,l)
);
}
);
width = 600;
},
{
anchors = (
{
name = bottom;
pos = (101,0);
},
{
name = top;
pos = (363,550);
}
);
layerId = "CCC0BD40-BA8C-414E-B576-CF0B94E6C996";
shapes = (
{
closed = 1;
nodes = (
(158,0,l),
(213,350,ls),
(227,435,o),
(276,482,o),
(355,482,cs),
(431,482,o),
(466,443,o),
(453,362,cs),
(446,315,l),
(536,315,l),
(543,362,ls),
(563,488,o),
(510,560,o),
(396,560,cs),
(302,560,o),
(238,506,o),
(225,421,c),
(247,445,l),
(228,445,l),
(245,550,l),
(155,550,l),
(68,0,l)
);
}
);
width = 600;
}
);
unicode = 114;
}
{
glyphname = s;
layers = (
{
anchors = (
{
name = bottom;
pos = (256,0);
},
{
name = top;
pos = (343,550);
}
);
layerId = "EDF5EB54-295C-4C90-9A2F-67CD82979CFF";
shapes = (
{
closed = 1;
nodes = (
(296,-10,ls),
(404,-10,o),
(473,46,o),
(489,147,cs),
(502,226,o),
(456,291,o),
(376,301,cs),
(259,316,ls),
(191,325,o),
(160,355,o),
(169,412,cs),
(179,475,o),
(234,515,o),
(309,515,cs),
(363,515,ls),
(433,515,o),
(476,477,o),
(475,425,c),
(525,425,l),
(528,504,o),
(468,560,o),
(370,560,cs),
(316,560,ls),
(208,560,o),
(133,504,o),
(118,411,cs),
(105,334,o),
(158,282,o),
(244,271,cs),
(362,256,ls),
(419,249,o),
(448,197,o),
(439,140,cs),
(429,79,o),
(374,35,o),
(304,35,cs),
(231,35,ls),
(162,35,o),
(118,77,o),
(117,135,c),
(67,135,l),
(63,50,o),
(123,-10,o),
(223,-10,cs)
);
}
);
width = 600;
},
{
anchors = (
{
name = bottom;
pos = (256,0);
},
{
name = top;
pos = (343,550);
}
);
layerId = "9ADF6715-3D0F-493D-8567-18A6FBCFC567";
shapes = (
{
closed = 1;
nodes = (
(275,-10,ls),
(426,-10,o),
(513,48,o),
(531,160,cs),
(548,263,o),
(503,328,o),
(397,341,cs),
(279,356,ls),
(237,361,o),
(214,368,o),
(219,399,cs),
(224,429,o),
(251,448,o),
(298,448,cs),
(345,448,ls),
(392,448,o),
(416,430,o),
(411,398,c),
(558,398,l),
(573,491,o),
(493,560,o),
(363,560,cs),
(316,560,ls),
(175,560,o),
(93,503,o),
(75,393,cs),
(61,302,o),
(105,237,o),
(200,225,cs),
(323,210,ls),
(371,204,o),
(393,191,o),
(388,158,cs),
(383,125,o),
(346,104,o),
(293,104,cs),
(249,104,ls),
(198,104,o),
(172,123,o),
(178,160,c),
(31,160,l),
(15,58,o),
(95,-10,o),
(231,-10,cs)
);
}
);
width = 600;
},
{
anchors = (
{
name = bottom;
pos = (256,0);
},
{
name = top;
pos = (343,550);
}
);
layerId = "CCC0BD40-BA8C-414E-B576-CF0B94E6C996";
shapes = (
{
closed = 1;
nodes = (
(277,-8,ls),
(404,-8,o),
(478,48,o),
(495,154,cs),
(511,250,o),
(472,305,o),
(381,318,cs),
(243,338,ls),
(208,343,o),
(194,366,o),
(200,404,cs),
(208,452,o),
(248,482,o),
(310,482,cs),
(354,482,ls),
(409,482,o),
(441,453,o),
(438,415,c),
(529,415,l),
(537,503,o),
(474,558,o),
(366,558,cs),
(322,558,ls),
(202,558,o),
(127,504,o),
(112,404,cs),
(99,320,o),
(133,267,o),
(207,256,cs),
(355,234,ls),
(398,228,o),
(415,202,o),
(407,154,cs),
(399,101,o),
(356,70,o),
(289,70,cs),
(245,70,ls),
(180,70,o),
(147,100,o),
(155,151,c),
(65,151,l),
(50,50,o),
(111,-8,o),
(233,-8,cs)
);
}
);
width = 600;
}
);
unicode = 115;
}
{
glyphname = t;
layers = (
{
anchors = (
{
name = bottom;
pos = (316,0);
},
{
name = center;
pos = (300,275);
},
{
name = top;
pos = (318,705);
},
{
name = topright;
pos = (429,621);
}
);
layerId = "9ADF6715-3D0F-493D-8567-18A6FBCFC567";
shapes = (
{
closed = 1;
nodes = (
(491,0,l),
(512,135,l),
(347,135,ls),
(318,135,o),
(306,156,o),
(310,185,cs),
(347,415,l),
(562,415,l),
(583,550,l),
(368,550,l),
(393,705,l),
(243,705,l),
(218,550,l),
(70,550,l),
(49,415,l),
(197,415,l),
(160,180,ls),
(142,68,o),
(199,0,o),
(311,0,cs)
);
}
);
width = 600;
},
{
anchors = (
{
name = bottom;
pos = (316,0);
},
{
name = center;
pos = (300,275);
},
{
name = top;
pos = (318,705);
},
{
name = topright;
pos = (409,621);
}
);
layerId = "EDF5EB54-295C-4C90-9A2F-67CD82979CFF";
shapes = (
{
closed = 1;
nodes = (
(456,0,l),
(463,45,l),
(318,45,ls),
(266,45,o),
(243,73,o),
(251,125,cs),
(311,505,l),
(541,505,l),
(548,550,l),
(318,550,l),
(343,705,l),
(293,705,l),
(268,550,l),
(105,550,l),
(98,505,l),
(261,505,l),
(201,125,ls),
(188,44,o),
(227,0,o),
(311,0,cs)
);
}
);
width = 600;
},
{
anchors = (
{
name = bottom;
pos = (316,0);
},
{
name = center;
pos = (300,275);
},
{
name = top;
pos = (318,705);
},
{
name = topright;
pos = (409,621);
}
);
layerId = "CCC0BD40-BA8C-414E-B576-CF0B94E6C996";
shapes = (
{
closed = 1;
nodes = (
(471,0,l),
(484,82,l),
(324,82,ls),
(288,82,o),
(268,107,o),
(274,145,cs),
(325,468,l),
(550,468,l),
(563,550,l),
(338,550,l),
(363,705,l),
(273,705,l),
(248,550,l),
(90,550,l),
(77,468,l),
(235,468,l),
(184,145,ls),
(170,57,o),
(220,0,o),
(311,0,cs)
);
}
);
width = 600;
}
);
unicode = 116;
}
{
glyphname = v;
layers = (
{
anchors = (
{
name = bottom;
pos = (256,0);
},
{
name = top;
pos = (343,550);
}
);
layerId = "9ADF6715-3D0F-493D-8567-18A6FBCFC567";
shapes = (
{
closed = 1;
nodes = (
(351,0,l),
(619,550,l),
(458,550,l),
(315,240,ls),
(298,204,o),
(281,161,o),
(273,127,c),
(275,161,o),
(271,204,o),
(265,241,cs),
(218,550,l),
(67,550,l),
(163,0,l)
);
}
);
width = 600;
},
{
anchors = (
{
name = bottom;
pos = (256,0);
},
{
name = top;
pos = (343,550);
}
);
layerId = "CCC0BD40-BA8C-414E-B576-CF0B94E6C996";
shapes = (
{
closed = 1;
nodes = (
(315,0,l),
(589,550,l),
(490,550,l),
(312,180,ls),
(291,136,o),
(271,91,o),
(265,69,c),
(265,92,o),
(259,136,o),
(252,180,cs),
(190,550,l),
(97,550,l),
(197,0,l)
);
}
);
width = 600;
},
{
anchors = (
{
name = bottom;
pos = (256,0);
},
{
name = top;
pos = (343,550);
}
);
layerId = "EDF5EB54-295C-4C90-9A2F-67CD82979CFF";
shapes = (
{
closed = 1;
nodes = (
(287,0,l),
(563,550,l),
(507,550,l),
(305,140,ls),
(287,104,o),
(269,62,o),
(261,39,c),
(260,62,o),
(255,104,o),
(249,140,cs),
(175,550,l),
(123,550,l),
(225,0,l)
);
}
);
width = 600;
}
);
unicode = 118;
}
{
glyphname = w;
layers = (
{
anchors = (
{
name = bottom;
pos = (256,0);
},
{
name = top;
pos = (343,550);
}
);
layerId = "9ADF6715-3D0F-493D-8567-18A6FBCFC567";
shapes = (
{
closed = 1;
nodes = (
(195,0,l),
(290,310,ls),
(301,347,o),
(320,410,o),
(326,445,c),
(323,410,o),
(321,348,o),
(321,310,cs),
(317,0,l),
(467,0,l),
(638,550,l),
(523,550,l),
(431,250,ls),
(415,199,o),
(403,134,o),
(395,96,c),
(398,134,o),
(403,199,o),
(402,250,cs),
(398,550,l),
(284,550,l),
(184,250,ls),
(167,199,o),
(153,136,o),
(144,97,c),
(148,136,o),
(155,199,o),
(156,250,cs),
(160,550,l),
(48,550,l),
(44,0,l)
);
}
);
width = 600;
},
{
anchors = (
{
name = bottom;
pos = (256,0);
},
{
name = top;
pos = (343,550);
}
);
layerId = "CCC0BD40-BA8C-414E-B576-CF0B94E6C996";
shapes = (
{
closed = 1;
nodes = (
(176,0,l),
(302,380,ls),
(314,417,o),
(328,465,o),
(333,488,c),
(332,465,o),
(329,417,o),
(329,380,cs),
(332,0,l),
(431,0,l),
(612,550,l),
(536,550,l),
(417,162,ls),
(408,132,o),
(397,93,o),
(391,70,c),
(393,93,o),
(394,132,o),
(394,162,cs),
(386,550,l),
(296,550,l),
(166,162,ls),
(156,132,o),
(146,92,o),
(140,70,c),
(142,92,o),
(144,132,o),
(145,162,cs),
(150,550,l),
(74,550,l),
(77,0,l)
);
}
);
width = 600;
},
{
anchors = (
{
name = bottom;
pos = (256,0);
},
{
name = top;
pos = (343,550);
}
);
layerId = "EDF5EB54-295C-4C90-9A2F-67CD82979CFF";
shapes = (
{
closed = 1;
nodes = (
(165,0,l),
(299,391,ls),
(312,427,o),
(331,478,o),
(337,507,c),
(335,478,o),
(339,427,o),
(339,391,cs),
(346,0,l),
(412,0,l),
(593,550,l),
(547,550,l),
(414,141,ls),
(399,95,o),
(393,64,o),
(387,35,c),
(389,65,o),
(387,95,o),
(385,140,cs),
(370,550,l),
(318,550,l),
(173,140,ls),
(155,91,o),
(146,63,o),
(139,35,c),
(142,63,o),
(143,91,o),
(143,141,cs),
(140,550,l),
(93,550,l),
(99,0,l)
);
}
);
width = 600;
}
);
unicode = 119;
}
{
glyphname = braceleft;
layers = (
{
layerId = "9ADF6715-3D0F-493D-8567-18A6FBCFC567";
shapes = (
{
closed = 1;
nodes = (
(453,-111,l),
(476,29,l),
(421,29,ls),
(381,29,o),
(360,53,o),
(370,89,cs),
(409,239,ls),
(428,313,o),
(373,364,o),
(274,364,c),
(273,357,l),
(372,357,o),
(442,407,o),
(447,479,cs),
(456,630,ls),
(458,666,o),
(486,690,o),
(525,690,cs),
(580,690,l),
(602,830,l),
(517,830,ls),
(399,830,o),
(315,757,o),
(309,650,cs),
(300,499,ls),
(297,457,o),
(269,429,o),
(229,429,cs),
(89,429,l),
(67,289,l),
(207,289,ls),
(247,289,o),
(266,261,o),
(256,219,cs),
(218,74,ls),
(188,-36,o),
(249,-111,o),
(368,-111,cs)
);
}
);
width = 600;
},
{
layerId = "EDF5EB54-295C-4C90-9A2F-67CD82979CFF";
shapes = (
{
closed = 1;
nodes = (
(429,-110,l),
(436,-65,l),
(381,-65,ls),
(319,-65,o),
(276,-25,o),
(297,40,cs),
(363,237,ls),
(388,313,o),
(345,364,o),
(278,364,c),
(277,357,l),
(344,357,o),
(402,407,o),
(401,482,cs),
(399,680,ls),
(398,745,o),
(453,785,o),
(515,785,cs),
(570,785,l),
(577,830,l),
(522,830,ls),
(426,830,o),
(348,774,o),
(349,680,cs),
(351,482,ls),
(353,409,o),
(318,382,o),
(236,382,cs),
(107,382,l),
(99,336,l),
(228,336,ls),
(314,336,o),
(336,308,o),
(313,237,cs),
(247,40,ls),
(216,-54,o),
(278,-110,o),
(374,-110,cs)
);
}
);
width = 600;
},
{
layerId = "CCC0BD40-BA8C-414E-B576-CF0B94E6C996";
shapes = (
{
closed = 1;
nodes = (
(444,-110,l),
(456,-30,l),
(411,-30,ls),
(348,-30,o),
(316,-1,o),
(330,56,cs),
(371,220,ls),
(392,306,o),
(348,365,o),
(224,365,c),
(223,362,l),
(348,362,o),
(409,413,o),
(415,500,cs),
(426,664,ls),
(430,721,o),
(472,750,o),
(535,750,cs),
(580,750,l),
(592,830,l),
(547,830,ls),
(429,830,o),
(343,769,o),
(336,664,cs),
(325,500,ls),
(320,429,o),
(296,400,o),
(209,400,cs),
(94,400,l),
(82,320,l),
(197,320,ls),
(283,320,o),
(298,291,o),
(281,220,cs),
(240,56,ls),
(213,-49,o),
(281,-110,o),
(399,-110,cs)
);
}
);
width = 600;
}
);
unicode = 123;
}
{
glyphname = braceright;
layers = (
{
layerId = "9ADF6715-3D0F-493D-8567-18A6FBCFC567";
shapes = (
{
closed = 1;
nodes = (
(108,-111,ls),
(226,-111,o),
(312,-36,o),
(318,74,cs),
(326,219,ls),
(328,261,o),
(357,289,o),
(397,289,cs),
(537,289,l),
(559,429,l),
(419,429,ls),
(379,429,o),
(359,457,o),
(370,499,cs),
(409,650,ls),
(437,757,o),
(374,830,o),
(257,830,cs),
(172,830,l),
(150,690,l),
(205,690,ls),
(244,690,o),
(264,666,o),
(256,630,cs),
(217,479,ls),
(198,407,o),
(254,357,o),
(353,357,c),
(354,364,l),
(255,364,o),
(184,313,o),
(179,239,cs),
(170,89,ls),
(168,53,o),
(141,29,o),
(101,29,cs),
(46,29,l),
(23,-111,l)
);
}
);
width = 600;
},
{
layerId = "CCC0BD40-BA8C-414E-B576-CF0B94E6C996";
shapes = (
{
closed = 1;
nodes = (
(79,-110,ls),
(197,-110,o),
(289,-49,o),
(290,56,cs),
(291,220,ls),
(291,291,o),
(321,320,o),
(407,320,cs),
(532,320,l),
(544,400,l),
(419,400,ls),
(332,400,o),
(313,429,o),
(335,500,cs),
(386,664,ls),
(419,769,o),
(345,830,o),
(227,830,cs),
(182,830,l),
(170,750,l),
(215,750,ls),
(278,750,o),
(314,721,o),
(296,664,cs),
(245,500,ls),
(218,413,o),
(268,363,o),
(353,363,c),
(354,368,l),
(270,368,o),
(201,306,o),
(201,220,cs),
(200,56,ls),
(200,-1,o),
(154,-30,o),
(91,-30,cs),
(46,-30,l),
(34,-110,l)
);
}
);
width = 600;
},
{
layerId = "EDF5EB54-295C-4C90-9A2F-67CD82979CFF";
shapes = (
{
closed = 1;
nodes = (
(103,-110,ls),
(199,-110,o),
(276,-54,o),
(276,40,cs),
(276,237,ls),
(275,308,o),
(305,336,o),
(391,336,cs),
(519,336,l),
(527,382,l),
(399,382,ls),
(317,382,o),
(291,408,o),
(314,482,cs),
(378,680,ls),
(408,774,o),
(347,830,o),
(251,830,cs),
(197,830,l),
(190,785,l),
(244,785,ls),
(306,785,o),
(348,745,o),
(328,680,cs),
(264,482,ls),
(240,407,o),
(283,357,o),
(350,357,c),
(351,364,l),
(284,364,o),
(226,313,o),
(226,237,cs),
(226,40,ls),
(227,-25,o),
(172,-65,o),
(110,-65,cs),
(56,-65,l),
(49,-110,l)
);
}
);
width = 600;
}
);
unicode = 125;
}
{
glyphname = exclamdown;
layers = (
{
layerId = "9ADF6715-3D0F-493D-8567-18A6FBCFC567";
shapes = (
{
closed = 1;
nodes = (
(306,-180,l),
(370,315,l),
(242,315,l),
(148,-180,l)
);
},
{
closed = 1;
nodes = (
(337,415,ls),
(382,415,o),
(416,443,o),
(423,485,cs),
(430,528,o),
(404,555,o),
(358,555,cs),
(329,555,ls),
(284,555,o),
(249,527,o),
(243,485,cs),
(236,443,o),
(262,415,o),
(307,415,cs)
);
}
);
width = 600;
},
{
layerId = "CCC0BD40-BA8C-414E-B576-CF0B94E6C996";
shapes = (
{
closed = 1;
nodes = (
(280,-180,l),
(350,335,l),
(268,335,l),
(174,-180,l)
);
},
{
closed = 1;
nodes = (
(340,435,ls),
(378,435,o),
(404,460,o),
(409,494,cs),
(415,529,o),
(394,555,o),
(359,555,cs),
(329,555,ls),
(294,555,o),
(265,530,o),
(259,495,cs),
(254,460,o),
(275,435,o),
(310,435,cs)
);
}
);
width = 600;
},
{
layerId = "EDF5EB54-295C-4C90-9A2F-67CD82979CFF";
shapes = (
{
closed = 1;
nodes = (
(257,-180,l),
(332,345,l),
(290,345,l),
(197,-180,l)
);
},
{
closed = 1;
nodes = (
(332,445,ls),
(365,445,o),
(391,467,o),
(396,500,cs),
(401,533,o),
(383,555,o),
(350,555,cs),
(345,555,ls),
(312,555,o),
(286,533,o),
(281,500,cs),
(276,467,o),
(294,445,o),
(327,445,cs)
);
}
);
width = 600;
}
);
unicode = 161;
}
{
glyphname = logicalnot;
layers = (
{
layerId = "9ADF6715-3D0F-493D-8567-18A6FBCFC567";
shapes = (
{
closed = 1;
nodes = (
(480,151,l),
(523,426,l),
(123,426,l),
(101,286,l),
(351,286,l),
(330,151,l)
);
}
);
width = 600;
},
{
layerId = "CCC0BD40-BA8C-414E-B576-CF0B94E6C996";
shapes = (
{
closed = 1;
nodes = (
(485,185,l),
(519,395,l),
(119,395,l),
(106,315,l),
(421,315,l),
(400,185,l)
);
}
);
width = 600;
},
{
layerId = "EDF5EB54-295C-4C90-9A2F-67CD82979CFF";
shapes = (
{
closed = 1;
nodes = (
(487,194,l),
(516,379,l),
(116,379,l),
(109,334,l),
(459,334,l),
(437,194,l)
);
}
);
width = 600;
}
);
unicode = 172;
}
{
glyphname = degree;
layers = (
{
layerId = "9ADF6715-3D0F-493D-8567-18A6FBCFC567";
shapes = (
{
closed = 1;
nodes = (
(422,410,o),
(502,477,o),
(517,575,cs),
(533,673,o),
(474,740,o),
(373,740,cs),
(272,740,o),
(193,673,o),
(177,575,cs),
(162,477,o),
(220,410,o),
(321,410,cs)
);
},
{
closed = 1;
nodes = (
(292,497,o),
(268,529,o),
(275,575,cs),
(282,621,o),
(316,653,o),
(359,653,cs),
(402,653,o),
(426,621,o),
(419,575,cs),
(412,529,o),
(378,497,o),
(335,497,cs)
);
}
);
width = 600;
},
{
layerId = "CCC0BD40-BA8C-414E-B576-CF0B94E6C996";
shapes = (
{
closed = 1;
nodes = (
(416,450,o),
(487,509,o),
(500,595,cs),
(514,681,o),
(462,740,o),
(373,740,cs),
(284,740,o),
(214,681,o),
(200,595,cs),
(187,509,o),
(238,450,o),
(327,450,cs)
);
},
{
closed = 1;
nodes = (
(286,506,o),
(257,542,o),
(265,595,cs),
(274,648,o),
(314,685,o),
(364,685,cs),
(414,685,o),
(444,648,o),
(435,595,cs),
(427,542,o),
(386,506,o),
(336,506,cs)
);
}
);
width = 600;
},
{
layerId = "EDF5EB54-295C-4C90-9A2F-67CD82979CFF";
shapes = (
{
closed = 1;
nodes = (
(414,460,o),
(481,517,o),
(494,600,cs),
(507,683,o),
(458,740,o),
(373,740,cs),
(288,740,o),
(221,683,o),
(208,600,cs),
(195,517,o),
(244,460,o),
(329,460,cs)
);
},
{
closed = 1;
nodes = (
(277,500,o),
(244,541,o),
(253,600,cs),
(263,660,o),
(309,701,o),
(367,701,cs),
(425,701,o),
(459,660,o),
(449,600,cs),
(440,541,o),
(393,500,o),
(335,500,cs)
);
}
);
width = 600;
}
);
unicode = 176;
}
{
glyphname = twosuperior;
layers = (
{
layerId = "9ADF6715-3D0F-493D-8567-18A6FBCFC567";
shapes = (
{
closed = 1;
nodes = (
(483,382,l),
(496,468,l),
(297,468,l),
(425,550,ls),
(485,588,o),
(523,637,o),
(531,687,cs),
(545,775,o),
(488,835,o),
(391,835,cs),
(291,835,o),
(220,778,o),
(205,686,c),
(303,686,l),
(309,723,o),
(338,748,o),
(377,748,cs),
(416,748,o),
(439,723,o),
(433,686,cs),
(428,658,o),
(408,633,o),
(380,614,cs),
(180,481,l),
(165,382,l)
);
}
);
width = 600;
},
{
layerId = "EDF5EB54-295C-4C90-9A2F-67CD82979CFF";
shapes = (
{
closed = 1;
nodes = (
(464,382,l),
(470,422,l),
(250,422,l),
(429,572,ls),
(473,609,o),
(506,661,o),
(512,699,cs),
(525,780,o),
(477,835,o),
(393,835,cs),
(303,835,o),
(238,780,o),
(224,693,c),
(269,693,l),
(278,753,o),
(327,795,o),
(387,795,cs),
(444,795,o),
(476,755,o),
(466,696,cs),
(462,669,o),
(436,630,o),
(401,600,cs),
(190,424,l),
(184,382,l)
);
}
);
width = 600;
},
{
layerId = "CCC0BD40-BA8C-414E-B576-CF0B94E6C996";
shapes = (
{
closed = 1;
nodes = (
(474,382,l),
(484,447,l),
(267,447,l),
(426,566,ls),
(480,607,o),
(513,647,o),
(521,695,cs),
(534,778,o),
(476,835,o),
(389,835,cs),
(299,835,o),
(231,779,o),
(212,691,c),
(283,691,l),
(291,739,o),
(333,771,o),
(379,771,cs),
(425,771,o),
(456,740,o),
(449,693,cs),
(444,664,o),
(422,639,o),
(393,617,cs),
(185,459,l),
(173,382,l)
);
}
);
width = 600;
}
);
unicode = 178;
}
{
glyphname = threesuperior;
layers = (
{
layerId = "9ADF6715-3D0F-493D-8567-18A6FBCFC567";
shapes = (
{
closed = 1;
nodes = (
(426,377,o),
(502,438,o),
(518,535,cs),
(531,616,o),
(477,671,o),
(386,671,c),
(381,636,l),
(535,743,l),
(548,830,l),
(236,830,l),
(223,744,l),
(437,744,l),
(326,672,l),
(316,606,l),
(356,606,ls),
(400,606,o),
(426,577,o),
(420,535,cs),
(413,493,o),
(376,464,o),
(332,464,cs),
(286,464,o),
(258,489,o),
(264,525,c),
(166,525,l),
(152,437,o),
(215,377,o),
(319,377,cs)
);
}
);
width = 600;
},
{
layerId = "EDF5EB54-295C-4C90-9A2F-67CD82979CFF";
shapes = (
{
closed = 1;
nodes = (
(409,377,o),
(474,433,o),
(489,522,cs),
(502,607,o),
(451,665,o),
(364,665,c),
(363,654,l),
(521,790,l),
(527,830,l),
(256,830,l),
(250,790,l),
(471,790,l),
(328,668,l),
(321,627,l),
(358,627,ls),
(418,627,o),
(453,584,o),
(444,522,cs),
(434,460,o),
(385,417,o),
(325,417,cs),
(265,417,o),
(230,459,o),
(240,521,c),
(195,521,l),
(181,436,o),
(232,377,o),
(319,377,cs)
);
}
);
width = 600;
},
{
layerId = "CCC0BD40-BA8C-414E-B576-CF0B94E6C996";
shapes = (
{
closed = 1;
nodes = (
(415,377,o),
(486,434,o),
(501,525,cs),
(515,610,o),
(459,668,o),
(365,668,c),
(350,638,l),
(522,758,l),
(533,830,l),
(248,830,l),
(238,765,l),
(451,765,l),
(322,677,l),
(311,608,l),
(352,608,ls),
(405,608,o),
(437,574,o),
(429,525,cs),
(421,476,o),
(379,441,o),
(326,441,cs),
(273,441,o),
(241,476,o),
(249,525,c),
(178,525,l),
(164,437,o),
(221,377,o),
(316,377,cs)
);
}
);
width = 600;
}
);
unicode = 179;
}
{
glyphname = onesuperior;
layers = (
{
layerId = "9ADF6715-3D0F-493D-8567-18A6FBCFC567";
shapes = (
{
closed = 1;
nodes = (
(504,382,l),
(517,470,l),
(410,470,l),
(467,830,l),
(344,830,l),
(222,756,l),
(206,655,l),
(356,744,l),
(312,470,l),
(173,470,l),
(160,382,l)
);
}
);
width = 600;
},
{
layerId = "CCC0BD40-BA8C-414E-B576-CF0B94E6C996";
shapes = (
{
closed = 1;
nodes = (
(497,382,l),
(507,447,l),
(392,447,l),
(452,830,l),
(356,830,l),
(229,759,l),
(218,686,l),
(372,771,l),
(321,447,l),
(177,447,l),
(167,382,l)
);
}
);
width = 600;
},
{
layerId = "EDF5EB54-295C-4C90-9A2F-67CD82979CFF";
shapes = (
{
closed = 1;
nodes = (
(482,382,l),
(488,422,l),
(367,422,l),
(431,830,l),
(364,830,l),
(249,756,l),
(241,705,l),
(381,795,l),
(322,422,l),
(188,422,l),
(182,382,l)
);
}
);
width = 600;
}
);
unicode = 185;
}
{
glyphname = questiondown;
layers = (
{
layerId = "9ADF6715-3D0F-493D-8567-18A6FBCFC567";
shapes = (
{
closed = 1;
nodes = (
(422,-180,l),
(445,-40,l),
(280,-40,ls),
(225,-40,o),
(194,-11,o),
(202,35,cs),
(209,80,o),
(248,110,o),
(302,110,cs),
(402,110,l),
(430,315,l),
(305,315,l),
(294,245,l),
(168,245,o),
(71,161,o),
(52,35,cs),
(31,-96,o),
(114,-180,o),
(267,-180,cs)
);
},
{
closed = 1;
nodes = (
(398,415,ls),
(443,415,o),
(477,443,o),
(484,485,cs),
(490,527,o),
(465,555,o),
(420,555,cs),
(391,555,ls),
(345,555,o),
(311,528,o),
(304,485,cs),
(297,443,o),
(323,415,o),
(368,415,cs)
);
}
);
width = 600;
},
{
layerId = "CCC0BD40-BA8C-414E-B576-CF0B94E6C996";
shapes = (
{
closed = 1;
nodes = (
(397,-180,l),
(411,-95,l),
(286,-95,ls),
(200,-95,o),
(154,-44,o),
(167,35,cs),
(179,114,o),
(241,165,o),
(326,165,cs),
(376,165,l),
(403,335,l),
(313,335,l),
(298,240,l),
(185,234,o),
(95,150,o),
(77,35,cs),
(56,-96,o),
(132,-180,o),
(272,-180,cs)
);
},
{
closed = 1;
nodes = (
(390,435,ls),
(425,435,o),
(454,460,o),
(459,495,cs),
(465,530,o),
(444,555,o),
(409,555,cs),
(379,555,ls),
(344,555,o),
(315,529,o),
(309,494,cs),
(304,460,o),
(322,435,o),
(360,435,cs)
);
}
);
width = 600;
},
{
layerId = "EDF5EB54-295C-4C90-9A2F-67CD82979CFF";
shapes = (
{
angle = 180;
pos = (599,550);
ref = question;
}
);
width = 600;
},
{
associatedMasterId = "EDF5EB54-295C-4C90-9A2F-67CD82979CFF";
layerId = "8099DB66-665D-42A7-80F2-A721763E49F3";
name = "17 Jan 24 at 19:32";
shapes = (
{
closed = 1;
nodes = (
(382,-180,l),
(390,-135,l),
(250,-135,ls),
(153,-135,o),
(99,-74,o),
(114,20,cs),
(129,114,o),
(196,175,o),
(293,175,cs),
(343,175,l),
(370,345,l),
(320,345,l),
(300,220,l),
(172,220,o),
(83,142,o),
(64,20,cs),
(45,-101,o),
(115,-180,o),
(242,-180,cs)
);
},
{
closed = 1;
nodes = (
(365,445,ls),
(398,445,o),
(424,467,o),
(429,500,cs),
(434,533,o),
(416,555,o),
(383,555,cs),
(378,555,ls),
(345,555,o),
(319,533,o),
(314,500,cs),
(309,467,o),
(327,445,o),
(360,445,cs)
);
}
);
visible = 1;
width = 600;
}
);
unicode = 191;
}
{
glyphname = germandbls;
layers = (
{
layerId = "9ADF6715-3D0F-493D-8567-18A6FBCFC567";
shapes = (
{
closed = 1;
nodes = (
(-83,-180,ls),
(53,-180,o),
(149,-105,o),
(168,15,cs),
(247,512,ls),
(257,573,o),
(300,615,o),
(356,615,cs),
(410,615,o),
(444,578,o),
(435,525,cs),
(427,472,o),
(382,435,o),
(328,435,cs),
(296,435,l),
(278,325,l),
(321,325,ls),
(378,325,o),
(413,286,o),
(404,228,cs),
(395,170,o),
(348,130,o),
(291,130,cs),
(248,130,l),
(227,0,l),
(275,0,ls),
(425,0,o),
(532,80,o),
(553,207,cs),
(567,295,o),
(523,368,o),
(446,386,c),
(446,388,l),
(516,400,o),
(573,462,o),
(586,541,cs),
(604,656,o),
(515,740,o),
(377,740,cs),
(227,740,o),
(119,652,o),
(97,512,cs),
(19,20,ls),
(11,-29,o),
(-24,-60,o),
(-74,-60,cs),
(-99,-60,l),
(-118,-180,l)
);
}
);
width = 600;
},
{
layerId = "CCC0BD40-BA8C-414E-B576-CF0B94E6C996";
shapes = (
{
closed = 1;
nodes = (
(-64,-180,ls),
(44,-180,o),
(119,-119,o),
(135,-20,cs),
(223,534,ls),
(235,609,o),
(292,660,o),
(364,660,cs),
(435,660,o),
(476,612,o),
(465,541,cs),
(453,470,o),
(397,422,o),
(326,422,cs),
(280,422,l),
(267,342,l),
(324,342,ls),
(401,342,o),
(446,289,o),
(434,212,cs),
(421,135,o),
(356,82,o),
(274,82,cs),
(226,82,l),
(213,0,l),
(271,0,ls),
(407,0,o),
(504,79,o),
(524,204,cs),
(540,300,o),
(495,376,o),
(414,391,c),
(414,394,l),
(486,411,o),
(545,477,o),
(557,556,cs),
(574,663,o),
(499,740,o),
(376,740,cs),
(246,740,o),
(153,661,o),
(133,534,cs),
(45,-20,ls),
(37,-73,o),
(6,-98,o),
(-50,-98,cs),
(-120,-98,l),
(-133,-180,l)
);
}
);
width = 600;
},
{
layerId = "EDF5EB54-295C-4C90-9A2F-67CD82979CFF";
shapes = (
{
closed = 1;
nodes = (
(-44,-180,ls),
(37,-180,o),
(95,-133,o),
(107,-55,cs),
(202,543,ls),
(216,633,o),
(286,695,o),
(373,695,cs),
(459,695,o),
(509,636,o),
(495,550,cs),
(481,463,o),
(413,404,o),
(327,404,cs),
(285,404,l),
(278,359,l),
(320,359,ls),
(417,359,o),
(473,295,o),
(458,202,cs),
(443,109,o),
(367,45,o),
(270,45,cs),
(228,45,l),
(221,0,l),
(263,0,ls),
(395,0,o),
(490,76,o),
(509,198,cs),
(524,292,o),
(479,367,o),
(399,383,c),
(399,386,l),
(473,401,o),
(532,468,o),
(545,550,cs),
(563,661,o),
(494,740,o),
(380,740,cs),
(260,740,o),
(171,664,o),
(152,543,cs),
(57,-55,ls),
(49,-106,o),
(16,-135,o),
(-35,-135,cs),
(-124,-135,l),
(-133,-180,l)
);
}
);
width = 600;
}
);
unicode = 223;
}
{
glyphname = ae;
layers = (
{
anchors = (
{
name = top;
pos = (346,550);
}
);
layerId = "9ADF6715-3D0F-493D-8567-18A6FBCFC567";
shapes = (
{
closed = 1;
nodes = (
(198,-10,o),
(254,25,o),
(270,81,c),
(268,25,o),
(315,-10,o),
(378,-10,cs),
(465,-10,o),
(535,55,o),
(550,150,c),
(431,150,l),
(425,111,o),
(404,87,o),
(376,87,cs),
(348,87,o),
(335,111,o),
(341,150,cs),
(357,250,l),
(566,250,l),
(589,400,ls),
(604,495,o),
(553,560,o),
(466,560,cs),
(403,560,o),
(347,525,o),
(331,468,c),
(333,525,o),
(290,560,o),
(226,560,cs),
(139,560,o),
(68,495,o),
(53,400,c),
(172,400,l),
(179,439,o),
(199,463,o),
(227,463,cs),
(255,463,o),
(268,439,o),
(262,400,cs),
(251,330,l),
(206,330,ls),
(105,330,o),
(25,260,o),
(9,159,cs),
(-7,59,o),
(43,-10,o),
(132,-10,cs)
);
},
{
closed = 1;
nodes = (
(135,87,o),
(122,120,o),
(130,168,cs),
(137,217,o),
(161,250,o),
(194,250,cs),
(239,250,l),
(223,150,ls),
(217,111,o),
(195,87,o),
(167,87,cs)
);
},
{
closed = 1;
nodes = (
(380,400,ls),
(386,439,o),
(408,463,o),
(435,463,cs),
(463,463,o),
(476,439,o),
(470,400,cs),
(459,330,l),
(369,330,l)
);
}
);
width = 600;
},
{
anchors = (
{
name = top;
pos = (346,550);
}
);
layerId = "CCC0BD40-BA8C-414E-B576-CF0B94E6C996";
shapes = (
{
closed = 1;
nodes = (
(196,-10,o),
(253,27,o),
(273,80,c),
(275,27,o),
(316,-10,o),
(374,-10,cs),
(460,-10,o),
(529,50,o),
(543,137,c),
(459,137,l),
(452,94,o),
(420,65,o),
(378,65,cs),
(335,65,o),
(314,96,o),
(323,150,cs),
(340,256,l),
(562,256,l),
(584,400,ls),
(599,495,o),
(551,560,o),
(465,560,cs),
(403,560,o),
(350,524,o),
(335,471,c),
(336,524,o),
(292,560,o),
(227,560,cs),
(147,560,o),
(82,501,o),
(69,414,c),
(148,414,l),
(154,456,o),
(187,485,o),
(228,485,cs),
(271,485,o),
(291,454,o),
(282,399,cs),
(270,324,l),
(189,324,ls),
(99,324,o),
(28,257,o),
(12,159,cs),
(-4,59,o),
(45,-10,o),
(132,-10,cs)
);
},
{
closed = 1;
nodes = (
(110,65,o),
(87,102,o),
(96,160,cs),
(106,219,o),
(139,256,o),
(181,256,cs),
(260,256,l),
(243,150,ls),
(235,98,o),
(201,65,o),
(157,65,cs)
);
},
{
closed = 1;
nodes = (
(362,400,ls),
(370,452,o),
(403,485,o),
(445,485,cs),
(487,485,o),
(508,452,o),
(500,400,cs),
(488,324,l),
(350,324,l)
);
}
);
width = 600;
},
{
anchors = (
{
name = top;
pos = (346,550);
}
);
layerId = "EDF5EB54-295C-4C90-9A2F-67CD82979CFF";
shapes = (
{
closed = 1;
nodes = (
(194,-10,o),
(253,25,o),
(271,75,c),
(274,25,o),
(318,-10,o),
(380,-10,cs),
(460,-10,o),
(525,50,o),
(539,137,c),
(491,137,l),
(481,76,o),
(437,34,o),
(384,34,cs),
(327,34,o),
(295,77,o),
(305,140,cs),
(326,269,l),
(559,269,l),
(581,410,ls),
(595,499,o),
(549,560,o),
(467,560,cs),
(407,560,o),
(353,525,o),
(334,474,c),
(334,525,o),
(293,560,o),
(232,560,cs),
(156,560,o),
(93,501,o),
(80,414,c),
(128,414,l),
(137,475,o),
(180,517,o),
(232,517,cs),
(282,517,o),
(310,473,o),
(300,410,cs),
(284,312,l),
(175,312,ls),
(98,312,o),
(35,248,o),
(21,155,cs),
(5,57,o),
(49,-10,o),
(128,-10,cs)
);
},
{
closed = 1;
nodes = (
(88,31,o),
(57,81,o),
(69,155,cs),
(79,223,o),
(120,269,o),
(169,269,cs),
(278,269,l),
(257,140,ls),
(246,75,o),
(201,31,o),
(144,31,cs)
);
},
{
closed = 1;
nodes = (
(348,410,ls),
(358,473,o),
(402,517,o),
(457,517,cs),
(512,517,o),
(543,473,o),
(533,410,cs),
(517,312,l),
(332,312,l)
);
}
);
width = 600;
}
);
unicode = 230;
}
{
glyphname = aogonek;
layers = (
{
layerId = "EDF5EB54-295C-4C90-9A2F-67CD82979CFF";
shapes = (
{
closed = 1;
nodes = (
(491,-195,l),
(498,-153,l),
(434,-153,ls),
(402,-153,o),
(386,-134,o),
(391,-103,cs),
(394,-77,o),
(431,-39,o),
(492,0,c),
(463,10,l),
(392,-29,o),
(347,-75,o),
(342,-115,cs),
(334,-165,o),
(363,-195,o),
(418,-195,c)
);
},
{
ref = a;
}
);
width = 600;
},
{
layerId = "CCC0BD40-BA8C-414E-B576-CF0B94E6C996";
shapes = (
{
closed = 1;
nodes = (
(493,-203,l),
(502,-143,l),
(442,-143,ls),
(408,-143,o),
(391,-122,o),
(395,-93,cs),
(400,-65,o),
(439,-31,o),
(504,0,c),
(437,10,l),
(362,-24,o),
(315,-68,o),
(308,-110,cs),
(299,-164,o),
(341,-203,o),
(415,-203,cs)
);
},
{
ref = a;
}
);
width = 600;
},
{
layerId = "9ADF6715-3D0F-493D-8567-18A6FBCFC567";
shapes = (
{
closed = 1;
nodes = (
(504,-225,l),
(521,-120,l),
(452,-120,ls),
(423,-120,o),
(409,-103,o),
(412,-83,cs),
(416,-58,o),
(451,-28,o),
(506,0,c),
(434,11,l),
(346,-13,o),
(291,-58,o),
(283,-115,cs),
(272,-180,o),
(315,-225,o),
(396,-225,cs)
);
},
{
ref = a;
}
);
width = 600;
}
);
unicode = 261;
}
{
glyphname = dcaron;
layers = (
{
layerId = "9ADF6715-3D0F-493D-8567-18A6FBCFC567";
shapes = (
{
closed = 1;
nodes = (
(240,-10,o),
(294,45,o),
(309,140,c),
(267,105,l),
(302,105,l),
(285,0,l),
(420,0,l),
(536,730,l),
(396,730,l),
(372,580,l),
(355,445,l),
(320,445,l),
(352,410,l),
(367,502,o),
(325,560,o),
(248,560,cs),
(144,560,o),
(73,484,o),
(52,351,cs),
(28,200,ls),
(7,71,o),
(59,-10,o),
(159,-10,cs)
);
},
{
closed = 1;
nodes = (
(182,110,o),
(158,145,o),
(168,205,cs),
(191,346,ls),
(201,405,o),
(235,440,o),
(283,440,cs),
(325,440,o),
(345,405,o),
(335,346,cs),
(312,205,ls),
(302,145,o),
(272,110,o),
(230,110,cs)
);
},
{
pos = (665,0);
ref = caroncomb.alt;
}
);
width = 600;
},
{
layerId = "CCC0BD40-BA8C-414E-B576-CF0B94E6C996";
shapes = (
{
closed = 1;
nodes = (
(270,-10,o),
(328,40,o),
(341,126,c),
(318,105,l),
(336,105,l),
(319,0,l),
(409,0,l),
(525,730,l),
(435,730,l),
(409,570,l),
(391,445,l),
(371,445,l),
(388,424,l),
(401,507,o),
(356,560,o),
(273,560,cs),
(167,560,o),
(96,487,o),
(76,360,cs),
(49,189,ls),
(30,67,o),
(81,-10,o),
(182,-10,cs)
);
},
{
closed = 1;
nodes = (
(159,68,o),
(127,115,o),
(140,195,cs),
(165,355,ls),
(178,435,o),
(224,482,o),
(290,482,cs),
(356,482,o),
(388,435,o),
(375,355,cs),
(350,195,ls),
(337,115,o),
(291,68,o),
(225,68,cs)
);
},
{
pos = (665,0);
ref = caroncomb.alt;
}
);
width = 600;
},
{
layerId = "EDF5EB54-295C-4C90-9A2F-67CD82979CFF";
shapes = (
{
closed = 1;
nodes = (
(314,-10,o),
(378,45,o),
(393,140,c),
(361,95,l),
(376,95,l),
(361,0,l),
(411,0,l),
(527,730,l),
(477,730,l),
(453,580,l),
(433,455,l),
(419,455,l),
(436,410,l),
(451,502,o),
(401,560,o),
(307,560,cs),
(197,560,o),
(123,487,o),
(103,360,cs),
(76,189,ls),
(57,67,o),
(111,-10,o),
(216,-10,cs)
);
},
{
closed = 1;
nodes = (
(152,33,o),
(111,93,o),
(126,189,cs),
(153,360,ls),
(168,456,o),
(229,517,o),
(310,517,cs),
(392,517,o),
(433,456,o),
(418,360,cs),
(391,189,ls),
(376,93,o),
(315,33,o),
(233,33,cs)
);
},
{
pos = (670,0);
ref = caroncomb.alt;
}
);
width = 600;
}
);
unicode = 271;
}
{
glyphname = IJ;
layers = (
{
layerId = "EDF5EB54-295C-4C90-9A2F-67CD82979CFF";
shapes = (
{
closed = 1;
nodes = (
(279,245,l),
(285,287,l),
(186,287,l),
(250,688,l),
(349,688,l),
(356,730,l),
(106,730,l),
(99,688,l),
(200,688,l),
(136,287,l),
(35,287,l),
(29,245,l)
);
},
{
closed = 1;
nodes = (
(423,-10,o),
(512,67,o),
(532,197,cs),
(617,730,l),
(567,730,l),
(483,201,ls),
(467,99,o),
(396,35,o),
(299,35,cs),
(209,35,o),
(160,88,o),
(169,180,c),
(120,180,l),
(106,64,o),
(174,-10,o),
(297,-10,cs)
);
}
);
width = 600;
},
{
layerId = "CCC0BD40-BA8C-414E-B576-CF0B94E6C996";
shapes = (
{
closed = 1;
nodes = (
(302,245,l),
(314,323,l),
(219,323,l),
(271,652,l),
(366,652,l),
(379,730,l),
(97,730,l),
(84,652,l),
(179,652,l),
(127,323,l),
(32,323,l),
(20,245,l)
);
},
{
closed = 1;
nodes = (
(430,-10,o),
(528,73,o),
(549,207,cs),
(632,730,l),
(542,730,l),
(460,213,ls),
(446,128,o),
(384,70,o),
(301,70,cs),
(231,70,o),
(189,110,o),
(196,180,c),
(107,180,l),
(93,67,o),
(168,-10,o),
(299,-10,cs)
);
}
);
width = 600;
},
{
layerId = "9ADF6715-3D0F-493D-8567-18A6FBCFC567";
shapes = (
{
closed = 1;
nodes = (
(305,245,l),
(321,350,l),
(246,350,l),
(290,625,l),
(365,625,l),
(382,730,l),
(82,730,l),
(65,625,l),
(140,625,l),
(96,350,l),
(21,350,l),
(5,245,l)
);
},
{
closed = 1;
nodes = (
(436,-10,o),
(537,72,o),
(560,214,cs),
(642,730,l),
(492,730,l),
(411,224,ls),
(402,162,o),
(355,120,o),
(291,120,cs),
(244,120,o),
(217,142,o),
(220,190,c),
(72,190,l),
(55,71,o),
(138,-10,o),
(288,-10,cs)
);
}
);
width = 600;
}
);
unicode = 306;
}
{
glyphname = ij;
layers = (
{
layerId = "EDF5EB54-295C-4C90-9A2F-67CD82979CFF";
shapes = (
{
closed = 1;
nodes = (
(210,-180,ls),
(332,-180,o),
(413,-111,o),
(432,8,cs),
(518,550,l),
(468,550,l),
(383,12,ls),
(368,-82,o),
(308,-135,o),
(214,-135,cs),
(62,-135,l),
(54,-180,l)
);
},
{
closed = 1;
nodes = (
(133,0,l),
(220,550,l),
(170,550,l),
(83,0,l)
);
},
{
pos = (452,0);
ref = dotaccentcomb;
},
{
pos = (748,0);
ref = dotaccentcomb;
}
);
width = 600;
},
{
layerId = "CCC0BD40-BA8C-414E-B576-CF0B94E6C996";
shapes = (
{
closed = 1;
nodes = (
(204,-180,l),
(339,-180,o),
(435,-101,o),
(455,28,cs),
(538,550,l),
(448,550,l),
(366,34,ls),
(353,-48,o),
(295,-98,o),
(212,-98,c),
(48,-98,l),
(35,-180,l)
);
},
{
closed = 1;
nodes = (
(154,0,l),
(241,550,l),
(151,550,l),
(64,0,l)
);
},
{
pos = (451,0);
ref = dotaccentcomb;
},
{
pos = (749,0);
ref = dotaccentcomb;
}
);
width = 600;
},
{
layerId = "9ADF6715-3D0F-493D-8567-18A6FBCFC567";
shapes = (
{
closed = 1;
nodes = (
(223,-180,ls),
(361,-180,o),
(455,-101,o),
(477,35,cs),
(558,550,l),
(408,550,l),
(329,50,ls),
(320,-4,o),
(275,-45,o),
(224,-45,cs),
(34,-45,l),
(12,-180,l)
);
},
{
closed = 1;
nodes = (
(201,65,l),
(278,550,l),
(128,550,l),
(51,65,l)
);
},
{
pos = (460,0);
ref = dotaccentcomb;
},
{
pos = (740,0);
ref = dotaccentcomb;
}
);
width = 600;
}
);
unicode = 307;
}
{
glyphname = Ohorn;
layers = (
{
anchors = (
{
name = top;
pos = (362,730);
}
);
layerId = "9ADF6715-3D0F-493D-8567-18A6FBCFC567";
shapes = (
{
closed = 1;
nodes = (
(492,600,ls),
(579,600,o),
(646,654,o),
(658,735,cs),
(670,810,l),
(550,810,l),
(538,735,ls),
(535,713,o),
(520,700,o),
(498,700,cs),
(448,700,l),
(432,600,l)
);
},
{
ref = O;
}
);
width = 600;
},
{
anchors = (
{
name = top;
pos = (362,730);
}
);
layerId = "CCC0BD40-BA8C-414E-B576-CF0B94E6C996";
shapes = (
{
closed = 1;
nodes = (
(482,635,ls),
(546,635,o),
(592,672,o),
(602,730,cs),
(614,810,l),
(539,810,l),
(527,735,ls),
(524,714,o),
(508,700,o),
(487,700,cs),
(467,700,l),
(457,635,l)
);
},
{
ref = O;
}
);
width = 600;
},
{
anchors = (
{
name = top;
pos = (390,730);
}
);
layerId = "EDF5EB54-295C-4C90-9A2F-67CD82979CFF";
shapes = (
{
closed = 1;
nodes = (
(493,665,ls),
(544,665,o),
(583,699,o),
(591,750,cs),
(601,810,l),
(561,810,l),
(551,750,ls),
(546,720,o),
(526,700,o),
(499,700,cs),
(464,700,l),
(458,665,l)
);
},
{
ref = O;
}
);
width = 600;
}
);
unicode = 416;
}
{
glyphname = jdotless;
layers = (
{
anchors = (
{
name = bottom;
pos = (213,-270);
},
{
name = top;
pos = (433,550);
}
);
layerId = "9ADF6715-3D0F-493D-8567-18A6FBCFC567";
shapes = (
{
closed = 1;
nodes = (
(173,-180,ls),
(316,-180,o),
(410,-100,o),
(432,40,cs),
(513,550,l),
(113,550,l),
(92,415,l),
(342,415,l),
(283,45,ls),
(275,-9,o),
(235,-45,o),
(184,-45,cs),
(24,-45,l),
(2,-180,l)
);
}
);
width = 600;
},
{
anchors = (
{
name = bottom;
pos = (208,-270);
},
{
name = top;
pos = (423,550);
}
);
layerId = "CCC0BD40-BA8C-414E-B576-CF0B94E6C996";
shapes = (
{
closed = 1;
nodes = (
(141,-180,ls),
(281,-180,o),
(374,-103,o),
(396,31,cs),
(478,550,l),
(128,550,l),
(115,468,l),
(375,468,l),
(306,31,ls),
(293,-51,o),
(237,-98,o),
(154,-98,cs),
(30,-98,l),
(17,-180,l)
);
}
);
width = 600;
},
{
anchors = (
{
name = bottom;
pos = (209,-270);
},
{
name = top;
pos = (423,550);
}
);
layerId = "EDF5EB54-295C-4C90-9A2F-67CD82979CFF";
shapes = (
{
closed = 1;
nodes = (
(153,-180,ls),
(277,-180,o),
(359,-111,o),
(378,10,cs),
(463,550,l),
(148,550,l),
(141,505,l),
(406,505,l),
(328,10,ls),
(313,-82,o),
(253,-135,o),
(161,-135,cs),
(45,-135,l),
(37,-180,l)
);
}
);
width = 600;
}
);
unicode = 567;
}
{
glyphname = slashlongcomb;
layers = (
{
anchors = (
{
name = _center;
pos = (-300,275);
}
);
layerId = "9ADF6715-3D0F-493D-8567-18A6FBCFC567";
shapes = (
{
closed = 1;
nodes = (
(-456,-110,l),
(-39,660,l),
(-142,660,l),
(-559,-110,l)
);
}
);
width = 0;
},
{
anchors = (
{
name = _center;
pos = (-300,275);
}
);
layerId = "CCC0BD40-BA8C-414E-B576-CF0B94E6C996";
shapes = (
{
closed = 1;
nodes = (
(-477,-110,l),
(-41,660,l),
(-123,660,l),
(-559,-110,l)
);
}
);
width = 0;
},
{
anchors = (
{
name = _center;
pos = (-300,275);
}
);
layerId = "EDF5EB54-295C-4C90-9A2F-67CD82979CFF";
shapes = (
{
closed = 1;
nodes = (
(-493,-110,l),
(-59,660,l),
(-107,660,l),
(-541,-110,l)
);
}
);
width = 0;
}
);
unicode = 824;
}
{
glyphname = beta;
layers = (
{
layerId = "EDF5EB54-295C-4C90-9A2F-67CD82979CFF";
shapes = (
{
closed = 1;
nodes = (
(87,-180,l),
(116,0,l),
(133,105,l),
(151,105,l),
(134,151,l),
(119,56,o),
(175,-10,o),
(277,-10,cs),
(402,-10,o),
(493,73,o),
(514,204,cs),
(530,303,o),
(479,383,o),
(389,400,c),
(390,403,l),
(463,418,o),
(522,481,o),
(534,558,cs),
(551,666,o),
(485,740,o),
(372,740,cs),
(256,740,o),
(172,667,o),
(153,550,cs),
(37,-180,l)
);
},
{
closed = 1;
nodes = (
(186,35,o),
(132,103,o),
(148,203,cs),
(203,550,ls),
(217,636,o),
(283,695,o),
(365,695,cs),
(449,695,o),
(497,639,o),
(484,558,cs),
(471,476,o),
(406,420,o),
(322,420,cs),
(288,420,l),
(281,376,l),
(328,376,ls),
(424,376,o),
(479,307,o),
(463,206,cs),
(447,105,o),
(372,35,o),
(279,35,cs)
);
}
);
width = 600;
},
{
layerId = "CCC0BD40-BA8C-414E-B576-CF0B94E6C996";
shapes = (
{
closed = 1;
nodes = (
(109,-180,l),
(135,-20,l),
(151,102,l),
(174,102,l),
(156,126,l),
(143,42,o),
(191,-10,o),
(280,-10,cs),
(411,-10,o),
(506,74,o),
(527,209,cs),
(543,311,o),
(495,390,o),
(408,403,c),
(408,406,l),
(479,423,o),
(536,486,o),
(548,561,cs),
(565,667,o),
(493,740,o),
(372,740,cs),
(245,740,o),
(153,659,o),
(132,529,cs),
(19,-180,l)
);
},
{
closed = 1;
nodes = (
(204,72,o),
(159,130,o),
(172,214,cs),
(222,529,ls),
(234,607,o),
(291,660,o),
(360,660,cs),
(429,660,o),
(468,614,o),
(457,546,cs),
(447,478,o),
(392,432,o),
(323,432,cs),
(284,432,l),
(272,356,l),
(327,356,ls),
(405,356,o),
(449,298,o),
(436,214,cs),
(423,130,o),
(360,72,o),
(283,72,cs)
);
}
);
width = 600;
},
{
layerId = "9ADF6715-3D0F-493D-8567-18A6FBCFC567";
shapes = (
{
closed = 1;
nodes = (
(137,-180,l),
(161,-30,l),
(178,105,l),
(213,105,l),
(183,140,l),
(168,45,o),
(214,-10,o),
(315,-10,cs),
(442,-10,o),
(536,74,o),
(558,208,cs),
(573,305,o),
(529,386,o),
(452,403,c),
(452,405,l),
(513,418,o),
(565,472,o),
(576,542,cs),
(594,659,o),
(510,740,o),
(372,740,cs),
(225,740,o),
(120,654,o),
(98,517,cs),
(-13,-180,l)
);
},
{
closed = 1;
nodes = (
(228,130,o),
(193,171,o),
(203,236,cs),
(248,517,ls),
(257,577,o),
(297,615,o),
(351,615,cs),
(405,615,o),
(434,582,o),
(426,530,cs),
(418,478,o),
(378,445,o),
(324,445,cs),
(297,445,l),
(281,342,l),
(323,342,ls),
(386,342,o),
(421,301,o),
(410,236,cs),
(400,171,o),
(353,130,o),
(290,130,cs)
);
}
);
width = 600;
}
);
unicode = 946;
}
{
glyphname = gamma;
layers = (
{
layerId = "EDF5EB54-295C-4C90-9A2F-67CD82979CFF";
shapes = (
{
closed = 1;
nodes = (
(253,-180,l),
(282,0,l),
(568,550,l),
(513,550,l),
(309,150,ls),
(294,123,o),
(281,86,o),
(265,52,c),
(261,86,o),
(253,123,o),
(248,150,cs),
(169,550,l),
(120,550,l),
(232,0,l),
(203,-180,l)
);
}
);
width = 600;
},
{
layerId = "CCC0BD40-BA8C-414E-B576-CF0B94E6C996";
shapes = (
{
closed = 1;
nodes = (
(273,-180,l),
(302,0,l),
(584,550,l),
(487,550,l),
(308,185,ls),
(286,139,o),
(279,103,o),
(272,81,c),
(271,103,o),
(269,139,o),
(260,185,cs),
(194,550,l),
(104,550,l),
(212,0,l),
(183,-180,l)
);
}
);
width = 600;
},
{
layerId = "9ADF6715-3D0F-493D-8567-18A6FBCFC567";
shapes = (
{
closed = 1;
nodes = (
(304,-180,l),
(333,0,l),
(617,550,l),
(457,550,l),
(314,240,ls),
(297,204,o),
(284,154,o),
(275,127,c),
(273,154,o),
(273,204,o),
(267,241,cs),
(219,550,l),
(71,550,l),
(183,0,l),
(154,-180,l)
);
}
);
width = 600;
}
);
unicode = 947;
}
{
glyphname = delta;
layers = (
{
layerId = "EDF5EB54-295C-4C90-9A2F-67CD82979CFF";
shapes = (
{
closed = 1;
nodes = (
(387,-10,o),
(462,70,o),
(489,240,cs),
(515,407,o),
(429,528,o),
(254,685,c),
(545,685,l),
(553,730,l),
(202,730,l),
(194,683,l),
(393,497,o),
(463,400,o),
(438,240,cs),
(417,105,o),
(357,35,o),
(263,35,cs),
(170,35,o),
(126,95,o),
(143,200,cs),
(159,302,ls),
(175,404,o),
(244,468,o),
(331,468,cs),
(405,468,l),
(392,512,l),
(338,512,ls),
(214,512,o),
(130,435,o),
(109,302,cs),
(93,200,ls),
(71,66,o),
(130,-10,o),
(255,-10,cs)
);
}
);
width = 600;
},
{
layerId = "CCC0BD40-BA8C-414E-B576-CF0B94E6C996";
shapes = (
{
closed = 1;
nodes = (
(401,-10,o),
(483,72,o),
(511,245,cs),
(539,422,o),
(441,520,o),
(269,655,c),
(561,655,l),
(573,730,l),
(180,730,l),
(167,648,l),
(387,461,o),
(446,415,o),
(419,245,cs),
(399,120,o),
(343,70,o),
(267,70,cs),
(191,70,o),
(149,119,o),
(162,205,cs),
(178,302,ls),
(191,382,o),
(250,437,o),
(324,437,cs),
(410,437,l),
(392,512,l),
(316,512,ls),
(197,512,o),
(109,431,o),
(88,302,cs),
(72,205,ls),
(51,72,o),
(124,-10,o),
(254,-10,cs)
);
}
);
width = 600;
},
{
layerId = "9ADF6715-3D0F-493D-8567-18A6FBCFC567";
shapes = (
{
closed = 1;
nodes = (
(416,-13,o),
(507,75,o),
(538,263,cs),
(564,428,o),
(489,547,o),
(320,610,c),
(578,610,l),
(597,730,l),
(156,730,l),
(138,620,l),
(391,479,o),
(408,391,o),
(388,263,cs),
(371,160,o),
(336,120,o),
(275,120,cs),
(218,120,o),
(190,153,o),
(199,210,cs),
(216,316,ls),
(225,373,o),
(263,406,o),
(320,406,cs),
(407,406,l),
(370,512,l),
(296,512,ls),
(174,512,o),
(84,431,o),
(64,301,cs),
(49,210,ls),
(29,82,o),
(113,-7,o),
(254,-10,cs)
);
}
);
width = 600;
}
);
unicode = 948;
}
{
glyphname = zeta;
layers = (
{
layerId = "EDF5EB54-295C-4C90-9A2F-67CD82979CFF";
shapes = (
{
closed = 1;
nodes = (
(465,-89,ls),
(480,-69,o),
(489,-50,o),
(492,-31,cs),
(498,5,o),
(479,36,o),
(435,48,cs),
(265,96,ls),
(196,115,o),
(161,159,o),
(172,227,cs),
(184,304,o),
(255,393,o),
(410,526,cs),
(595,684,l),
(603,730,l),
(203,730,l),
(195,685,l),
(534,685,l),
(378,555,ls),
(212,417,o),
(137,319,o),
(122,227,cs),
(107,134,o),
(153,75,o),
(245,49,cs),
(414,2,ls),
(435,-4,o),
(445,-16,o),
(443,-33,cs),
(441,-42,o),
(436,-52,o),
(427,-64,cs),
(365,-144,l),
(403,-168,l)
);
}
);
width = 600;
},
{
layerId = "9ADF6715-3D0F-493D-8567-18A6FBCFC567";
shapes = (
{
closed = 1;
nodes = (
(459,-117,ls),
(497,-71,o),
(518,-31,o),
(524,5,cs),
(533,62,o),
(500,103,o),
(429,124,cs),
(308,160,ls),
(259,175,o),
(239,201,o),
(246,246,cs),
(256,309,o),
(308,373,o),
(409,447,cs),
(616,599,l),
(637,730,l),
(185,730,l),
(163,595,l),
(423,595,l),
(332,537,ls),
(182,441,o),
(105,344,o),
(87,230,cs),
(70,119,o),
(119,54,o),
(237,19,cs),
(338,-11,ls),
(353,-16,o),
(360,-24,o),
(358,-37,cs),
(357,-44,o),
(352,-53,o),
(344,-63,cs),
(290,-126,l),
(398,-190,l)
);
}
);
width = 600;
},
{
layerId = "CCC0BD40-BA8C-414E-B576-CF0B94E6C996";
shapes = (
{
closed = 1;
nodes = (
(472,-109,ls),
(494,-82,o),
(507,-54,o),
(511,-29,cs),
(519,22,o),
(492,64,o),
(432,82,cs),
(309,119,ls),
(220,146,o),
(182,183,o),
(190,236,cs),
(200,298,o),
(263,367,o),
(400,474,cs),
(612,640,l),
(627,730,l),
(192,730,l),
(179,648,l),
(503,648,l),
(351,535,ls),
(186,412,o),
(112,324,o),
(98,235,cs),
(83,138,o),
(137,74,o),
(266,35,cs),
(388,-2,ls),
(408,-8,o),
(418,-22,o),
(416,-39,cs),
(414,-48,o),
(410,-58,o),
(401,-69,cs),
(343,-143,l),
(411,-185,l)
);
}
);
width = 600;
}
);
unicode = 950;
}
{
glyphname = xi;
layers = (
{
layerId = "EDF5EB54-295C-4C90-9A2F-67CD82979CFF";
shapes = (
{
closed = 1;
nodes = (
(481,695,o),
(537,653,o),
(533,592,c),
(583,592,l),
(592,680,o),
(518,740,o),
(402,740,cs),
(277,740,o),
(187,669,o),
(169,557,cs),
(157,481,o),
(200,418,o),
(275,404,c),
(274,400,l),
(181,381,o),
(110,305,o),
(96,216,cs),
(81,124,o),
(132,67,o),
(250,38,cs),
(394,3,ls),
(417,-3,o),
(427,-16,o),
(424,-35,cs),
(423,-44,o),
(418,-54,o),
(409,-65,cs),
(347,-144,l),
(385,-168,l),
(447,-89,ls),
(462,-70,o),
(470,-50,o),
(473,-32,cs),
(479,6,o),
(459,38,o),
(415,49,cs),
(270,85,ls),
(175,109,o),
(138,153,o),
(149,220,cs),
(163,313,o),
(243,376,o),
(342,376,cs),
(481,376,l),
(488,421,l),
(352,421,ls),
(261,421,o),
(207,477,o),
(219,558,cs),
(232,639,o),
(304,695,o),
(395,695,cs)
);
}
);
width = 600;
},
{
layerId = "9ADF6715-3D0F-493D-8567-18A6FBCFC567";
shapes = (
{
closed = 1;
nodes = (
(412,615,o),
(447,591,o),
(446,555,c),
(596,555,l),
(608,665,o),
(521,740,o),
(382,740,cs),
(242,740,o),
(143,671,o),
(125,561,cs),
(113,484,o),
(149,424,o),
(221,410,c),
(221,408,l),
(135,390,o),
(67,322,o),
(53,232,cs),
(36,125,o),
(87,50,o),
(204,20,cs),
(326,-11,ls),
(342,-15,o),
(350,-25,o),
(348,-38,cs),
(347,-44,o),
(344,-51,o),
(338,-58,cs),
(278,-131,l),
(384,-190,l),
(445,-115,ls),
(480,-72,o),
(500,-32,o),
(506,4,cs),
(515,60,o),
(486,103,o),
(419,120,cs),
(267,158,ls),
(220,170,o),
(198,197,o),
(204,238,cs),
(213,294,o),
(263,333,o),
(329,333,cs),
(481,333,l),
(501,463,l),
(338,463,ls),
(283,463,o),
(255,494,o),
(262,538,cs),
(269,584,o),
(310,615,o),
(362,615,cs)
);
}
);
width = 600;
},
{
layerId = "CCC0BD40-BA8C-414E-B576-CF0B94E6C996";
shapes = (
{
closed = 1;
nodes = (
(459,658,o),
(498,620,o),
(495,566,c),
(585,566,l),
(596,667,o),
(525,740,o),
(398,740,cs),
(265,740,o),
(170,669,o),
(152,557,cs),
(140,481,o),
(179,423,o),
(245,406,c),
(245,403,l),
(159,388,o),
(91,318,o),
(77,230,cs),
(63,138,o),
(112,77,o),
(232,37,cs),
(360,-6,ls),
(382,-13,o),
(391,-27,o),
(389,-43,cs),
(387,-53,o),
(382,-63,o),
(373,-75,cs),
(319,-146,l),
(387,-185,l),
(438,-119,ls),
(464,-86,o),
(479,-55,o),
(484,-28,cs),
(491,18,o),
(466,54,o),
(407,73,cs),
(271,117,ls),
(195,142,o),
(164,178,o),
(172,230,cs),
(184,305,o),
(253,356,o),
(341,356,cs),
(483,356,l),
(496,436,l),
(350,436,ls),
(277,436,o),
(233,476,o),
(244,542,cs),
(254,608,o),
(312,658,o),
(385,658,cs)
);
}
);
width = 600;
}
);
unicode = 958;
}
{
glyphname = pi;
layers = (
{
layerId = "9ADF6715-3D0F-493D-8567-18A6FBCFC567";
shapes = (
{
closed = 1;
nodes = (
(530,-5,l),
(552,130,l),
(528,130,ls),
(489,130,o),
(468,155,o),
(474,195,cs),
(510,422,l),
(597,422,l),
(617,550,l),
(53,550,l),
(33,422,l),
(106,422,l),
(39,0,l),
(184,0,l),
(251,422,l),
(365,422,l),
(328,190,ls),
(309,70,o),
(372,-5,o),
(492,-5,cs)
);
}
);
width = 600;
},
{
layerId = "CCC0BD40-BA8C-414E-B576-CF0B94E6C996";
shapes = (
{
closed = 1;
nodes = (
(510,-5,l),
(524,79,l),
(500,79,ls),
(453,79,o),
(428,109,o),
(437,164,cs),
(485,470,l),
(584,470,l),
(597,550,l),
(68,550,l),
(55,470,l),
(139,470,l),
(65,0,l),
(152,0,l),
(226,470,l),
(399,470,l),
(352,170,ls),
(335,64,o),
(390,-5,o),
(491,-5,cs)
);
}
);
width = 600;
},
{
layerId = "EDF5EB54-295C-4C90-9A2F-67CD82979CFF";
shapes = (
{
closed = 1;
nodes = (
(500,-5,l),
(507,40,l),
(479,40,ls),
(433,40,o),
(410,73,o),
(418,125,cs),
(478,505,l),
(581,505,l),
(588,550,l),
(78,550,l),
(71,505,l),
(161,505,l),
(81,0,l),
(131,0,l),
(211,505,l),
(428,505,l),
(368,125,ls),
(355,45,o),
(395,-5,o),
(472,-5,cs)
);
}
);
width = 600;
}
);
unicode = 960;
}
{
glyphname = rho;
layers = (
{
layerId = "EDF5EB54-295C-4C90-9A2F-67CD82979CFF";
shapes = (
{
closed = 1;
nodes = (
(87,-180,l),
(116,0,l),
(131,95,l),
(149,95,l),
(128,140,l),
(114,50,o),
(170,-10,o),
(267,-10,cs),
(383,-10,o),
(461,63,o),
(481,190,cs),
(508,361,ls),
(527,479,o),
(462,560,o),
(348,560,cs),
(226,560,o),
(144,488,o),
(123,361,cs),
(37,-180,l)
);
},
{
closed = 1;
nodes = (
(174,33,o),
(130,91,o),
(146,190,cs),
(173,361,ls),
(188,453,o),
(256,516,o),
(341,516,cs),
(425,516,o),
(473,453,o),
(458,361,cs),
(431,190,ls),
(415,91,o),
(353,33,o),
(264,33,cs)
);
}
);
width = 600;
},
{
layerId = "CCC0BD40-BA8C-414E-B576-CF0B94E6C996";
shapes = (
{
closed = 1;
nodes = (
(111,-180,l),
(137,-20,l),
(155,105,l),
(175,105,l),
(160,126,l),
(147,43,o),
(196,-10,o),
(286,-10,cs),
(399,-10,o),
(476,65,o),
(497,195,cs),
(522,356,ls),
(542,483,o),
(477,560,o),
(348,560,cs),
(215,560,o),
(127,486,o),
(106,356,cs),
(21,-180,l)
);
},
{
closed = 1;
nodes = (
(195,68,o),
(159,117,o),
(172,200,cs),
(195,350,ls),
(209,435,o),
(258,482,o),
(334,482,cs),
(410,482,o),
(445,435,o),
(431,350,cs),
(408,200,ls),
(394,115,o),
(345,68,o),
(269,68,cs)
);
}
);
width = 600;
},
{
layerId = "9ADF6715-3D0F-493D-8567-18A6FBCFC567";
shapes = (
{
closed = 1;
nodes = (
(143,-180,l),
(167,-30,l),
(184,105,l),
(219,105,l),
(189,140,l),
(174,45,o),
(220,-10,o),
(311,-10,cs),
(428,-10,o),
(507,68,o),
(528,205,cs),
(551,345,ls),
(571,475,o),
(490,560,o),
(348,560,cs),
(196,560,o),
(98,482,o),
(77,345,cs),
(-7,-180,l)
);
},
{
closed = 1;
nodes = (
(223,120,o),
(196,153,o),
(205,210,cs),
(226,340,ls),
(235,398,o),
(271,430,o),
(327,430,cs),
(383,430,o),
(409,398,o),
(400,340,cs),
(379,210,ls),
(370,152,o),
(334,120,o),
(278,120,cs)
);
}
);
width = 600;
}
);
unicode = 961;
}
{
glyphname = sigmafinal;
layers = (
{
layerId = "EDF5EB54-295C-4C90-9A2F-67CD82979CFF";
shapes = (
{
closed = 1;
nodes = (
(330,-168,l),
(392,-89,ls),
(407,-70,o),
(416,-51,o),
(418,-33,cs),
(424,5,o),
(404,36,o),
(360,49,cs),
(220,89,ls),
(168,104,o),
(139,147,o),
(149,208,cs),
(173,360,ls),
(188,457,o),
(253,514,o),
(344,514,cs),
(436,514,o),
(484,460,o),
(470,370,c),
(520,370,l),
(538,486,o),
(473,560,o),
(352,560,cs),
(226,560,o),
(143,487,o),
(123,360,cs),
(99,208,ls),
(86,123,o),
(126,63,o),
(200,42,cs),
(339,3,ls),
(361,-3,o),
(371,-17,o),
(368,-34,cs),
(367,-44,o),
(362,-54,o),
(354,-65,cs),
(292,-144,l)
);
}
);
width = 600;
},
{
layerId = "9ADF6715-3D0F-493D-8567-18A6FBCFC567";
shapes = (
{
closed = 1;
nodes = (
(359,-190,l),
(420,-115,ls),
(454,-73,o),
(475,-33,o),
(480,1,cs),
(489,57,o),
(460,100,o),
(394,120,cs),
(262,160,ls),
(223,172,o),
(203,204,o),
(209,241,cs),
(225,340,ls),
(234,398,o),
(272,430,o),
(332,430,cs),
(386,430,o),
(417,402,o),
(413,355,c),
(563,355,l),
(578,482,o),
(498,560,o),
(353,560,cs),
(198,560,o),
(97,480,o),
(75,340,cs),
(59,241,ls),
(42,136,o),
(94,56,o),
(200,22,cs),
(301,-10,ls),
(317,-15,o),
(325,-25,o),
(323,-38,cs),
(322,-44,o),
(319,-50,o),
(313,-57,cs),
(253,-131,l)
);
}
);
width = 600;
},
{
layerId = "CCC0BD40-BA8C-414E-B576-CF0B94E6C996";
shapes = (
{
closed = 1;
nodes = (
(342,-185,l),
(393,-119,ls),
(419,-86,o),
(434,-55,o),
(439,-28,cs),
(446,18,o),
(421,54,o),
(362,73,cs),
(246,111,ls),
(191,129,o),
(163,170,o),
(171,220,cs),
(192,351,ls),
(205,433,o),
(262,480,o),
(341,480,cs),
(415,480,o),
(455,440,o),
(448,370,c),
(538,370,l),
(552,487,o),
(481,560,o),
(354,560,cs),
(214,560,o),
(122,483,o),
(101,350,cs),
(81,220,ls),
(67,129,o),
(113,61,o),
(207,30,cs),
(315,-6,ls),
(338,-14,o),
(346,-27,o),
(344,-43,cs),
(342,-53,o),
(337,-63,o),
(328,-75,cs),
(274,-146,l)
);
}
);
width = 600;
}
);
unicode = 962;
}
{
glyphname = tau;
layers = (
{
layerId = "EDF5EB54-295C-4C90-9A2F-67CD82979CFF";
shapes = (
{
closed = 1;
nodes = (
(456,0,l),
(463,45,l),
(328,45,ls),
(276,45,o),
(253,73,o),
(261,125,cs),
(321,505,l),
(541,505,l),
(548,550,l),
(105,550,l),
(98,505,l),
(271,505,l),
(211,125,ls),
(198,44,o),
(237,0,o),
(321,0,cs)
);
}
);
width = 600;
},
{
layerId = "CCC0BD40-BA8C-414E-B576-CF0B94E6C996";
shapes = (
{
closed = 1;
nodes = (
(471,0,l),
(484,82,l),
(334,82,ls),
(298,82,o),
(278,107,o),
(284,145,cs),
(335,468,l),
(550,468,l),
(563,550,l),
(90,550,l),
(77,468,l),
(245,468,l),
(194,145,ls),
(180,57,o),
(230,0,o),
(321,0,cs)
);
}
);
width = 600;
},
{
layerId = "9ADF6715-3D0F-493D-8567-18A6FBCFC567";
shapes = (
{
closed = 1;
nodes = (
(491,0,l),
(512,135,l),
(357,135,ls),
(328,135,o),
(316,156,o),
(320,185,cs),
(357,415,l),
(562,415,l),
(583,550,l),
(70,550,l),
(49,415,l),
(207,415,l),
(170,180,ls),
(152,68,o),
(209,0,o),
(321,0,cs)
);
}
);
width = 600;
}
);
unicode = 964;
}
{
glyphname = phi;
layers = (
{
layerId = "9ADF6715-3D0F-493D-8567-18A6FBCFC567";
shapes = (
{
closed = 1;
nodes = (
(302,-180,l),
(331,0,l),
(456,6,o),
(539,81,o),
(559,207,cs),
(579,335,ls),
(599,462,o),
(530,550,o),
(408,550,cs),
(285,550,l),
(216,115,l),
(167,115,o),
(139,150,o),
(148,207,cs),
(168,335,ls),
(175,379,o),
(196,407,o),
(225,415,c),
(247,555,l),
(135,537,o),
(59,457,o),
(39,335,cs),
(19,207,ls),
(0,89,o),
(70,5,o),
(181,0,c),
(152,-180,l)
);
},
{
closed = 1;
nodes = (
(383,435,l),
(384,435,ls),
(433,435,o),
(459,394,o),
(450,335,cs),
(430,207,ls),
(421,150,o),
(385,115,o),
(332,115,c)
);
}
);
width = 600;
},
{
layerId = "EDF5EB54-295C-4C90-9A2F-67CD82979CFF";
shapes = (
{
closed = 1;
nodes = (
(252,-180,l),
(281,0,l),
(406,0,o),
(503,78,o),
(521,192,cs),
(548,358,ls),
(566,472,o),
(493,550,o),
(370,550,cs),
(319,550,l),
(239,44,l),
(142,44,o),
(85,104,o),
(99,192,cs),
(126,358,ls),
(138,434,o),
(185,496,o),
(240,509,c),
(247,555,l),
(162,542,o),
(93,462,o),
(78,358,cs),
(51,192,ls),
(33,78,o),
(106,0,o),
(231,0,c),
(202,-180,l)
);
},
{
closed = 1;
nodes = (
(360,506,l),
(363,506,ls),
(458,506,o),
(514,446,o),
(500,358,cs),
(473,192,ls),
(459,104,o),
(384,44,o),
(287,44,c)
);
}
);
width = 600;
},
{
layerId = "CCC0BD40-BA8C-414E-B576-CF0B94E6C996";
shapes = (
{
closed = 1;
nodes = (
(272,-180,l),
(301,0,l),
(428,0,o),
(514,75,o),
(535,207,cs),
(558,353,ls),
(576,470,o),
(506,550,o),
(386,550,cs),
(306,550,l),
(230,71,l),
(155,71,o),
(113,124,o),
(126,202,cs),
(152,358,ls),
(160,408,o),
(188,453,o),
(219,460,c),
(234,555,l),
(145,540,o),
(84,466,o),
(66,353,cs),
(43,207,ls),
(23,84,o),
(92,0,o),
(211,0,c),
(182,-180,l)
);
},
{
closed = 1;
nodes = (
(369,480,l),
(375,480,ls),
(446,480,o),
(486,430,o),
(475,358,cs),
(450,202,ls),
(438,124,o),
(378,71,o),
(304,71,c)
);
}
);
width = 600;
}
);
unicode = 966;
}
{
glyphname = omega;
layers = (
{
anchors = (
{
name = bottom;
pos = (256,0);
},
{
name = top;
pos = (344,550);
}
);
layerId = "EDF5EB54-295C-4C90-9A2F-67CD82979CFF";
shapes = (
{
closed = 1;
nodes = (
(217,-10,o),
(265,36,o),
(277,115,c),
(271,115,l),
(259,38,o),
(293,-10,o),
(361,-10,cs),
(440,-10,o),
(493,46,o),
(509,145,cs),
(546,377,ls),
(561,474,o),
(519,544,o),
(437,560,c),
(429,514,l),
(482,497,o),
(508,444,o),
(498,377,cs),
(461,145,ls),
(450,77,o),
(412,34,o),
(363,34,cs),
(315,34,o),
(292,77,o),
(303,145,cs),
(341,382,l),
(293,382,l),
(255,145,ls),
(244,77,o),
(207,34,o),
(158,34,cs),
(109,34,o),
(86,77,o),
(97,145,cs),
(134,377,ls),
(144,444,o),
(188,497,o),
(245,514,c),
(253,560,l),
(162,544,o),
(101,477,o),
(86,377,cs),
(49,145,ls),
(34,50,o),
(71,-10,o),
(147,-10,cs)
);
}
);
width = 600;
},
{
anchors = (
{
name = bottom;
pos = (256,0);
},
{
name = top;
pos = (344,550);
}
);
layerId = "CCC0BD40-BA8C-414E-B576-CF0B94E6C996";
shapes = (
{
closed = 1;
nodes = (
(204,-10,o),
(253,32,o),
(271,106,c),
(273,106,l),
(269,35,o),
(308,-10,o),
(373,-10,cs),
(454,-10,o),
(510,52,o),
(527,161,cs),
(557,348,ls),
(575,461,o),
(532,541,o),
(444,555,c),
(429,460,l),
(465,452,o),
(482,411,o),
(473,354,cs),
(442,155,ls),
(433,100,o),
(403,66,o),
(365,66,cs),
(328,66,o),
(311,100,o),
(320,155,cs),
(350,345,l),
(272,345,l),
(242,155,ls),
(233,100,o),
(204,66,o),
(167,66,cs),
(129,66,o),
(111,100,o),
(120,155,cs),
(151,354,ls),
(161,415,o),
(190,458,o),
(225,465,c),
(240,560,l),
(147,546,o),
(84,468,o),
(65,348,cs),
(35,161,ls),
(19,56,o),
(57,-10,o),
(135,-10,cs)
);
}
);
width = 600;
},
{
anchors = (
{
name = bottom;
pos = (256,0);
},
{
name = top;
pos = (344,550);
}
);
layerId = "9ADF6715-3D0F-493D-8567-18A6FBCFC567";
shapes = (
{
closed = 1;
nodes = (
(206,-10,o),
(263,44,o),
(278,130,c),
(276,130,l),
(261,47,o),
(302,-10,o),
(377,-10,cs),
(466,-10,o),
(531,57,o),
(548,165,cs),
(575,335,ls),
(595,458,o),
(538,543,o),
(433,560,c),
(411,420,l),
(441,412,o),
(453,379,o),
(446,335,cs),
(417,154,ls),
(412,123,o),
(394,104,o),
(369,104,cs),
(345,104,o),
(334,123,o),
(339,154,cs),
(370,345,l),
(252,345,l),
(221,154,ls),
(216,123,o),
(199,104,o),
(175,104,cs),
(150,104,o),
(138,123,o),
(143,154,cs),
(172,335,ls),
(179,379,o),
(201,412,o),
(235,420,c),
(257,560,l),
(145,543,o),
(63,456,o),
(43,335,cs),
(16,165,ls),
(0,61,o),
(45,-10,o),
(129,-10,cs)
);
}
);
width = 600;
}
);
unicode = 969;
}
{
glyphname = piSymbol;
layers = (
{
layerId = "EDF5EB54-295C-4C90-9A2F-67CD82979CFF";
shapes = (
{
closed = 1;
nodes = (
(204,-10,o),
(249,24,o),
(269,81,c),
(271,24,o),
(304,-10,o),
(361,-10,cs),
(436,-10,o),
(494,48,o),
(508,140,cs),
(548,393,ls),
(561,471,o),
(519,522,o),
(443,522,c),
(486,502,l),
(486,505,l),
(616,505,l),
(623,550,l),
(63,550,l),
(56,505,l),
(185,505,l),
(185,502,l),
(235,522,l),
(159,522,o),
(101,471,o),
(88,393,cs),
(48,140,ls),
(34,48,o),
(72,-10,o),
(147,-10,cs)
);
},
{
closed = 1;
nodes = (
(108,34,o),
(85,70,o),
(96,140,cs),
(137,399,ls),
(148,469,o),
(183,505,o),
(233,505,cs),
(438,505,ls),
(488,505,o),
(512,469,o),
(501,399,cs),
(460,140,ls),
(449,70,o),
(413,34,o),
(363,34,cs),
(313,34,o),
(290,70,o),
(301,140,cs),
(340,382,l),
(294,382,l),
(255,140,ls),
(244,70,o),
(208,34,o),
(158,34,cs)
);
}
);
width = 600;
},
{
layerId = "9ADF6715-3D0F-493D-8567-18A6FBCFC567";
shapes = (
{
closed = 1;
nodes = (
(198,-10,o),
(254,37,o),
(273,109,c),
(269,37,o),
(309,-10,o),
(376,-10,cs),
(460,-10,o),
(526,60,o),
(542,165,cs),
(560,275,ls),
(576,377,o),
(530,440,o),
(438,440,c),
(487,404,l),
(490,422,l),
(613,422,l),
(633,550,l),
(53,550,l),
(33,422,l),
(156,422,l),
(153,402,l),
(214,440,l),
(122,440,o),
(56,377,o),
(40,275,cs),
(22,165,ls),
(6,60,o),
(48,-10,o),
(130,-10,cs)
);
},
{
closed = 1;
nodes = (
(150,102,o),
(138,120,o),
(143,152,cs),
(178,372,ls),
(183,404,o),
(201,422,o),
(227,422,c),
(419,422,l),
(445,422,o),
(457,404,o),
(452,372,cs),
(417,152,ls),
(412,120,o),
(394,102,o),
(368,102,cs),
(340,102,o),
(327,120,o),
(332,152,cs),
(359,325,l),
(255,325,l),
(228,152,ls),
(223,120,o),
(204,102,o),
(176,102,cs)
);
}
);
width = 600;
},
{
layerId = "CCC0BD40-BA8C-414E-B576-CF0B94E6C996";
shapes = (
{
closed = 1;
nodes = (
(202,-10,o),
(252,30,o),
(272,97,c),
(272,30,o),
(308,-10,o),
(374,-10,cs),
(452,-10,o),
(510,51,o),
(526,151,cs),
(556,339,ls),
(570,429,o),
(520,484,o),
(425,484,c),
(487,459,l),
(488,468,l),
(616,468,l),
(629,550,l),
(59,550,l),
(46,468,l),
(174,468,l),
(173,459,l),
(243,484,l),
(148,484,o),
(80,429,o),
(66,339,cs),
(36,151,ls),
(20,51,o),
(58,-10,o),
(136,-10,cs)
);
},
{
closed = 1;
nodes = (
(129,66,o),
(112,96,o),
(121,150,cs),
(158,384,ls),
(166,438,o),
(193,468,o),
(232,468,cs),
(430,468,ls),
(469,468,o),
(486,438,o),
(478,384,cs),
(441,150,ls),
(432,96,o),
(405,66,o),
(366,66,cs),
(327,66,o),
(309,96,o),
(318,150,cs),
(349,345,l),
(275,345,l),
(244,150,ls),
(235,96,o),
(207,66,o),
(168,66,cs)
);
}
);
width = 600;
}
);
unicode = 982;
}
{
glyphname = "Dje-cy";
layers = (
{
layerId = "9ADF6715-3D0F-493D-8567-18A6FBCFC567";
shapes = (
{
closed = 1;
nodes = (
(262,-180,ls),
(403,-180,o),
(516,-96,o),
(535,25,cs),
(577,295,ls),
(596,419,o),
(541,500,o),
(437,500,cs),
(385,500,o),
(338,479,o),
(290,439,cs),
(273,425,l),
(299,590,l),
(409,590,l),
(432,730,l),
(72,730,l),
(49,590,l),
(149,590,l),
(56,0,l),
(206,0,l),
(253,293,l),
(293,325,ls),
(328,353,o),
(352,370,o),
(378,370,cs),
(418,370,o),
(434,342,o),
(426,290,cs),
(387,41,ls),
(379,-7,o),
(346,-35,o),
(295,-35,cs),
(235,-35,l),
(212,-180,l)
);
}
);
width = 600;
},
{
layerId = "CCC0BD40-BA8C-414E-B576-CF0B94E6C996";
shapes = (
{
closed = 1;
nodes = (
(257,-180,ls),
(381,-180,o),
(474,-103,o),
(493,15,cs),
(542,321,ls),
(559,430,o),
(508,500,o),
(414,500,cs),
(356,500,o),
(298,475,o),
(238,418,cs),
(220,401,l),
(259,651,l),
(379,651,l),
(392,730,l),
(72,730,l),
(59,651,l),
(169,651,l),
(66,0,l),
(156,0,l),
(204,303,l),
(265,354,ls),
(311,392,o),
(349,420,o),
(381,420,cs),
(437,420,o),
(462,382,o),
(449,301,cs),
(403,15,ls),
(392,-55,o),
(341,-98,o),
(270,-98,cs),
(200,-98,l),
(187,-180,l)
);
}
);
width = 600;
},
{
layerId = "EDF5EB54-295C-4C90-9A2F-67CD82979CFF";
shapes = (
{
closed = 1;
nodes = (
(236,-180,ls),
(361,-180,o),
(454,-104,o),
(473,15,cs),
(526,346,ls),
(541,437,o),
(498,495,o),
(418,495,cs),
(363,495,o),
(305,468,o),
(249,417,cs),
(194,367,l),
(244,685,l),
(369,685,l),
(377,730,l),
(72,730,l),
(64,685,l),
(194,685,l),
(86,0,l),
(136,0,l),
(184,307,l),
(271,383,ls),
(318,424,o),
(366,452,o),
(405,452,cs),
(460,452,o),
(485,408,o),
(474,336,cs),
(423,15,ls),
(408,-79,o),
(342,-135,o),
(244,-135,cs),
(202,-135,l),
(194,-180,l)
);
}
);
width = 600;
}
);
unicode = 1026;
}
{
glyphname = "E-cy";
layers = (
{
layerId = "9ADF6715-3D0F-493D-8567-18A6FBCFC567";
shapes = (
{
closed = 1;
nodes = (
(185,311,l),
(420,311,l),
(442,446,l),
(207,446,l)
);
},
{
ref = C;
}
);
width = 600;
},
{
layerId = "CCC0BD40-BA8C-414E-B576-CF0B94E6C996";
shapes = (
{
closed = 1;
nodes = (
(169,337,l),
(414,337,l),
(427,419,l),
(182,419,l)
);
},
{
ref = C;
}
);
width = 600;
},
{
layerId = "EDF5EB54-295C-4C90-9A2F-67CD82979CFF";
shapes = (
{
closed = 1;
nodes = (
(158,357,l),
(403,357,l),
(410,402,l),
(165,402,l)
);
},
{
ref = C;
}
);
width = 600;
}
);
unicode = 1028;
}
{
glyphname = "Lje-cy";
layers = (
{
layerId = "9ADF6715-3D0F-493D-8567-18A6FBCFC567";
shapes = (
{
closed = 1;
nodes = (
(-25,-5,ls),
(76,-5,o),
(166,79,o),
(187,205,cs),
(258,620,l),
(320,620,l),
(222,0,l),
(347,0,ls),
(464,0,o),
(557,69,o),
(575,185,cs),
(587,259,ls),
(606,376,o),
(534,445,o),
(417,445,cs),
(410,445,l),
(456,730,l),
(149,730,l),
(58,205,ls),
(48,147,o),
(19,110,o),
(-17,110,cs),
(-37,110,l),
(-55,-5,l)
);
},
{
closed = 1;
nodes = (
(393,335,l),
(400,335,ls),
(444,335,o),
(466,307,o),
(458,257,cs),
(446,186,ls),
(439,137,o),
(408,110,o),
(364,110,cs),
(357,110,l)
);
}
);
width = 600;
},
{
layerId = "CCC0BD40-BA8C-414E-B576-CF0B94E6C996";
shapes = (
{
closed = 1;
nodes = (
(-35,-5,ls),
(61,-5,o),
(117,55,o),
(140,194,cs),
(217,655,l),
(340,655,l),
(236,0,l),
(376,0,ls),
(472,0,o),
(546,62,o),
(561,155,cs),
(580,275,ls),
(594,368,o),
(540,430,o),
(444,430,cs),
(384,430,l),
(432,730,l),
(146,730,l),
(56,194,ls),
(42,111,o),
(19,75,o),
(-19,75,cs),
(-37,75,l),
(-50,-5,l)
);
},
{
closed = 1;
nodes = (
(372,355,l),
(432,355,ls),
(480,355,o),
(503,323,o),
(496,275,cs),
(477,155,ls),
(469,107,o),
(436,75,o),
(388,75,cs),
(328,75,l)
);
}
);
width = 600;
},
{
layerId = "EDF5EB54-295C-4C90-9A2F-67CD82979CFF";
shapes = (
{
closed = 1;
nodes = (
(-25,-5,ls),
(47,-5,o),
(105,59,o),
(122,158,cs),
(214,685,l),
(361,685,l),
(253,0,l),
(371,0,ls),
(463,0,o),
(530,58,o),
(545,150,cs),
(564,270,ls),
(578,362,o),
(530,420,o),
(438,420,cs),
(370,420,l),
(419,730,l),
(172,730,l),
(72,158,ls),
(60,87,o),
(27,45,o),
(-17,45,cs),
(-42,45,l),
(-50,-5,l)
);
},
{
closed = 1;
nodes = (
(362,375,l),
(430,375,ls),
(492,375,o),
(524,335,o),
(514,270,cs),
(495,150,ls),
(484,85,o),
(440,45,o),
(378,45,cs),
(310,45,l)
);
}
);
width = 600;
}
);
unicode = 1033;
}
{
glyphname = "Tshe-cy";
layers = (
{
layerId = "9ADF6715-3D0F-493D-8567-18A6FBCFC567";
shapes = (
{
closed = 1;
nodes = (
(206,0,l),
(253,293,l),
(292,325,ls),
(327,353,o),
(352,370,o),
(378,370,cs),
(418,370,o),
(434,342,o),
(426,290,cs),
(381,0,l),
(531,0,l),
(577,295,ls),
(596,419,o),
(541,500,o),
(437,500,cs),
(385,500,o),
(338,479,o),
(290,439,cs),
(273,425,l),
(299,590,l),
(409,590,l),
(432,730,l),
(72,730,l),
(49,590,l),
(149,590,l),
(56,0,l)
);
}
);
width = 600;
},
{
layerId = "CCC0BD40-BA8C-414E-B576-CF0B94E6C996";
shapes = (
{
closed = 1;
nodes = (
(156,0,l),
(204,302,l),
(265,356,ls),
(310,395,o),
(349,420,o),
(381,420,cs),
(437,420,o),
(462,382,o),
(449,301,cs),
(401,0,l),
(491,0,l),
(542,321,ls),
(559,430,o),
(508,500,o),
(414,500,cs),
(356,500,o),
(298,475,o),
(238,418,cs),
(220,401,l),
(259,651,l),
(379,651,l),
(392,730,l),
(72,730,l),
(59,651,l),
(169,651,l),
(66,0,l)
);
}
);
width = 600;
},
{
layerId = "EDF5EB54-295C-4C90-9A2F-67CD82979CFF";
shapes = (
{
closed = 1;
nodes = (
(136,0,l),
(185,307,l),
(273,384,ls),
(320,425,o),
(366,452,o),
(405,452,cs),
(460,452,o),
(485,408,o),
(474,336,cs),
(421,0,l),
(471,0,l),
(526,346,ls),
(540,437,o),
(498,495,o),
(419,495,cs),
(364,495,o),
(306,468,o),
(249,416,cs),
(194,366,l),
(244,685,l),
(369,685,l),
(377,730,l),
(72,730,l),
(64,685,l),
(194,685,l),
(86,0,l)
);
}
);
width = 600;
}
);
unicode = 1035;
}
{
glyphname = "Zhe-cy";
layers = (
{
anchors = (
{
name = bottomright;
pos = (536,0);
},
{
name = top;
pos = (372,730);
}
);
layerId = "9ADF6715-3D0F-493D-8567-18A6FBCFC567";
shapes = (
{
closed = 1;
nodes = (
(76,0,l),
(218,325,l),
(254,325,l),
(208,0,l),
(310,0,l),
(356,325,l),
(399,325,l),
(446,0,l),
(561,0,l),
(504,380,l),
(667,730,l),
(545,730,l),
(409,432,l),
(373,432,l),
(421,730,l),
(319,730,l),
(271,432,l),
(228,432,l),
(189,730,l),
(73,730,l),
(120,377,l),
(-49,0,l)
);
}
);
width = 600;
},
{
anchors = (
{
name = bottomright;
pos = (536,0);
},
{
name = top;
pos = (372,730);
}
);
layerId = "CCC0BD40-BA8C-414E-B576-CF0B94E6C996";
shapes = (
{
closed = 1;
nodes = (
(57,0,l),
(228,343,l),
(272,343,l),
(218,0,l),
(294,0,l),
(348,343,l),
(397,343,l),
(461,0,l),
(550,0,l),
(475,378,l),
(656,730,l),
(559,730,l),
(404,411,l),
(359,411,l),
(410,730,l),
(334,730,l),
(283,411,l),
(235,411,l),
(178,730,l),
(88,730,l),
(156,379,l),
(-38,0,l)
);
}
);
width = 600;
},
{
anchors = (
{
name = bottomright;
pos = (536,0);
},
{
name = top;
pos = (372,730);
}
);
layerId = "EDF5EB54-295C-4C90-9A2F-67CD82979CFF";
shapes = (
{
closed = 1;
nodes = (
(26,0,l),
(221,358,l),
(290,358,l),
(233,0,l),
(277,0,l),
(334,358,l),
(407,358,l),
(490,0,l),
(541,0,l),
(450,381,l),
(647,730,l),
(594,730,l),
(410,401,l),
(341,401,l),
(393,730,l),
(349,730,l),
(297,401,l),
(224,401,l),
(146,730,l),
(96,730,l),
(183,386,l),
(-29,0,l)
);
}
);
width = 600;
}
);
unicode = 1046;
}
{
glyphname = "Ze-cy";
layers = (
{
anchors = (
{
name = bottom;
pos = (256,0);
},
{
name = top;
pos = (372,730);
}
);
layerId = "CCC0BD40-BA8C-414E-B576-CF0B94E6C996";
shapes = (
{
closed = 1;
nodes = (
(397,-10,o),
(501,68,o),
(522,199,cs),
(537,294,o),
(491,369,o),
(411,384,c),
(411,387,l),
(483,404,o),
(542,471,o),
(554,551,cs),
(572,663,o),
(496,740,o),
(368,740,cs),
(233,740,o),
(132,657,o),
(112,530,c),
(202,530,l),
(214,607,o),
(277,660,o),
(356,660,cs),
(431,660,o),
(474,612,o),
(463,542,cs),
(451,470,o),
(392,420,o),
(316,420,cs),
(229,420,l),
(216,340,l),
(302,340,ls),
(391,340,o),
(443,285,o),
(430,205,cs),
(418,125,o),
(348,70,o),
(259,70,cs),
(172,70,o),
(119,123,o),
(130,200,c),
(40,200,l),
(22,75,o),
(105,-10,o),
(245,-10,cs)
);
}
);
width = 600;
},
{
anchors = (
{
name = bottom;
pos = (256,0);
},
{
name = top;
pos = (372,730);
}
);
layerId = "EDF5EB54-295C-4C90-9A2F-67CD82979CFF";
shapes = (
{
closed = 1;
nodes = (
(384,-10,o),
(484,69,o),
(504,194,cs),
(518,285,o),
(473,361,o),
(392,381,c),
(393,384,l),
(467,399,o),
(527,465,o),
(540,547,cs),
(558,661,o),
(487,740,o),
(367,740,cs),
(237,740,o),
(142,659,o),
(122,530,c),
(172,530,l),
(187,628,o),
(264,696,o),
(360,696,cs),
(451,696,o),
(504,636,o),
(490,549,cs),
(476,461,o),
(405,401,o),
(314,401,cs),
(245,401,l),
(237,356,l),
(302,356,ls),
(407,356,o),
(469,291,o),
(454,196,cs),
(439,101,o),
(357,35,o),
(252,35,cs),
(147,35,o),
(85,101,o),
(100,196,c),
(50,196,l),
(31,74,o),
(109,-10,o),
(244,-10,cs)
);
}
);
width = 600;
},
{
anchors = (
{
name = bottom;
pos = (256,0);
},
{
name = top;
pos = (372,730);
}
);
layerId = "9ADF6715-3D0F-493D-8567-18A6FBCFC567";
shapes = (
{
closed = 1;
nodes = (
(408,-10,o),
(523,74,o),
(545,207,cs),
(559,295,o),
(515,368,o),
(438,386,c),
(438,388,l),
(508,400,o),
(565,462,o),
(578,541,cs),
(596,657,o),
(509,740,o),
(368,740,cs),
(218,740,o),
(111,655,o),
(89,520,c),
(236,520,l),
(245,577,o),
(291,616,o),
(347,616,cs),
(402,616,o),
(434,581,o),
(426,529,cs),
(417,476,o),
(374,440,o),
(319,440,cs),
(235,440,l),
(215,316,l),
(297,316,ls),
(364,316,o),
(404,276,o),
(394,217,cs),
(385,158,o),
(333,118,o),
(266,118,cs),
(199,118,o),
(159,155,o),
(167,210,c),
(20,210,l),
(0,82,o),
(93,-10,o),
(245,-10,cs)
);
}
);
width = 600;
}
);
unicode = 1047;
}
{
glyphname = "Ef-cy";
layers = (
{
layerId = "9ADF6715-3D0F-493D-8567-18A6FBCFC567";
shapes = (
{
closed = 1;
nodes = (
(327,-25,l),
(340,55,l),
(467,59,o),
(552,139,o),
(573,274,cs),
(605,476,ls),
(626,606,o),
(560,691,o),
(441,695,c),
(453,770,l),
(303,770,l),
(291,695,l),
(164,691,o),
(79,611,o),
(57,476,cs),
(25,274,ls),
(5,144,o),
(70,59,o),
(190,55,c),
(177,-25,l)
);
},
{
closed = 1;
nodes = (
(169,171,o),
(140,211,o),
(150,274,cs),
(182,476,ls),
(193,540,o),
(234,580,o),
(291,580,c),
(226,171,l)
);
},
{
closed = 1;
nodes = (
(405,580,l),
(462,580,o),
(491,540,o),
(480,476,cs),
(448,274,ls),
(438,211,o),
(397,171,o),
(340,171,c)
);
}
);
width = 600;
},
{
layerId = "CCC0BD40-BA8C-414E-B576-CF0B94E6C996";
shapes = (
{
closed = 1;
nodes = (
(297,-25,l),
(310,55,l),
(438,55,o),
(532,135,o),
(552,263,cs),
(586,482,ls),
(607,611,o),
(532,695,o),
(411,695,c),
(423,770,l),
(333,770,l),
(321,695,l),
(193,695,o),
(99,613,o),
(78,482,cs),
(44,263,ls),
(24,137,o),
(100,55,o),
(220,55,c),
(207,-25,l)
);
},
{
closed = 1;
nodes = (
(161,131,o),
(115,181,o),
(128,263,cs),
(162,482,ls),
(176,567,o),
(238,619,o),
(313,619,c),
(236,131,l)
);
},
{
closed = 1;
nodes = (
(395,619,l),
(470,619,o),
(516,567,o),
(502,482,cs),
(468,263,ls),
(455,181,o),
(393,131,o),
(318,131,c)
);
}
);
width = 600;
},
{
layerId = "EDF5EB54-295C-4C90-9A2F-67CD82979CFF";
shapes = (
{
closed = 1;
nodes = (
(277,-25,l),
(290,55,l),
(422,55,o),
(517,133,o),
(537,257,cs),
(575,496,ls),
(594,618,o),
(521,695,o),
(391,695,c),
(403,770,l),
(353,770,l),
(341,695,l),
(209,695,o),
(114,618,o),
(95,496,cs),
(57,257,ls),
(37,133,o),
(111,55,o),
(240,55,c),
(227,-25,l)
);
},
{
closed = 1;
nodes = (
(154,100,o),
(92,166,o),
(107,257,cs),
(145,496,ls),
(159,585,o),
(240,651,o),
(334,651,c),
(247,100,l)
);
},
{
closed = 1;
nodes = (
(384,651,l),
(478,651,o),
(539,585,o),
(525,496,cs),
(487,257,ls),
(472,166,o),
(390,100,o),
(297,100,c)
);
}
);
width = 600;
}
);
unicode = 1060;
}
{
glyphname = "Che-cy";
layers = (
{
anchors = (
{
name = bottomright;
pos = (536,0);
},
{
name = top;
pos = (372,730);
}
);
layerId = "9ADF6715-3D0F-493D-8567-18A6FBCFC567";
shapes = (
{
closed = 1;
nodes = (
(486,0,l),
(602,730,l),
(452,730,l),
(397,385,l),
(306,385,ls),
(251,385,o),
(222,414,o),
(229,460,cs),
(272,730,l),
(122,730,l),
(77,450,ls),
(57,323,o),
(126,250,o),
(266,250,cs),
(376,250,l),
(336,0,l)
);
}
);
width = 600;
},
{
anchors = (
{
name = bottomright;
pos = (536,0);
},
{
name = top;
pos = (372,730);
}
);
layerId = "CCC0BD40-BA8C-414E-B576-CF0B94E6C996";
shapes = (
{
closed = 1;
nodes = (
(461,0,l),
(577,730,l),
(487,730,l),
(427,351,l),
(297,351,ls),
(221,351,o),
(182,387,o),
(192,451,cs),
(237,730,l),
(147,730,l),
(102,451,ls),
(85,339,o),
(149,271,o),
(274,271,cs),
(414,271,l),
(371,0,l)
);
}
);
width = 600;
},
{
anchors = (
{
name = bottomright;
pos = (536,0);
},
{
name = top;
pos = (372,730);
}
);
layerId = "EDF5EB54-295C-4C90-9A2F-67CD82979CFF";
shapes = (
{
closed = 1;
nodes = (
(446,0,l),
(562,730,l),
(512,730,l),
(449,334,l),
(309,334,ls),
(204,334,o),
(157,384,o),
(172,479,cs),
(212,730,l),
(162,730,l),
(122,479,ls),
(102,354,o),
(164,289,o),
(302,289,cs),
(443,289,l),
(396,0,l)
);
}
);
width = 600;
}
);
unicode = 1063;
}
{
glyphname = "Sha-cy";
layers = (
{
layerId = "9ADF6715-3D0F-493D-8567-18A6FBCFC567";
shapes = (
{
closed = 1;
nodes = (
(518,0,l),
(634,730,l),
(505,730,l),
(408,120,l),
(334,120,l),
(431,730,l),
(313,730,l),
(216,120,l),
(142,120,l),
(239,730,l),
(110,730,l),
(-6,0,l)
);
}
);
width = 600;
},
{
layerId = "CCC0BD40-BA8C-414E-B576-CF0B94E6C996";
shapes = (
{
closed = 1;
nodes = (
(496,0,l),
(612,730,l),
(528,730,l),
(424,78,l),
(306,78,l),
(410,730,l),
(336,730,l),
(232,78,l),
(113,78,l),
(217,730,l),
(132,730,l),
(18,0,l)
);
}
);
width = 600;
},
{
layerId = "EDF5EB54-295C-4C90-9A2F-67CD82979CFF";
shapes = (
{
closed = 1;
nodes = (
(481,0,l),
(597,730,l),
(549,730,l),
(440,43,l),
(287,43,l),
(396,730,l),
(348,730,l),
(239,43,l),
(86,43,l),
(195,730,l),
(147,730,l),
(31,0,l)
);
}
);
width = 600;
}
);
unicode = 1064;
}
{
glyphname = "Shcha-cy";
layers = (
{
layerId = "9ADF6715-3D0F-493D-8567-18A6FBCFC567";
shapes = (
{
closed = 1;
nodes = (
(534,-140,l),
(575,120,l),
(503,120,l),
(600,730,l),
(480,730,l),
(383,120,l),
(308,120,l),
(405,730,l),
(305,730,l),
(208,120,l),
(133,120,l),
(230,730,l),
(110,730,l),
(-6,0,l),
(426,0,l),
(404,-140,l)
);
}
);
width = 600;
},
{
layerId = "CCC0BD40-BA8C-414E-B576-CF0B94E6C996";
shapes = (
{
closed = 1;
nodes = (
(529,-140,l),
(563,78,l),
(500,78,l),
(604,730,l),
(523,730,l),
(419,78,l),
(299,78,l),
(403,730,l),
(333,730,l),
(229,78,l),
(109,78,l),
(213,730,l),
(132,730,l),
(16,0,l),
(471,0,l),
(449,-140,l)
);
}
);
width = 600;
},
{
layerId = "EDF5EB54-295C-4C90-9A2F-67CD82979CFF";
shapes = (
{
closed = 1;
nodes = (
(519,-140,l),
(548,43,l),
(482,43,l),
(591,730,l),
(543,730,l),
(434,43,l),
(284,43,l),
(393,730,l),
(345,730,l),
(236,43,l),
(86,43,l),
(195,730,l),
(147,730,l),
(31,0,l),
(491,0,l),
(469,-140,l)
);
}
);
width = 600;
}
);
unicode = 1065;
}
{
glyphname = "Yeru-cy";
layers = (
{
anchors = (
{
name = top;
pos = (372,730);
}
);
layerId = "9ADF6715-3D0F-493D-8567-18A6FBCFC567";
shapes = (
{
closed = 1;
nodes = (
(153,0,ls),
(270,0,o),
(355,74,o),
(373,191,cs),
(383,252,ls),
(402,371,o),
(340,445,o),
(223,445,cs),
(193,445,l),
(239,730,l),
(110,730,l),
(-6,0,l)
);
},
{
closed = 1;
nodes = (
(175,330,l),
(205,330,ls),
(249,330,o),
(271,302,o),
(263,252,cs),
(253,191,ls),
(246,143,o),
(215,115,o),
(171,115,cs),
(141,115,l)
);
},
{
closed = 1;
nodes = (
(518,0,l),
(634,730,l),
(505,730,l),
(389,0,l)
);
}
);
width = 600;
},
{
anchors = (
{
name = top;
pos = (372,730);
}
);
layerId = "CCC0BD40-BA8C-414E-B576-CF0B94E6C996";
shapes = (
{
closed = 1;
nodes = (
(146,0,ls),
(266,0,o),
(354,73,o),
(372,189,cs),
(380,240,ls),
(399,357,o),
(334,430,o),
(214,430,cs),
(168,430,l),
(216,730,l),
(132,730,l),
(16,0,l)
);
},
{
closed = 1;
nodes = (
(156,351,l),
(202,351,ls),
(270,351,o),
(307,308,o),
(296,240,cs),
(288,190,ls),
(277,122,o),
(227,79,o),
(159,79,cs),
(113,79,l)
);
},
{
closed = 1;
nodes = (
(496,0,l),
(612,730,l),
(528,730,l),
(412,0,l)
);
}
);
width = 600;
},
{
anchors = (
{
name = top;
pos = (372,730);
}
);
layerId = "EDF5EB54-295C-4C90-9A2F-67CD82979CFF";
shapes = (
{
closed = 1;
nodes = (
(146,0,ls),
(265,0,o),
(353,75,o),
(371,190,cs),
(377,230,ls),
(396,345,o),
(332,420,o),
(213,420,cs),
(148,420,l),
(197,730,l),
(147,730,l),
(31,0,l)
);
},
{
closed = 1;
nodes = (
(140,375,l),
(205,375,ls),
(295,375,o),
(342,320,o),
(327,230,cs),
(321,190,ls),
(307,100,o),
(243,45,o),
(153,45,cs),
(88,45,l)
);
},
{
closed = 1;
nodes = (
(481,0,l),
(597,730,l),
(547,730,l),
(431,0,l)
);
}
);
width = 600;
}
);
unicode = 1067;
}
{
glyphname = "Ereversed-cy";
layers = (
{
anchors = (
{
name = top;
pos = (372,730);
}
);
layerId = "9ADF6715-3D0F-493D-8567-18A6FBCFC567";
shapes = (
{
closed = 1;
nodes = (
(401,-10,o),
(503,70,o),
(525,210,cs),
(574,520,ls),
(595,651,o),
(510,740,o),
(365,740,cs),
(209,740,o),
(108,660,o),
(86,520,c),
(236,520,l),
(246,578,o),
(285,610,o),
(345,610,cs),
(405,610,o),
(433,578,o),
(424,520,cs),
(413,446,l),
(212,446,l),
(190,311,l),
(391,311,l),
(375,210,ls),
(366,152,o),
(327,120,o),
(267,120,cs),
(207,120,o),
(178,152,o),
(187,210,c),
(37,210,l),
(17,79,o),
(101,-10,o),
(246,-10,cs)
);
}
);
width = 600;
},
{
anchors = (
{
name = top;
pos = (372,730);
}
);
layerId = "CCC0BD40-BA8C-414E-B576-CF0B94E6C996";
shapes = (
{
closed = 1;
nodes = (
(379,-10,o),
(475,69,o),
(496,200,cs),
(548,530,ls),
(569,661,o),
(498,740,o),
(365,740,cs),
(234,740,o),
(138,659,o),
(118,530,c),
(208,530,l),
(221,613,o),
(274,659,o),
(352,659,cs),
(431,659,o),
(471,613,o),
(458,530,cs),
(440,419,l),
(217,419,l),
(204,337,l),
(427,337,l),
(406,200,ls),
(393,117,o),
(338,71,o),
(259,71,cs),
(181,71,o),
(143,117,o),
(156,200,c),
(66,200,l),
(45,71,o),
(115,-10,o),
(246,-10,cs)
);
}
);
width = 600;
},
{
anchors = (
{
name = top;
pos = (372,730);
}
);
layerId = "EDF5EB54-295C-4C90-9A2F-67CD82979CFF";
shapes = (
{
closed = 1;
nodes = (
(366,-10,o),
(458,69,o),
(477,190,cs),
(533,540,ls),
(552,662,o),
(485,740,o),
(363,740,cs),
(239,740,o),
(146,658,o),
(126,530,c),
(176,530,l),
(192,632,o),
(261,695,o),
(356,695,cs),
(449,695,o),
(498,636,o),
(483,540,cs),
(461,402,l),
(230,402,l),
(223,357,l),
(454,357,l),
(427,190,ls),
(412,94,o),
(346,35,o),
(252,35,cs),
(156,35,o),
(108,98,o),
(124,200,c),
(74,200,l),
(53,72,o),
(120,-10,o),
(244,-10,cs)
);
}
);
width = 600;
}
);
unicode = 1069;
}
{
glyphname = "Iu-cy";
layers = (
{
anchors = (
{
name = top;
pos = (372,730);
}
);
layerId = "9ADF6715-3D0F-493D-8567-18A6FBCFC567";
shapes = (
{
closed = 1;
nodes = (
(466,-10,o),
(542,59,o),
(560,170,cs),
(622,561,ls),
(639,667,o),
(582,740,o),
(482,740,cs),
(379,740,o),
(304,671,o),
(286,561,cs),
(266,435,l),
(192,435,l),
(239,730,l),
(110,730,l),
(-6,0,l),
(123,0,l),
(174,321,l),
(248,321,l),
(224,170,ls),
(207,63,o),
(263,-10,o),
(363,-10,cs)
);
},
{
closed = 1;
nodes = (
(347,100,o),
(333,123,o),
(339,160,cs),
(404,571,ls),
(410,607,o),
(431,630,o),
(459,630,cs),
(487,630,o),
(500,607,o),
(494,571,cs),
(429,160,ls),
(423,123,o),
(403,100,o),
(375,100,cs)
);
}
);
width = 600;
},
{
anchors = (
{
name = top;
pos = (372,730);
}
);
layerId = "CCC0BD40-BA8C-414E-B576-CF0B94E6C996";
shapes = (
{
closed = 1;
nodes = (
(463,-10,o),
(535,57,o),
(554,175,cs),
(614,555,ls),
(632,669,o),
(577,740,o),
(473,740,cs),
(370,740,o),
(300,673,o),
(281,555,cs),
(259,417,l),
(165,417,l),
(215,730,l),
(132,730,l),
(16,0,l),
(99,0,l),
(152,337,l),
(246,337,l),
(221,175,ls),
(203,61,o),
(254,-10,o),
(354,-10,cs)
);
},
{
closed = 1;
nodes = (
(311,64,o),
(285,104,o),
(297,175,cs),
(357,555,ls),
(368,626,o),
(406,666,o),
(461,666,cs),
(516,666,o),
(542,626,o),
(531,555,cs),
(471,175,ls),
(459,104,o),
(421,64,o),
(366,64,cs)
);
}
);
width = 600;
},
{
anchors = (
{
name = top;
pos = (372,730);
}
);
layerId = "EDF5EB54-295C-4C90-9A2F-67CD82979CFF";
shapes = (
{
closed = 1;
nodes = (
(451,-10,o),
(520,54,o),
(537,160,cs),
(602,570,ls),
(619,677,o),
(568,740,o),
(473,740,cs),
(375,740,o),
(304,676,o),
(288,570,cs),
(262,401,l),
(143,401,l),
(195,730,l),
(147,730,l),
(31,0,l),
(79,0,l),
(136,358,l),
(255,358,l),
(223,160,ls),
(206,53,o),
(260,-10,o),
(354,-10,cs)
);
},
{
closed = 1;
nodes = (
(298,35,o),
(259,83,o),
(271,160,cs),
(336,570,ls),
(348,647,o),
(402,695,o),
(466,695,cs),
(530,695,o),
(566,647,o),
(554,570,cs),
(489,160,ls),
(477,83,o),
(426,35,o),
(362,35,cs)
);
}
);
width = 600;
}
);
unicode = 1070;
}
{
glyphname = "be-cy";
layers = (
{
layerId = "9ADF6715-3D0F-493D-8567-18A6FBCFC567";
shapes = (
{
closed = 1;
nodes = (
(407,-13,o),
(505,67,o),
(529,210,cs),
(544,301,ls),
(566,434,o),
(508,516,o),
(381,516,cs),
(278,516,o),
(210,461,o),
(197,366,c),
(215,380,l),
(201,380,l),
(214,461,ls),
(226,535,o),
(274,578,o),
(353,583,cs),
(562,597,l),
(584,740,l),
(356,725,ls),
(206,715,o),
(115,623,o),
(89,461,cs),
(49,210,ls),
(28,77,o),
(110,-7,o),
(254,-10,cs)
);
},
{
closed = 1;
nodes = (
(218,120,o),
(190,153,o),
(199,210,cs),
(214,301,ls),
(223,358,o),
(261,391,o),
(318,391,cs),
(375,391,o),
(403,358,o),
(394,301,cs),
(379,210,ls),
(370,153,o),
(332,120,o),
(275,120,cs)
);
}
);
width = 600;
},
{
layerId = "CCC0BD40-BA8C-414E-B576-CF0B94E6C996";
shapes = (
{
closed = 1;
nodes = (
(391,-10,o),
(480,68,o),
(502,205,cs),
(518,303,ls),
(539,430,o),
(478,516,o),
(354,516,cs),
(254,516,o),
(187,465,o),
(171,375,c),
(195,401,l),
(181,401,l),
(190,458,ls),
(207,566,o),
(269,627,o),
(372,636,cs),
(542,651,l),
(556,740,l),
(372,723,ls),
(228,710,o),
(141,619,o),
(115,458,cs),
(74,205,ls),
(53,75,o),
(124,-10,o),
(254,-10,cs)
);
},
{
closed = 1;
nodes = (
(190,70,o),
(150,122,o),
(164,205,cs),
(180,303,ls),
(194,386,o),
(248,438,o),
(325,438,cs),
(402,438,o),
(442,386,o),
(428,303,cs),
(412,205,ls),
(398,122,o),
(344,70,o),
(267,70,cs)
);
}
);
width = 600;
},
{
layerId = "EDF5EB54-295C-4C90-9A2F-67CD82979CFF";
shapes = (
{
closed = 1;
nodes = (
(378,-10,o),
(462,67,o),
(483,200,cs),
(498,295,ls),
(519,429,o),
(464,505,o),
(344,505,cs),
(241,505,o),
(174,451,o),
(159,358,c),
(179,383,l),
(165,383,l),
(179,475,ls),
(196,585,o),
(264,650,o),
(365,665,cs),
(535,690,l),
(543,740,l),
(365,714,ls),
(236,695,o),
(158,613,o),
(136,475,cs),
(93,200,ls),
(72,68,o),
(132,-10,o),
(255,-10,cs)
);
},
{
closed = 1;
nodes = (
(172,35,o),
(127,97,o),
(143,200,cs),
(158,295,ls),
(174,395,o),
(236,462,o),
(330,462,cs),
(420,462,o),
(464,399,o),
(448,295,cs),
(433,200,ls),
(417,97,o),
(353,35,o),
(263,35,cs)
);
}
);
width = 600;
}
);
unicode = 1073;
}
{
glyphname = "ge-cy";
layers = (
{
anchors = (
{
name = bottom;
pos = (266,0);
},
{
name = top;
pos = (372,550);
}
);
layerId = "9ADF6715-3D0F-493D-8567-18A6FBCFC567";
shapes = (
{
closed = 1;
nodes = (
(421,-10,o),
(514,52,o),
(531,160,c),
(384,160,l),
(378,123,o),
(346,104,o),
(295,104,cs),
(251,104,ls),
(196,104,o),
(168,123,o),
(174,158,cs),
(179,191,o),
(205,204,o),
(255,210,cs),
(384,225,ls),
(483,237,o),
(547,302,o),
(561,393,cs),
(579,503,o),
(515,560,o),
(374,560,cs),
(327,560,ls),
(186,560,o),
(96,501,o),
(80,398,c),
(227,398,l),
(232,430,o),
(262,448,o),
(309,448,cs),
(356,448,ls),
(403,448,o),
(424,429,o),
(419,399,cs),
(414,368,o),
(389,361,o),
(345,356,cs),
(223,341,ls),
(113,328,o),
(48,263,o),
(31,160,cs),
(14,52,o),
(83,-10,o),
(233,-10,cs),
(277,-10,ls)
);
}
);
width = 600;
},
{
anchors = (
{
name = bottom;
pos = (266,0);
},
{
name = top;
pos = (372,550);
}
);
layerId = "CCC0BD40-BA8C-414E-B576-CF0B94E6C996";
shapes = (
{
closed = 1;
nodes = (
(404,-8,o),
(478,47,o),
(495,151,c),
(405,151,l),
(397,100,o),
(354,70,o),
(289,70,cs),
(245,70,ls),
(178,70,o),
(145,101,o),
(153,154,cs),
(161,202,o),
(186,228,o),
(231,234,cs),
(387,256,ls),
(463,267,o),
(515,320,o),
(528,404,cs),
(543,500,o),
(482,558,o),
(366,558,cs),
(322,558,ls),
(206,558,o),
(135,509,o),
(115,415,c),
(206,415,l),
(215,453,o),
(255,482,o),
(310,482,cs),
(354,482,ls),
(416,482,o),
(448,452,o),
(440,404,cs),
(434,366,o),
(412,343,o),
(377,338,cs),
(231,318,ls),
(136,305,o),
(81,250,o),
(65,154,cs),
(49,51,o),
(110,-8,o),
(233,-8,cs),
(277,-8,ls)
);
}
);
width = 600;
},
{
anchors = (
{
name = bottom;
pos = (266,0);
},
{
name = top;
pos = (372,550);
}
);
layerId = "EDF5EB54-295C-4C90-9A2F-67CD82979CFF";
shapes = (
{
closed = 1;
nodes = (
(390,-10,o),
(463,43,o),
(487,135,c),
(437,135,l),
(418,77,o),
(362,35,o),
(293,35,cs),
(220,35,ls),
(147,35,o),
(107,76,o),
(117,140,cs),
(126,197,o),
(171,247,o),
(230,254,cs),
(354,269,ls),
(450,281,o),
(511,329,o),
(524,411,cs),
(539,502,o),
(480,560,o),
(374,560,cs),
(320,560,ls),
(218,560,o),
(146,511,o),
(121,425,c),
(171,425,l),
(188,477,o),
(243,515,o),
(313,515,cs),
(367,515,ls),
(442,515,o),
(483,475,o),
(473,412,cs),
(465,357,o),
(423,327,o),
(353,318,cs),
(232,303,ls),
(146,292,o),
(82,228,o),
(69,147,cs),
(54,52,o),
(110,-10,o),
(212,-10,cs),
(285,-10,ls)
);
}
);
width = 600;
}
);
unicode = 1075;
}
{
glyphname = "de-cy";
layers = (
{
layerId = "9ADF6715-3D0F-493D-8567-18A6FBCFC567";
shapes = (
{
closed = 1;
nodes = (
(407,-7,o),
(507,73,o),
(529,210,cs),
(569,461,ls),
(595,623,o),
(532,715,o),
(386,725,cs),
(162,740,l),
(141,602,l),
(343,588,ls),
(423,583,o),
(456,535,o),
(444,461,cs),
(431,380,l),
(417,380,l),
(431,366,l),
(447,462,o),
(394,516,o),
(295,516,cs),
(170,516,o),
(86,438,o),
(64,301,cs),
(49,210,ls),
(28,75,o),
(107,-13,o),
(254,-10,cs)
);
},
{
closed = 1;
nodes = (
(218,120,o),
(190,153,o),
(199,210,cs),
(214,301,ls),
(223,358,o),
(261,391,o),
(318,391,cs),
(375,391,o),
(403,358,o),
(394,301,cs),
(379,210,ls),
(370,153,o),
(332,120,o),
(275,120,cs)
);
}
);
width = 600;
},
{
layerId = "CCC0BD40-BA8C-414E-B576-CF0B94E6C996";
shapes = (
{
closed = 1;
nodes = (
(389,-10,o),
(479,68,o),
(502,205,cs),
(543,458,ls),
(569,619,o),
(508,710,o),
(370,723,cs),
(190,740,l),
(177,656,l),
(343,641,ls),
(442,632,o),
(485,566,o),
(468,458,cs),
(459,401,l),
(445,401,l),
(459,375,l),
(471,462,o),
(419,516,o),
(322,516,cs),
(198,516,o),
(113,438,o),
(90,303,cs),
(74,205,ls),
(51,73,o),
(122,-10,o),
(254,-10,cs)
);
},
{
closed = 1;
nodes = (
(190,70,o),
(150,122,o),
(164,205,cs),
(180,303,ls),
(194,386,o),
(248,438,o),
(325,438,cs),
(402,438,o),
(442,386,o),
(428,303,cs),
(412,205,ls),
(398,122,o),
(344,70,o),
(267,70,cs)
);
}
);
width = 600;
},
{
layerId = "EDF5EB54-295C-4C90-9A2F-67CD82979CFF";
shapes = (
{
closed = 1;
nodes = (
(377,-10,o),
(462,67,o),
(483,200,cs),
(526,475,ls),
(548,613,o),
(496,695,o),
(373,714,cs),
(203,740,l),
(196,693,l),
(357,668,ls),
(455,653,o),
(501,585,o),
(483,475,cs),
(469,383,l),
(455,383,l),
(467,358,l),
(481,448,o),
(428,505,o),
(328,505,cs),
(209,505,o),
(129,428,o),
(108,295,cs),
(93,200,ls),
(72,66,o),
(129,-10,o),
(253,-10,cs)
);
},
{
closed = 1;
nodes = (
(171,35,o),
(127,97,o),
(143,200,cs),
(158,295,ls),
(174,399,o),
(238,462,o),
(328,462,cs),
(422,462,o),
(464,395,o),
(448,295,cs),
(433,200,ls),
(417,97,o),
(352,35,o),
(261,35,cs)
);
}
);
width = 600;
}
);
unicode = 1076;
}
{
glyphname = "zhe-cy";
layers = (
{
anchors = (
{
name = bottomright;
pos = (536,0);
},
{
name = top;
pos = (344,550);
}
);
layerId = "9ADF6715-3D0F-493D-8567-18A6FBCFC567";
shapes = (
{
closed = 1;
nodes = (
(88,0,l),
(210,232,l),
(242,232,l),
(205,0,l),
(307,0,l),
(344,232,l),
(384,232,l),
(439,0,l),
(561,0,l),
(492,283,l),
(640,550,l),
(514,550,l),
(390,328,l),
(359,328,l),
(394,550,l),
(292,550,l),
(257,328,l),
(219,328,l),
(172,550,l),
(46,550,l),
(110,284,l),
(-49,0,l)
);
}
);
width = 600;
},
{
anchors = (
{
name = bottomright;
pos = (536,0);
},
{
name = top;
pos = (344,550);
}
);
layerId = "CCC0BD40-BA8C-414E-B576-CF0B94E6C996";
shapes = (
{
closed = 1;
nodes = (
(63,0,l),
(209,251,l),
(259,251,l),
(219,0,l),
(293,0,l),
(333,251,l),
(392,251,l),
(457,0,l),
(541,0,l),
(463,285,l),
(620,550,l),
(532,550,l),
(391,313,l),
(343,313,l),
(380,550,l),
(306,550,l),
(269,313,l),
(212,313,l),
(148,550,l),
(66,550,l),
(139,286,l),
(-29,0,l)
);
}
);
width = 600;
},
{
anchors = (
{
name = bottomright;
pos = (536,0);
},
{
name = top;
pos = (344,550);
}
);
layerId = "EDF5EB54-295C-4C90-9A2F-67CD82979CFF";
shapes = (
{
closed = 1;
nodes = (
(46,0,l),
(201,263,l),
(276,263,l),
(234,0,l),
(278,0,l),
(320,263,l),
(398,263,l),
(470,0,l),
(521,0,l),
(443,285,l),
(600,550,l),
(545,550,l),
(399,304,l),
(326,304,l),
(365,550,l),
(321,550,l),
(282,304,l),
(202,304,l),
(136,550,l),
(86,550,l),
(159,283,l),
(-9,0,l)
);
}
);
width = 600;
}
);
unicode = 1078;
}
{
glyphname = "ka-cy";
layers = (
{
anchors = (
{
name = top;
pos = (343,550);
}
);
layerId = "9ADF6715-3D0F-493D-8567-18A6FBCFC567";
shapes = (
{
closed = 1;
nodes = (
(175,0,l),
(209,216,l),
(290,216,l),
(372,0,l),
(534,0,l),
(421,276,l),
(618,550,l),
(444,550,l),
(296,342,l),
(229,342,l),
(262,550,l),
(112,550,l),
(25,0,l)
);
}
);
width = 600;
},
{
anchors = (
{
name = top;
pos = (343,550);
}
);
layerId = "CCC0BD40-BA8C-414E-B576-CF0B94E6C996";
shapes = (
{
closed = 1;
nodes = (
(143,0,l),
(182,245,l),
(282,245,l),
(403,0,l),
(503,0,l),
(361,285,l),
(587,550,l),
(479,550,l),
(283,323,l),
(194,323,l),
(230,550,l),
(140,550,l),
(53,0,l)
);
}
);
width = 600;
},
{
anchors = (
{
name = top;
pos = (343,550);
}
);
layerId = "EDF5EB54-295C-4C90-9A2F-67CD82979CFF";
shapes = (
{
closed = 1;
nodes = (
(119,0,l),
(161,264,l),
(297,264,l),
(431,0,l),
(487,0,l),
(341,286,l),
(570,550,l),
(508,550,l),
(298,309,l),
(168,309,l),
(206,550,l),
(156,550,l),
(69,0,l)
);
}
);
width = 600;
}
);
unicode = 1082;
}
{
glyphname = "tse-cy";
layers = (
{
layerId = "9ADF6715-3D0F-493D-8567-18A6FBCFC567";
shapes = (
{
closed = 1;
nodes = (
(512,-140,l),
(556,140,l),
(481,140,l),
(546,550,l),
(396,550,l),
(331,140,l),
(194,140,l),
(259,550,l),
(109,550,l),
(22,0,l),
(394,0,l),
(372,-140,l)
);
}
);
width = 600;
},
{
layerId = "CCC0BD40-BA8C-414E-B576-CF0B94E6C996";
shapes = (
{
closed = 1;
nodes = (
(504,-140,l),
(539,80,l),
(464,80,l),
(538,550,l),
(448,550,l),
(374,80,l),
(151,80,l),
(225,550,l),
(135,550,l),
(48,0,l),
(446,0,l),
(424,-140,l)
);
}
);
width = 600;
},
{
layerId = "EDF5EB54-295C-4C90-9A2F-67CD82979CFF";
shapes = (
{
closed = 1;
nodes = (
(489,-140,l),
(518,45,l),
(441,45,l),
(521,550,l),
(471,550,l),
(391,45,l),
(123,45,l),
(203,550,l),
(153,550,l),
(66,0,l),
(461,0,l),
(439,-140,l)
);
}
);
width = 600;
}
);
unicode = 1094;
}
{
glyphname = "che-cy";
layers = (
{
anchors = (
{
name = bottomright;
pos = (536,0);
},
{
name = top;
pos = (344,550);
}
);
layerId = "EDF5EB54-295C-4C90-9A2F-67CD82979CFF";
shapes = (
{
closed = 1;
nodes = (
(442,0,l),
(529,550,l),
(479,550,l),
(431,248,l),
(403,248,o),
(318,248,o),
(267,248,cs),
(189,248,o),
(147,288,o),
(157,353,cs),
(188,550,l),
(138,550,l),
(107,353,ls),
(92,260,o),
(150,202,o),
(258,202,cs),
(311,202,o),
(397,202,o),
(425,202,c),
(392,0,l)
);
}
);
width = 600;
},
{
anchors = (
{
name = bottomright;
pos = (536,0);
},
{
name = top;
pos = (344,550);
}
);
layerId = "9ADF6715-3D0F-493D-8567-18A6FBCFC567";
shapes = (
{
closed = 1;
nodes = (
(486,0,l),
(573,550,l),
(423,550,l),
(384,302,l),
(364,302,o),
(316,302,o),
(284,302,cs),
(233,302,o),
(208,328,o),
(215,372,cs),
(243,550,l),
(93,550,l),
(63,362,ls),
(44,238,o),
(105,167,o),
(232,167,cs),
(279,167,o),
(339,167,o),
(362,167,c),
(336,0,l)
);
}
);
width = 600;
},
{
anchors = (
{
name = bottomright;
pos = (536,0);
},
{
name = top;
pos = (344,550);
}
);
layerId = "CCC0BD40-BA8C-414E-B576-CF0B94E6C996";
shapes = (
{
closed = 1;
nodes = (
(456,0,l),
(543,550,l),
(453,550,l),
(409,272,l),
(397,272,o),
(319,272,o),
(265,272,cs),
(205,272,o),
(172,305,o),
(181,357,cs),
(211,550,l),
(121,550,l),
(91,357,ls),
(74,255,o),
(135,191,o),
(249,191,cs),
(301,191,o),
(381,191,o),
(396,191,c),
(366,0,l)
);
}
);
width = 600;
}
);
unicode = 1095;
}
{
glyphname = "sha-cy";
layers = (
{
layerId = "9ADF6715-3D0F-493D-8567-18A6FBCFC567";
shapes = (
{
closed = 1;
nodes = (
(518,0,l),
(605,550,l),
(476,550,l),
(407,115,l),
(333,115,l),
(402,550,l),
(284,550,l),
(215,115,l),
(141,115,l),
(210,550,l),
(81,550,l),
(-6,0,l)
);
}
);
width = 600;
},
{
layerId = "CCC0BD40-BA8C-414E-B576-CF0B94E6C996";
shapes = (
{
closed = 1;
nodes = (
(496,0,l),
(583,550,l),
(499,550,l),
(424,76,l),
(306,76,l),
(381,550,l),
(307,550,l),
(232,76,l),
(113,76,l),
(188,550,l),
(103,550,l),
(18,0,l)
);
}
);
width = 600;
},
{
layerId = "EDF5EB54-295C-4C90-9A2F-67CD82979CFF";
shapes = (
{
closed = 1;
nodes = (
(481,0,l),
(568,550,l),
(520,550,l),
(440,43,l),
(287,43,l),
(367,550,l),
(319,550,l),
(239,43,l),
(86,43,l),
(166,550,l),
(118,550,l),
(31,0,l)
);
}
);
width = 600;
}
);
unicode = 1096;
}
{
glyphname = "shcha-cy";
layers = (
{
layerId = "9ADF6715-3D0F-493D-8567-18A6FBCFC567";
shapes = (
{
closed = 1;
nodes = (
(534,-140,l),
(574,115,l),
(502,115,l),
(571,550,l),
(451,550,l),
(382,115,l),
(307,115,l),
(376,550,l),
(276,550,l),
(207,115,l),
(132,115,l),
(201,550,l),
(81,550,l),
(-6,0,l),
(426,0,l),
(404,-140,l)
);
}
);
width = 600;
},
{
layerId = "CCC0BD40-BA8C-414E-B576-CF0B94E6C996";
shapes = (
{
closed = 1;
nodes = (
(529,-140,l),
(563,76,l),
(496,76,l),
(571,550,l),
(490,550,l),
(415,76,l),
(297,76,l),
(372,550,l),
(302,550,l),
(227,76,l),
(109,76,l),
(184,550,l),
(103,550,l),
(16,0,l),
(471,0,l),
(449,-140,l)
);
}
);
width = 600;
},
{
layerId = "EDF5EB54-295C-4C90-9A2F-67CD82979CFF";
shapes = (
{
closed = 1;
nodes = (
(519,-140,l),
(548,43,l),
(482,43,l),
(562,550,l),
(514,550,l),
(434,43,l),
(284,43,l),
(364,550,l),
(316,550,l),
(236,43,l),
(86,43,l),
(166,550,l),
(118,550,l),
(31,0,l),
(491,0,l),
(469,-140,l)
);
}
);
width = 600;
}
);
unicode = 1097;
}
{
glyphname = "yeru-cy";
layers = (
{
layerId = "9ADF6715-3D0F-493D-8567-18A6FBCFC567";
shapes = (
{
closed = 1;
nodes = (
(151,0,ls),
(274,0,o),
(355,67,o),
(373,184,cs),
(392,300,o),
(326,375,o),
(210,375,cs),
(182,375,l),
(210,550,l),
(81,550,l),
(-6,0,l)
);
},
{
closed = 1;
nodes = (
(165,265,l),
(193,265,ls),
(239,265,o),
(261,234,o),
(253,185,cs),
(246,139,o),
(214,110,o),
(168,110,cs),
(140,110,l)
);
},
{
closed = 1;
nodes = (
(518,0,l),
(605,550,l),
(476,550,l),
(389,0,l)
);
}
);
width = 600;
},
{
layerId = "CCC0BD40-BA8C-414E-B576-CF0B94E6C996";
shapes = (
{
closed = 1;
nodes = (
(155,0,ls),
(277,0,o),
(357,63,o),
(375,174,cs),
(392,281,o),
(328,348,o),
(210,348,cs),
(155,348,l),
(187,550,l),
(103,550,l),
(16,0,l)
);
},
{
closed = 1;
nodes = (
(144,276,l),
(199,276,ls),
(268,276,o),
(305,237,o),
(295,174,cs),
(285,111,o),
(235,72,o),
(166,72,cs),
(111,72,l)
);
},
{
closed = 1;
nodes = (
(496,0,l),
(583,550,l),
(499,550,l),
(412,0,l)
);
}
);
width = 600;
},
{
layerId = "EDF5EB54-295C-4C90-9A2F-67CD82979CFF";
shapes = (
{
closed = 1;
nodes = (
(152,0,ls),
(272,0,o),
(350,62,o),
(368,170,cs),
(384,274,o),
(322,340,o),
(206,340,cs),
(134,340,l),
(167,550,l),
(118,550,l),
(31,0,l)
);
},
{
closed = 1;
nodes = (
(127,295,l),
(199,295,ls),
(287,295,o),
(331,249,o),
(319,170,cs),
(306,91,o),
(247,45,o),
(159,45,cs),
(87,45,l)
);
},
{
closed = 1;
nodes = (
(481,0,l),
(568,550,l),
(519,550,l),
(432,0,l)
);
}
);
width = 600;
}
);
unicode = 1099;
}
{
glyphname = "softsign-cy";
layers = (
{
layerId = "9ADF6715-3D0F-493D-8567-18A6FBCFC567";
shapes = (
{
closed = 1;
nodes = (
(306,0,ls),
(446,0,o),
(537,70,o),
(556,191,cs),
(575,312,o),
(504,385,o),
(366,385,cs),
(242,385,l),
(268,550,l),
(118,550,l),
(31,0,l)
);
},
{
closed = 1;
nodes = (
(222,257,l),
(337,257,ls),
(387,257,o),
(412,232,o),
(406,193,cs),
(399,153,o),
(366,128,o),
(316,128,cs),
(201,128,l)
);
}
);
width = 600;
},
{
layerId = "CCC0BD40-BA8C-414E-B576-CF0B94E6C996";
shapes = (
{
closed = 1;
nodes = (
(308,0,ls),
(435,0,o),
(518,63,o),
(536,174,cs),
(553,282,o),
(487,348,o),
(363,348,cs),
(206,348,l),
(238,550,l),
(148,550,l),
(61,0,l)
);
},
{
closed = 1;
nodes = (
(193,266,l),
(350,266,ls),
(419,266,o),
(452,234,o),
(443,174,cs),
(433,114,o),
(390,82,o),
(321,82,cs),
(164,82,l)
);
}
);
width = 600;
},
{
layerId = "EDF5EB54-295C-4C90-9A2F-67CD82979CFF";
shapes = (
{
closed = 1;
nodes = (
(309,0,ls),
(431,0,o),
(510,61,o),
(528,168,cs),
(544,271,o),
(480,336,o),
(362,336,cs),
(184,336,l),
(218,550,l),
(168,550,l),
(81,0,l)
);
},
{
closed = 1;
nodes = (
(177,291,l),
(355,291,ls),
(442,291,o),
(490,244,o),
(478,168,cs),
(466,92,o),
(403,45,o),
(316,45,cs),
(138,45,l)
);
}
);
width = 600;
}
);
unicode = 1100;
}
{
glyphname = "ia-cy";
layers = (
{
anchors = (
{
name = top;
pos = (344,550);
}
);
layerId = "9ADF6715-3D0F-493D-8567-18A6FBCFC567";
shapes = (
{
closed = 1;
nodes = (
(179,0,l),
(306,178,l),
(368,178,l),
(340,0,l),
(490,0,l),
(577,550,l),
(332,550,ls),
(186,550,o),
(91,480,o),
(72,357,cs),
(59,279,o),
(92,219,o),
(156,193,c),
(6,0,l)
);
},
{
closed = 1;
nodes = (
(243,288,o),
(214,314,o),
(221,359,cs),
(228,404,o),
(266,431,o),
(322,431,cs),
(408,431,l),
(386,288,l),
(300,288,ls)
);
}
);
width = 600;
},
{
anchors = (
{
name = top;
pos = (344,550);
}
);
layerId = "CCC0BD40-BA8C-414E-B576-CF0B94E6C996";
shapes = (
{
closed = 1;
nodes = (
(131,0,l),
(294,208,l),
(407,208,l),
(374,0,l),
(464,0,l),
(551,550,l),
(319,550,ls),
(192,550,o),
(110,487,o),
(92,378,cs),
(79,296,o),
(119,233,o),
(194,214,c),
(19,0,l)
);
},
{
closed = 1;
nodes = (
(211,286,o),
(175,321,o),
(184,378,cs),
(193,436,o),
(241,471,o),
(307,471,cs),
(449,471,l),
(419,286,l),
(277,286,ls)
);
}
);
width = 600;
},
{
anchors = (
{
name = top;
pos = (344,550);
}
);
layerId = "EDF5EB54-295C-4C90-9A2F-67CD82979CFF";
shapes = (
{
closed = 1;
nodes = (
(101,0,l),
(267,228,l),
(432,228,l),
(396,0,l),
(446,0,l),
(533,550,l),
(319,550,ls),
(198,550,o),
(120,491,o),
(104,389,cs),
(91,309,o),
(133,249,o),
(215,234,c),
(40,0,l)
);
},
{
closed = 1;
nodes = (
(189,274,o),
(142,318,o),
(154,389,cs),
(165,460,o),
(226,505,o),
(312,505,cs),
(476,505,l),
(439,274,l),
(275,274,ls)
);
}
);
width = 600;
}
);
unicode = 1103;
}
{
glyphname = "lje-cy";
layers = (
{
layerId = "9ADF6715-3D0F-493D-8567-18A6FBCFC567";
shapes = (
{
closed = 1;
nodes = (
(-21,-5,ls),
(83,-5,o),
(163,75,o),
(185,200,cs),
(226,440,l),
(304,440,l),
(234,0,l),
(384,0,ls),
(490,0,o),
(559,55,o),
(575,150,cs),
(585,216,ls),
(601,313,o),
(542,375,o),
(442,375,cs),
(407,375,l),
(435,550,l),
(122,550,l),
(62,205,ls),
(52,145,o),
(24,110,o),
(-13,110,cs),
(-33,110,l),
(-51,-5,l)
);
},
{
closed = 1;
nodes = (
(390,264,l),
(425,264,ls),
(452,264,o),
(467,245,o),
(462,217,cs),
(452,151,ls),
(448,126,o),
(427,110,o),
(400,110,cs),
(365,110,l)
);
}
);
width = 600;
},
{
layerId = "CCC0BD40-BA8C-414E-B576-CF0B94E6C996";
shapes = (
{
closed = 1;
nodes = (
(-25,-5,ls),
(61,-5,o),
(130,73,o),
(150,194,cs),
(197,473,l),
(310,473,l),
(235,0,l),
(374,0,ls),
(476,0,o),
(543,56,o),
(558,154,cs),
(565,196,ls),
(580,288,o),
(525,350,o),
(429,350,cs),
(367,350,l),
(399,550,l),
(126,550,l),
(66,194,ls),
(54,125,o),
(25,80,o),
(-8,80,cs),
(-26,80,l),
(-40,-5,l)
);
},
{
closed = 1;
nodes = (
(356,276,l),
(418,276,ls),
(466,276,o),
(488,244,o),
(480,196,cs),
(473,154,ls),
(466,106,o),
(434,74,o),
(386,74,cs),
(324,74,l)
);
}
);
width = 600;
},
{
layerId = "EDF5EB54-295C-4C90-9A2F-67CD82979CFF";
shapes = (
{
closed = 1;
nodes = (
(-20,-5,ls),
(53,-5,o),
(107,59,o),
(127,169,cs),
(187,505,l),
(339,505,l),
(259,0,l),
(366,0,ls),
(464,0,o),
(530,55,o),
(545,150,cs),
(551,190,ls),
(566,283,o),
(516,340,o),
(420,340,cs),
(361,340,l),
(394,550,l),
(146,550,l),
(80,169,ls),
(65,90,o),
(32,45,o),
(-12,45,cs),
(-32,45,l),
(-40,-5,l)
);
},
{
closed = 1;
nodes = (
(354,295,l),
(413,295,ls),
(480,295,o),
(514,256,o),
(503,190,cs),
(497,150,ls),
(486,84,o),
(440,45,o),
(373,45,cs),
(314,45,l)
);
}
);
width = 600;
}
);
unicode = 1113;
}
{
glyphname = dblverticalbar;
layers = (
{
layerId = "EDF5EB54-295C-4C90-9A2F-67CD82979CFF";
shapes = (
{
closed = 1;
nodes = (
(144,-110,l),
(292,830,l),
(242,830,l),
(94,-110,l)
);
},
{
closed = 1;
nodes = (
(384,-110,l),
(532,830,l),
(482,830,l),
(334,-110,l)
);
}
);
width = 600;
},
{
layerId = "CCC0BD40-BA8C-414E-B576-CF0B94E6C996";
shapes = (
{
closed = 1;
nodes = (
(154,-110,l),
(302,830,l),
(212,830,l),
(64,-110,l)
);
},
{
closed = 1;
nodes = (
(414,-110,l),
(562,830,l),
(472,830,l),
(324,-110,l)
);
}
);
width = 600;
},
{
layerId = "9ADF6715-3D0F-493D-8567-18A6FBCFC567";
shapes = (
{
closed = 1;
nodes = (
(174,-110,l),
(322,830,l),
(172,830,l),
(24,-110,l)
);
},
{
closed = 1;
nodes = (
(454,-110,l),
(602,830,l),
(452,830,l),
(304,-110,l)
);
}
);
width = 600;
}
);
unicode = 8214;
}
{
glyphname = quotesinglbase;
layers = (
{
layerId = "EDF5EB54-295C-4C90-9A2F-67CD82979CFF";
shapes = (
{
closed = 1;
nodes = (
(226,-160,l),
(280,-71,ls),
(307,-27,o),
(328,20,o),
(332,44,cs),
(338,85,o),
(325,125,o),
(293,145,c),
(233,145,l),
(265,121,o),
(280,81,o),
(274,44,cs),
(270,22,o),
(253,-18,o),
(230,-55,cs),
(166,-160,l)
);
}
);
width = 600;
},
{
layerId = "CCC0BD40-BA8C-414E-B576-CF0B94E6C996";
shapes = (
{
closed = 1;
nodes = (
(251,-160,l),
(311,-61,ls),
(332,-28,o),
(348,13,o),
(352,40,cs),
(358,78,o),
(347,118,o),
(322,145,c),
(221,145,l),
(250,120,o),
(264,79,o),
(257,40,cs),
(254,20,o),
(242,-11,o),
(226,-37,cs),
(151,-160,l)
);
}
);
width = 600;
},
{
layerId = "9ADF6715-3D0F-493D-8567-18A6FBCFC567";
shapes = (
{
closed = 1;
nodes = (
(279,-160,l),
(336,-60,ls),
(354,-30,o),
(373,11,o),
(377,39,cs),
(383,78,o),
(372,122,o),
(341,145,c),
(191,145,l),
(223,121,o),
(238,78,o),
(232,39,cs),
(229,18,o),
(215,-13,o),
(201,-36,cs),
(129,-160,l)
);
}
);
width = 600;
}
);
unicode = 8218;
}
{
glyphname = quotereversed;
layers = (
{
layerId = "EDF5EB54-295C-4C90-9A2F-67CD82979CFF";
shapes = (
{
closed = 1;
nodes = (
(357,530,ls),
(346,567,o),
(341,607,o),
(345,629,cs),
(350,666,o),
(378,706,o),
(418,730,c),
(354,730,l),
(319,710,o),
(293,670,o),
(287,629,cs),
(283,605,o),
(289,558,o),
(302,514,cs),
(328,425,l),
(388,425,l)
);
}
);
width = 600;
},
{
layerId = "CCC0BD40-BA8C-414E-B576-CF0B94E6C996";
shapes = (
{
closed = 1;
nodes = (
(367,548,ls),
(359,574,o),
(357,605,o),
(360,625,cs),
(366,664,o),
(393,705,o),
(430,730,c),
(326,730,l),
(295,703,o),
(271,663,o),
(265,625,cs),
(261,598,o),
(264,557,o),
(274,524,cs),
(303,425,l),
(403,425,l)
);
}
);
width = 600;
},
{
layerId = "9ADF6715-3D0F-493D-8567-18A6FBCFC567";
shapes = (
{
closed = 1;
nodes = (
(392,549,ls),
(386,572,o),
(382,603,o),
(385,624,cs),
(391,663,o),
(420,706,o),
(460,730,c),
(306,730,l),
(271,707,o),
(246,663,o),
(240,624,cs),
(235,596,o),
(241,555,o),
(249,525,cs),
(275,425,l),
(425,425,l)
);
}
);
width = 600;
}
);
unicode = 8219;
}
{
glyphname = quotedblrightreversed;
layers = (
{
layerId = "EDF5EB54-295C-4C90-9A2F-67CD82979CFF";
shapes = (
{
closed = 1;
nodes = (
(488,425,l),
(457,530,ls),
(446,567,o),
(441,607,o),
(445,629,cs),
(450,666,o),
(478,706,o),
(518,730,c),
(454,730,l),
(419,710,o),
(393,670,o),
(387,629,cs),
(383,605,o),
(389,558,o),
(402,514,cs),
(428,425,l)
);
},
{
closed = 1;
nodes = (
(292,425,l),
(261,530,ls),
(250,567,o),
(245,607,o),
(249,629,cs),
(254,666,o),
(282,706,o),
(322,730,c),
(258,730,l),
(223,710,o),
(197,670,o),
(191,629,cs),
(187,605,o),
(193,558,o),
(206,514,cs),
(232,425,l)
);
}
);
width = 600;
},
{
layerId = "CCC0BD40-BA8C-414E-B576-CF0B94E6C996";
shapes = (
{
closed = 1;
nodes = (
(518,425,l),
(482,548,ls),
(474,574,o),
(472,605,o),
(475,625,cs),
(481,664,o),
(508,705,o),
(545,730,c),
(441,730,l),
(410,703,o),
(386,663,o),
(380,625,cs),
(376,598,o),
(379,557,o),
(389,524,cs),
(418,425,l)
);
},
{
closed = 1;
nodes = (
(298,425,l),
(262,548,ls),
(254,574,o),
(252,605,o),
(255,625,cs),
(261,664,o),
(288,705,o),
(325,730,c),
(221,730,l),
(190,703,o),
(166,663,o),
(160,625,cs),
(156,598,o),
(159,557,o),
(169,524,cs),
(198,425,l)
);
}
);
width = 600;
},
{
layerId = "9ADF6715-3D0F-493D-8567-18A6FBCFC567";
shapes = (
{
closed = 1;
nodes = (
(553,425,l),
(520,549,ls),
(514,572,o),
(510,603,o),
(513,624,cs),
(519,663,o),
(548,706,o),
(588,730,c),
(438,730,l),
(399,707,o),
(374,663,o),
(368,624,cs),
(363,596,o),
(369,555,o),
(377,525,cs),
(403,425,l)
);
},
{
closed = 1;
nodes = (
(310,425,l),
(277,549,ls),
(271,572,o),
(267,603,o),
(270,624,cs),
(276,663,o),
(305,706,o),
(345,730,c),
(195,730,l),
(156,707,o),
(131,663,o),
(125,624,cs),
(120,596,o),
(126,555,o),
(134,525,cs),
(160,425,l)
);
}
);
width = 600;
}
);
unicode = 8223;
}
{
glyphname = perthousand;
layers = (
{
layerId = "9ADF6715-3D0F-493D-8567-18A6FBCFC567";
shapes = (
{
closed = 1;
nodes = (
(16,0,l),
(578,730,l),
(488,730,l),
(-74,0,l)
);
},
{
closed = 1;
nodes = (
(288,61,o),
(275,81,o),
(279,109,cs),
(290,176,ls),
(294,207,o),
(311,224,o),
(337,224,cs),
(361,224,o),
(374,204,o),
(370,176,cs),
(359,109,ls),
(355,81,o),
(336,61,o),
(312,61,cs)
);
},
{
closed = 1;
nodes = (
(336,-5,o),
(377,21,o),
(390,59,c),
(390,21,o),
(422,-5,o),
(469,-5,cs),
(537,-5,o),
(582,37,o),
(594,111,cs),
(604,174,ls),
(614,243,o),
(579,290,o),
(516,290,cs),
(469,290,o),
(428,264,o),
(416,226,c),
(416,264,o),
(383,290,o),
(335,290,cs),
(267,290,o),
(223,248,o),
(212,174,cs),
(202,111,ls),
(191,42,o),
(226,-5,o),
(288,-5,cs)
);
},
{
closed = 1;
nodes = (
(444,61,o),
(431,81,o),
(435,109,cs),
(446,176,ls),
(450,204,o),
(469,224,o),
(493,224,cs),
(517,224,o),
(530,204,o),
(526,176,cs),
(515,109,ls),
(511,78,o),
(494,61,o),
(468,61,cs)
);
},
{
closed = 1;
nodes = (
(221,440,o),
(273,482,o),
(285,555,cs),
(295,620,ls),
(306,688,o),
(262,735,o),
(188,735,cs),
(109,735,o),
(57,693,o),
(45,620,cs),
(35,555,ls),
(24,487,o),
(68,440,o),
(142,440,cs)
);
},
{
closed = 1;
nodes = (
(126,510,o),
(111,528,o),
(115,555,cs),
(125,620,ls),
(129,649,o),
(148,666,o),
(177,666,cs),
(204,666,o),
(219,647,o),
(215,620,cs),
(205,555,ls),
(201,526,o),
(182,510,o),
(153,510,cs)
);
}
);
width = 600;
},
{
layerId = "EDF5EB54-295C-4C90-9A2F-67CD82979CFF";
shapes = (
{
closed = 1;
nodes = (
(-9,0,l),
(554,730,l),
(511,730,l),
(-52,0,l)
);
},
{
closed = 1;
nodes = (
(264,36,o),
(245,63,o),
(251,106,cs),
(262,179,ls),
(269,223,o),
(296,249,o),
(335,249,cs),
(373,249,o),
(392,222,o),
(386,179,cs),
(375,106,ls),
(369,63,o),
(340,36,o),
(302,36,cs)
);
},
{
closed = 1;
nodes = (
(340,-5,o),
(378,22,o),
(389,64,c),
(385,22,o),
(414,-5,o),
(463,-5,cs),
(525,-5,o),
(568,35,o),
(579,106,cs),
(590,179,ls),
(600,247,o),
(570,290,o),
(510,290,cs),
(461,290,o),
(424,263,o),
(413,221,c),
(417,263,o),
(388,290,o),
(338,290,cs),
(276,290,o),
(233,250,o),
(222,179,cs),
(211,106,ls),
(201,38,o),
(231,-5,o),
(291,-5,cs)
);
},
{
closed = 1;
nodes = (
(428,36,o),
(409,63,o),
(415,106,cs),
(426,179,ls),
(432,222,o),
(461,249,o),
(499,249,cs),
(537,249,o),
(556,222,o),
(550,179,cs),
(539,106,ls),
(532,62,o),
(505,36,o),
(466,36,cs)
);
},
{
closed = 1;
nodes = (
(213,440,o),
(264,484,o),
(275,560,cs),
(283,615,ls),
(293,686,o),
(255,735,o),
(186,735,cs),
(114,735,o),
(64,691,o),
(53,615,cs),
(45,560,ls),
(35,489,o),
(72,440,o),
(140,440,cs)
);
},
{
closed = 1;
nodes = (
(102,478,o),
(78,511,o),
(85,560,cs),
(93,615,ls),
(101,667,o),
(133,697,o),
(180,697,cs),
(225,697,o),
(250,664,o),
(243,615,cs),
(235,560,ls),
(227,508,o),
(194,478,o),
(146,478,cs)
);
}
);
width = 600;
},
{
layerId = "CCC0BD40-BA8C-414E-B576-CF0B94E6C996";
shapes = (
{
closed = 1;
nodes = (
(8,0,l),
(562,730,l),
(495,730,l),
(-59,0,l)
);
},
{
closed = 1;
nodes = (
(273,48,o),
(256,73,o),
(263,114,cs),
(272,170,ls),
(279,213,o),
(301,237,o),
(334,237,cs),
(365,237,o),
(381,211,o),
(374,170,cs),
(365,114,ls),
(358,73,o),
(335,48,o),
(304,48,cs)
);
},
{
closed = 1;
nodes = (
(339,-5,o),
(377,22,o),
(388,65,c),
(384,22,o),
(413,-5,o),
(463,-5,cs),
(531,-5,o),
(578,38,o),
(590,114,cs),
(599,170,ls),
(611,244,o),
(576,290,o),
(510,290,cs),
(461,290,o),
(423,263,o),
(412,220,c),
(416,263,o),
(387,290,o),
(337,290,cs),
(269,290,o),
(222,246,o),
(210,170,cs),
(201,114,ls),
(189,41,o),
(224,-5,o),
(290,-5,cs)
);
},
{
closed = 1;
nodes = (
(436,48,o),
(419,73,o),
(426,114,cs),
(435,170,ls),
(442,211,o),
(466,237,o),
(497,237,cs),
(528,237,o),
(544,211,o),
(537,170,cs),
(528,114,ls),
(521,72,o),
(500,48,o),
(467,48,cs)
);
},
{
closed = 1;
nodes = (
(217,440,o),
(268,482,o),
(279,555,cs),
(289,620,ls),
(299,688,o),
(258,735,o),
(187,735,cs),
(111,735,o),
(60,693,o),
(49,620,cs),
(39,555,ls),
(29,487,o),
(70,440,o),
(141,440,cs)
);
},
{
closed = 1;
nodes = (
(116,499,o),
(97,522,o),
(102,555,cs),
(112,620,ls),
(118,656,o),
(141,676,o),
(178,676,cs),
(212,676,o),
(231,653,o),
(226,620,cs),
(216,555,ls),
(210,519,o),
(187,499,o),
(150,499,cs)
);
}
);
width = 600;
}
);
unicode = 8240;
}
{
glyphname = interrobang;
layers = (
{
layerId = "EDF5EB54-295C-4C90-9A2F-67CD82979CFF";
shapes = (
{
closed = 1;
nodes = (
(294,330,l),
(425,330,o),
(521,408,o),
(540,530,cs),
(559,651,o),
(489,730,o),
(362,730,cs),
(242,730,l),
(234,685,l),
(354,685,ls),
(451,685,o),
(505,624,o),
(490,530,cs),
(475,436,o),
(403,375,o),
(306,375,cs),
(269,375,l),
(269,330,l)
);
},
{
closed = 1;
nodes = (
(221,-5,ls),
(254,-5,o),
(280,17,o),
(285,50,cs),
(290,83,o),
(272,105,o),
(239,105,cs),
(234,105,ls),
(201,105,o),
(175,83,o),
(170,50,cs),
(165,17,o),
(183,-5,o),
(216,-5,cs)
);
},
{
closed = 1;
nodes = (
(268,205,l),
(320,465,l),
(335,565,l),
(285,565,l),
(270,465,l),
(238,205,l)
);
}
);
width = 600;
},
{
layerId = "CCC0BD40-BA8C-414E-B576-CF0B94E6C996";
shapes = (
{
closed = 1;
nodes = (
(286,310,l),
(415,316,o),
(509,395,o),
(528,515,cs),
(549,646,o),
(472,730,o),
(332,730,cs),
(207,730,l),
(193,645,l),
(318,645,ls),
(404,645,o),
(451,594,o),
(438,515,cs),
(425,436,o),
(363,385,o),
(278,385,cs),
(258,385,l),
(246,310,l)
);
},
{
closed = 1;
nodes = (
(225,-5,ls),
(260,-5,o),
(289,21,o),
(295,56,cs),
(301,90,o),
(282,115,o),
(244,115,cs),
(214,115,ls),
(179,115,o),
(151,90,o),
(145,55,cs),
(139,20,o),
(160,-5,o),
(195,-5,cs)
);
},
{
closed = 1;
nodes = (
(275,205,l),
(327,450,l),
(343,550,l),
(253,550,l),
(237,450,l),
(211,205,l)
);
}
);
width = 600;
},
{
layerId = "9ADF6715-3D0F-493D-8567-18A6FBCFC567";
shapes = (
{
closed = 1;
nodes = (
(299,305,l),
(434,305,o),
(532,387,o),
(553,515,cs),
(575,646,o),
(490,730,o),
(337,730,cs),
(182,730,l),
(161,600,l),
(336,600,ls),
(391,600,o),
(421,569,o),
(413,520,cs),
(405,471,o),
(366,440,o),
(312,440,cs),
(242,440,l),
(225,305,l)
);
},
{
closed = 1;
nodes = (
(213,-5,ls),
(259,-5,o),
(293,22,o),
(300,65,cs),
(307,107,o),
(281,135,o),
(236,135,cs),
(206,135,ls),
(161,135,o),
(127,107,o),
(120,65,cs),
(113,23,o),
(139,-5,o),
(184,-5,cs)
);
},
{
closed = 1;
nodes = (
(290,225,l),
(335,470,l),
(343,520,l),
(219,520,l),
(211,470,l),
(180,225,l)
);
}
);
width = 600;
}
);
unicode = 8253;
}
{
glyphname = undertie;
layers = (
{
layerId = "EDF5EB54-295C-4C90-9A2F-67CD82979CFF";
shapes = (
{
closed = 1;
nodes = (
(410,-180,ls),
(513,-180,o),
(580,-103,o),
(580,0,c),
(530,0,l),
(530,-76,o),
(481,-135,o),
(405,-135,cs),
(195,-135,ls),
(119,-135,o),
(70,-76,o),
(70,0,c),
(20,0,l),
(20,-103,o),
(87,-180,o),
(190,-180,cs)
);
}
);
width = 600;
},
{
layerId = "CCC0BD40-BA8C-414E-B576-CF0B94E6C996";
shapes = (
{
closed = 1;
nodes = (
(420,-180,ls),
(524,-180,o),
(590,-111,o),
(590,0,c),
(500,0,l),
(500,-61,o),
(465,-100,o),
(410,-100,cs),
(190,-100,ls),
(135,-100,o),
(100,-61,o),
(100,0,c),
(10,0,l),
(10,-111,o),
(76,-180,o),
(180,-180,cs)
);
}
);
width = 600;
},
{
layerId = "9ADF6715-3D0F-493D-8567-18A6FBCFC567";
shapes = (
{
closed = 1;
nodes = (
(430,-180,ls),
(534,-180,o),
(600,-111,o),
(600,0,c),
(450,0,l),
(450,-40,o),
(429,-65,o),
(395,-65,cs),
(205,-65,ls),
(171,-65,o),
(150,-40,o),
(150,0,c),
(0,0,l),
(0,-111,o),
(66,-180,o),
(170,-180,cs)
);
}
);
width = 600;
}
);
unicode = 8255;
}
{
glyphname = zerosuperior;
layers = (
{
layerId = "9ADF6715-3D0F-493D-8567-18A6FBCFC567";
shapes = (
{
closed = 1;
nodes = (
(427,377,o),
(499,434,o),
(516,534,cs),
(538,678,ls),
(553,771,o),
(492,835,o),
(388,835,cs),
(277,835,o),
(205,778,o),
(188,678,cs),
(166,534,ls),
(151,441,o),
(212,377,o),
(316,377,cs)
);
},
{
closed = 1;
nodes = (
(282,464,o),
(257,491,o),
(264,534,cs),
(286,678,ls),
(293,721,o),
(327,748,o),
(374,748,cs),
(421,748,o),
(447,721,o),
(440,678,cs),
(418,534,ls),
(411,491,o),
(376,464,o),
(329,464,cs)
);
}
);
width = 600;
},
{
layerId = "CCC0BD40-BA8C-414E-B576-CF0B94E6C996";
shapes = (
{
closed = 1;
nodes = (
(419,377,o),
(488,437,o),
(505,542,cs),
(525,671,ls),
(541,768,o),
(485,835,o),
(388,835,cs),
(285,835,o),
(216,775,o),
(199,671,cs),
(179,542,ls),
(163,444,o),
(219,377,o),
(316,377,cs)
);
},
{
closed = 1;
nodes = (
(271,441,o),
(240,482,o),
(250,542,cs),
(270,671,ls),
(280,730,o),
(323,771,o),
(378,771,cs),
(433,771,o),
(464,730,o),
(454,671,cs),
(434,542,ls),
(424,482,o),
(381,441,o),
(326,441,cs)
);
}
);
width = 600;
},
{
layerId = "EDF5EB54-295C-4C90-9A2F-67CD82979CFF";
shapes = (
{
closed = 1;
nodes = (
(409,377,o),
(471,429,o),
(485,519,cs),
(513,693,ls),
(526,777,o),
(475,835,o),
(388,835,cs),
(295,835,o),
(233,783,o),
(219,693,cs),
(191,519,ls),
(178,435,o),
(229,377,o),
(316,377,cs)
);
},
{
closed = 1;
nodes = (
(262,417,o),
(227,459,o),
(236,519,cs),
(264,693,ls),
(273,753,o),
(322,795,o),
(382,795,cs),
(442,795,o),
(477,753,o),
(468,693,cs),
(440,519,ls),
(431,459,o),
(382,417,o),
(322,417,cs)
);
}
);
width = 600;
}
);
unicode = 8304;
}
{
glyphname = foursuperior;
layers = (
{
layerId = "9ADF6715-3D0F-493D-8567-18A6FBCFC567";
shapes = (
{
closed = 1;
nodes = (
(473,382,l),
(517,660,l),
(419,660,l),
(403,564,l),
(275,564,l),
(276,572,l),
(496,830,l),
(386,830,l),
(185,595,l),
(166,476,l),
(389,476,l),
(375,382,l)
);
}
);
width = 600;
},
{
layerId = "EDF5EB54-295C-4C90-9A2F-67CD82979CFF";
shapes = (
{
closed = 1;
nodes = (
(450,382,l),
(491,646,l),
(446,646,l),
(430,540,l),
(247,540,l),
(250,559,l),
(471,830,l),
(419,830,l),
(206,570,l),
(195,500,l),
(423,500,l),
(405,382,l)
);
}
);
width = 600;
},
{
layerId = "CCC0BD40-BA8C-414E-B576-CF0B94E6C996";
shapes = (
{
closed = 1;
nodes = (
(462,382,l),
(506,665,l),
(435,665,l),
(417,551,l),
(256,551,l),
(258,561,l),
(487,830,l),
(404,830,l),
(191,580,l),
(176,487,l),
(407,487,l),
(391,382,l)
);
}
);
width = 600;
}
);
unicode = 8308;
}
{
glyphname = sixsuperior;
layers = (
{
layerId = "EDF5EB54-295C-4C90-9A2F-67CD82979CFF";
shapes = (
{
closed = 1;
nodes = (
(412,377,o),
(475,431,o),
(489,525,cs),
(503,610,o),
(457,670,o),
(376,670,cs),
(337,670,o),
(302,648,o),
(283,618,c),
(311,628,l),
(285,628,l),
(455,830,l),
(405,830,l),
(250,643,ls),
(216,602,o),
(197,564,o),
(191,525,cs),
(177,437,o),
(229,377,o),
(317,377,cs)
);
},
{
closed = 1;
nodes = (
(261,417,o),
(226,460,o),
(236,525,cs),
(246,588,o),
(295,633,o),
(356,633,cs),
(418,633,o),
(454,588,o),
(444,525,cs),
(434,460,o),
(384,417,o),
(322,417,cs)
);
}
);
width = 600;
},
{
layerId = "CCC0BD40-BA8C-414E-B576-CF0B94E6C996";
shapes = (
{
closed = 1;
nodes = (
(422,377,o),
(490,432,o),
(506,529,cs),
(519,613,o),
(471,670,o),
(386,670,cs),
(346,670,o),
(311,647,o),
(294,613,c),
(334,633,l),
(303,633,l),
(463,830,l),
(383,830,l),
(227,636,ls),
(197,598,o),
(179,563,o),
(174,529,cs),
(160,439,o),
(217,377,o),
(317,377,cs)
);
},
{
closed = 1;
nodes = (
(270,441,o),
(238,477,o),
(246,529,cs),
(254,581,o),
(299,617,o),
(354,617,cs),
(410,617,o),
(442,581,o),
(434,529,cs),
(426,477,o),
(382,441,o),
(326,441,cs)
);
}
);
width = 600;
},
{
layerId = "9ADF6715-3D0F-493D-8567-18A6FBCFC567";
shapes = (
{
closed = 1;
nodes = (
(429,377,o),
(502,432,o),
(517,529,cs),
(530,613,o),
(482,671,o),
(405,671,cs),
(364,671,o),
(335,650,o),
(316,619,c),
(351,641,l),
(328,641,l),
(480,830,l),
(374,830,l),
(214,632,ls),
(188,599,o),
(167,557,o),
(163,529,cs),
(149,439,o),
(211,377,o),
(317,377,cs)
);
},
{
closed = 1;
nodes = (
(279,459,o),
(249,487,o),
(256,529,cs),
(262,571,o),
(301,599,o),
(351,599,cs),
(401,599,o),
(430,571,o),
(424,529,cs),
(417,487,o),
(379,459,o),
(329,459,cs)
);
}
);
width = 600;
}
);
unicode = 8310;
}
{
glyphname = sevensuperior;
layers = (
{
layerId = "EDF5EB54-295C-4C90-9A2F-67CD82979CFF";
shapes = (
{
closed = 1;
nodes = (
(287,382,l),
(535,787,l),
(541,830,l),
(245,830,l),
(224,695,l),
(269,695,l),
(284,790,l),
(487,790,l),
(236,382,l)
);
}
);
width = 600;
},
{
layerId = "CCC0BD40-BA8C-414E-B576-CF0B94E6C996";
shapes = (
{
closed = 1;
nodes = (
(311,382,l),
(537,754,l),
(549,830,l),
(235,830,l),
(213,688,l),
(283,688,l),
(295,766,l),
(467,766,l),
(230,382,l)
);
}
);
width = 600;
},
{
layerId = "9ADF6715-3D0F-493D-8567-18A6FBCFC567";
shapes = (
{
closed = 1;
nodes = (
(322,382,l),
(546,734,l),
(561,830,l),
(220,830,l),
(195,669,l),
(290,669,l),
(302,742,l),
(443,742,l),
(211,382,l)
);
}
);
width = 600;
}
);
unicode = 8311;
}
{
glyphname = eightsuperior;
layers = (
{
layerId = "EDF5EB54-295C-4C90-9A2F-67CD82979CFF";
shapes = (
{
closed = 1;
nodes = (
(407,377,o),
(473,427,o),
(485,507,cs),
(494,562,o),
(466,607,o),
(416,619,c),
(417,623,l),
(466,637,o),
(502,674,o),
(509,718,cs),
(520,787,o),
(470,835,o),
(388,835,cs),
(304,835,o),
(243,790,o),
(232,718,cs),
(225,675,o),
(250,636,o),
(293,623,c),
(292,619,l),
(237,607,o),
(196,564,o),
(187,507,cs),
(175,430,o),
(228,377,o),
(316,377,cs)
);
},
{
closed = 1;
nodes = (
(260,418,o),
(223,454,o),
(231,507,cs),
(240,560,o),
(288,596,o),
(350,596,cs),
(412,596,o),
(450,560,o),
(441,507,cs),
(433,454,o),
(384,418,o),
(322,418,cs)
);
},
{
closed = 1;
nodes = (
(300,634,o),
(268,667,o),
(275,714,cs),
(283,762,o),
(326,795,o),
(382,795,cs),
(438,795,o),
(472,762,o),
(464,714,cs),
(457,667,o),
(412,634,o),
(356,634,cs)
);
}
);
width = 600;
},
{
layerId = "CCC0BD40-BA8C-414E-B576-CF0B94E6C996";
shapes = (
{
closed = 1;
nodes = (
(417,377,o),
(489,428,o),
(501,508,cs),
(511,569,o),
(475,614,o),
(414,619,c),
(415,623,l),
(475,633,o),
(518,669,o),
(526,717,cs),
(537,787,o),
(481,835,o),
(388,835,cs),
(294,835,o),
(227,789,o),
(216,717,cs),
(208,671,o),
(239,633,o),
(294,623,c),
(293,619,l),
(228,614,o),
(181,571,o),
(171,508,cs),
(159,430,o),
(218,377,o),
(316,377,cs)
);
},
{
closed = 1;
nodes = (
(269,438,o),
(234,468,o),
(241,512,cs),
(248,556,o),
(293,586,o),
(349,586,cs),
(405,586,o),
(440,556,o),
(433,512,cs),
(426,468,o),
(381,438,o),
(325,438,cs)
);
},
{
closed = 1;
nodes = (
(307,644,o),
(277,670,o),
(283,709,cs),
(289,748,o),
(328,775,o),
(379,775,cs),
(431,775,o),
(461,748,o),
(455,709,cs),
(449,670,o),
(410,644,o),
(358,644,cs)
);
}
);
width = 600;
},
{
layerId = "9ADF6715-3D0F-493D-8567-18A6FBCFC567";
shapes = (
{
closed = 1;
nodes = (
(425,377,o),
(501,428,o),
(515,509,cs),
(524,569,o),
(493,609,o),
(430,620,c),
(431,624,l),
(489,636,o),
(530,672,o),
(538,718,cs),
(549,787,o),
(488,835,o),
(388,835,cs),
(286,835,o),
(214,790,o),
(203,718,cs),
(195,669,o),
(223,635,o),
(279,624,c),
(278,620,l),
(214,609,o),
(168,567,o),
(159,509,cs),
(146,432,o),
(210,377,o),
(316,377,cs)
);
},
{
closed = 1;
nodes = (
(279,453,o),
(252,478,o),
(258,517,cs),
(264,556,o),
(299,581,o),
(348,581,cs),
(397,581,o),
(424,556,o),
(418,517,cs),
(412,478,o),
(377,453,o),
(328,453,cs)
);
},
{
closed = 1;
nodes = (
(314,651,o),
(289,673,o),
(294,706,cs),
(299,739,o),
(332,761,o),
(377,761,cs),
(423,761,o),
(448,739,o),
(443,706,cs),
(438,673,o),
(405,651,o),
(359,651,cs)
);
}
);
width = 600;
}
);
unicode = 8312;
}
{
glyphname = ninesuperior;
layers = (
{
layerId = "EDF5EB54-295C-4C90-9A2F-67CD82979CFF";
shapes = (
{
closed = 1;
nodes = (
(403,377,o),
(469,434,o),
(483,525,cs),
(509,689,ls),
(523,776,o),
(472,835,o),
(385,835,cs),
(295,835,o),
(229,779,o),
(215,689,cs),
(202,603,o),
(251,544,o),
(336,544,cs),
(397,544,o),
(444,577,o),
(458,629,c),
(430,614,l),
(452,614,l),
(438,525,ls),
(428,461,o),
(380,417,o),
(320,417,cs),
(266,417,o),
(231,450,o),
(235,497,c),
(191,497,l),
(185,426,o),
(236,377,o),
(314,377,cs)
);
},
{
closed = 1;
nodes = (
(285,583,o),
(250,626,o),
(260,689,cs),
(270,752,o),
(319,795,o),
(380,795,cs),
(440,795,o),
(474,752,o),
(464,689,cs),
(454,626,o),
(406,583,o),
(346,583,cs)
);
}
);
width = 600;
},
{
layerId = "CCC0BD40-BA8C-414E-B576-CF0B94E6C996";
shapes = (
{
closed = 1;
nodes = (
(409,377,o),
(481,438,o),
(497,536,cs),
(521,687,ls),
(535,775,o),
(479,835,o),
(382,835,cs),
(283,835,o),
(211,778,o),
(197,687,cs),
(183,602,o),
(235,545,o),
(322,545,cs),
(398,545,o),
(445,592,o),
(458,682,c),
(425,621,l),
(441,621,l),
(428,536,ls),
(419,477,o),
(378,440,o),
(320,440,cs),
(272,440,o),
(241,465,o),
(240,497,c),
(171,497,l),
(165,428,o),
(220,377,o),
(310,377,cs)
);
},
{
closed = 1;
nodes = (
(290,601,o),
(260,636,o),
(268,687,cs),
(276,738,o),
(317,773,o),
(372,773,cs),
(428,773,o),
(460,738,o),
(452,687,cs),
(444,635,o),
(402,601,o),
(346,601,cs)
);
}
);
width = 600;
},
{
layerId = "9ADF6715-3D0F-493D-8567-18A6FBCFC567";
shapes = (
{
closed = 1;
nodes = (
(414,377,o),
(490,435,o),
(505,527,cs),
(530,685,ls),
(544,773,o),
(483,835,o),
(380,835,cs),
(271,835,o),
(194,777,o),
(179,685,cs),
(166,601,o),
(217,544,o),
(304,544,cs),
(377,544,o),
(423,579,o),
(432,640,c),
(407,616,l),
(427,616,l),
(412,527,ls),
(406,485,o),
(370,459,o),
(321,459,cs),
(280,459,o),
(251,475,o),
(248,495,c),
(155,495,l),
(150,427,o),
(211,377,o),
(308,377,cs)
);
},
{
closed = 1;
nodes = (
(297,620,o),
(268,647,o),
(275,687,cs),
(281,727,o),
(319,755,o),
(368,755,cs),
(416,755,o),
(444,727,o),
(438,687,cs),
(431,647,o),
(394,620,o),
(346,620,cs)
);
}
);
width = 600;
}
);
unicode = 8313;
}
{
glyphname = euro;
layers = (
{
layerId = "CCC0BD40-BA8C-414E-B576-CF0B94E6C996";
shapes = (
{
closed = 1;
nodes = (
(376,410,l),
(386,475,l),
(50,475,l),
(40,410,l)
);
},
{
closed = 1;
nodes = (
(24,310,l),
(14,245,l),
(350,245,l),
(360,310,l)
);
},
{
ref = C;
}
);
width = 600;
},
{
layerId = "EDF5EB54-295C-4C90-9A2F-67CD82979CFF";
shapes = (
{
closed = 1;
nodes = (
(367,417,l),
(373,457,l),
(58,457,l),
(52,417,l)
);
},
{
closed = 1;
nodes = (
(34,303,l),
(28,263,l),
(343,263,l),
(349,303,l)
);
},
{
ref = C;
}
);
width = 600;
},
{
layerId = "9ADF6715-3D0F-493D-8567-18A6FBCFC567";
shapes = (
{
closed = 1;
nodes = (
(384,400,l),
(399,495,l),
(44,495,l),
(29,400,l)
);
},
{
closed = 1;
nodes = (
(17,320,l),
(2,225,l),
(357,225,l),
(372,320,l)
);
},
{
ref = C;
}
);
width = 600;
}
);
unicode = 8364;
}
{
glyphname = hryvnia;
layers = (
{
layerId = "EDF5EB54-295C-4C90-9A2F-67CD82979CFF";
shapes = (
{
closed = 1;
nodes = (
(367,-10,o),
(457,59,o),
(477,169,c),
(427,169,l),
(414,89,o),
(341,34,o),
(250,34,cs),
(172,34,o),
(121,78,o),
(131,140,cs),
(136,172,o),
(155,204,o),
(195,232,cs),
(291,300,l),
(227,300,l),
(165,256,ls),
(116,221,o),
(90,181,o),
(83,140,cs),
(69,52,o),
(137,-10,o),
(243,-10,cs)
);
},
{
closed = 1;
nodes = (
(539,272,l),
(545,312,l),
(65,312,l),
(59,272,l)
);
},
{
closed = 1;
nodes = (
(561,408,l),
(567,448,l),
(87,448,l),
(81,408,l)
);
},
{
closed = 1;
nodes = (
(399,430,l),
(461,474,ls),
(510,509,o),
(536,549,o),
(542,590,cs),
(556,678,o),
(491,740,o),
(385,740,cs),
(263,740,o),
(175,671,o),
(155,561,c),
(205,561,l),
(218,641,o),
(287,696,o),
(378,696,cs),
(456,696,o),
(504,652,o),
(494,590,cs),
(489,558,o),
(470,525,o),
(431,498,cs),
(334,430,l)
);
}
);
width = 600;
},
{
layerId = "CCC0BD40-BA8C-414E-B576-CF0B94E6C996";
shapes = (
{
closed = 1;
nodes = (
(379,-10,o),
(468,59,o),
(489,180,c),
(400,180,l),
(389,115,o),
(333,68,o),
(258,68,cs),
(193,68,o),
(156,105,o),
(164,155,cs),
(169,187,o),
(193,218,o),
(226,240,cs),
(318,300,l),
(217,300,l),
(160,264,ls),
(111,233,o),
(82,196,o),
(75,150,cs),
(60,54,o),
(127,-10,o),
(246,-10,cs)
);
},
{
closed = 1;
nodes = (
(546,252,l),
(557,322,l),
(57,322,l),
(46,252,l)
);
},
{
closed = 1;
nodes = (
(569,398,l),
(580,468,l),
(80,468,l),
(69,398,l)
);
},
{
closed = 1;
nodes = (
(409,430,l),
(467,476,ls),
(513,512,o),
(545,544,o),
(552,590,cs),
(568,686,o),
(501,740,o),
(382,740,cs),
(252,740,o),
(166,674,o),
(145,560,c),
(234,560,l),
(244,625,o),
(296,662,o),
(371,662,cs),
(436,662,o),
(472,635,o),
(464,585,cs),
(459,553,o),
(433,524,o),
(401,500,cs),
(308,430,l)
);
}
);
width = 600;
},
{
layerId = "9ADF6715-3D0F-493D-8567-18A6FBCFC567";
shapes = (
{
closed = 1;
nodes = (
(385,-10,o),
(485,61,o),
(508,175,c),
(367,175,l),
(357,136,o),
(315,110,o),
(270,110,cs),
(223,110,o),
(193,138,o),
(199,176,cs),
(204,207,o),
(225,230,o),
(252,247,cs),
(333,300,l),
(213,300,l),
(152,275,ls),
(102,255,o),
(63,205,o),
(56,157,cs),
(40,56,o),
(120,-10,o),
(249,-10,cs)
);
},
{
closed = 1;
nodes = (
(554,237,l),
(569,332,l),
(49,332,l),
(34,237,l)
);
},
{
closed = 1;
nodes = (
(577,388,l),
(592,483,l),
(72,483,l),
(57,388,l)
);
},
{
closed = 1;
nodes = (
(413,430,l),
(474,455,ls),
(523,475,o),
(562,525,o),
(570,573,cs),
(586,674,o),
(508,740,o),
(379,740,cs),
(246,740,o),
(148,669,o),
(124,555,c),
(265,555,l),
(275,594,o),
(313,620,o),
(358,620,cs),
(405,620,o),
(433,592,o),
(427,554,cs),
(422,523,o),
(400,500,o),
(373,483,cs),
(293,430,l)
);
}
);
width = 600;
}
);
unicode = 8372;
}
{
glyphname = HdoubleStruck;
layers = (
{
layerId = "EDF5EB54-295C-4C90-9A2F-67CD82979CFF";
shapes = (
{
closed = 1;
nodes = (
(219,0,l),
(219,359,l),
(381,359,l),
(381,0,l),
(525,0,l),
(525,730,l),
(381,730,l),
(381,399,l),
(219,399,l),
(219,730,l),
(75,730,l),
(75,0,l)
);
},
{
closed = 1;
nodes = (
(117,690,l),
(177,690,l),
(177,40,l),
(117,40,l)
);
},
{
closed = 1;
nodes = (
(423,690,l),
(483,690,l),
(483,40,l),
(423,40,l)
);
}
);
width = 600;
},
{
layerId = "CCC0BD40-BA8C-414E-B576-CF0B94E6C996";
shapes = (
{
closed = 1;
nodes = (
(219,0,l),
(219,359,l),
(381,359,l),
(381,0,l),
(525,0,l),
(525,730,l),
(381,730,l),
(381,399,l),
(219,399,l),
(219,730,l),
(75,730,l),
(75,0,l)
);
},
{
closed = 1;
nodes = (
(117,690,l),
(177,690,l),
(177,40,l),
(117,40,l)
);
},
{
closed = 1;
nodes = (
(423,690,l),
(483,690,l),
(483,40,l),
(423,40,l)
);
}
);
width = 600;
},
{
layerId = "9ADF6715-3D0F-493D-8567-18A6FBCFC567";
shapes = (
{
closed = 1;
nodes = (
(219,0,l),
(219,359,l),
(381,359,l),
(381,0,l),
(525,0,l),
(525,730,l),
(381,730,l),
(381,399,l),
(219,399,l),
(219,730,l),
(75,730,l),
(75,0,l)
);
},
{
closed = 1;
nodes = (
(117,690,l),
(177,690,l),
(177,40,l),
(117,40,l)
);
},
{
closed = 1;
nodes = (
(423,690,l),
(483,690,l),
(483,40,l),
(423,40,l)
);
}
);
width = 600;
}
);
unicode = 8461;
}
{
glyphname = NdoubleStruck;
layers = (
{
layerId = "9ADF6715-3D0F-493D-8567-18A6FBCFC567";
shapes = (
{
closed = 1;
nodes = (
(136,0,l),
(136,430,ls),
(136,467,o),
(135,526,o),
(132,570,c),
(379,0,l),
(505,0,l),
(505,730,l),
(463,730,l),
(463,300,ls),
(463,264,o),
(464,204,o),
(468,161,c),
(219,730,l),
(95,730,l),
(95,0,l)
);
},
{
closed = 1;
nodes = (
(125,691,l),
(191,691,l),
(475,39,l),
(408,39,l)
);
}
);
width = 600;
},
{
layerId = "CCC0BD40-BA8C-414E-B576-CF0B94E6C996";
shapes = (
{
closed = 1;
nodes = (
(136,0,l),
(136,430,ls),
(136,467,o),
(135,526,o),
(132,570,c),
(379,0,l),
(505,0,l),
(505,730,l),
(463,730,l),
(463,300,ls),
(463,264,o),
(464,204,o),
(468,161,c),
(219,730,l),
(95,730,l),
(95,0,l)
);
},
{
closed = 1;
nodes = (
(125,691,l),
(191,691,l),
(475,39,l),
(408,39,l)
);
}
);
width = 600;
},
{
layerId = "EDF5EB54-295C-4C90-9A2F-67CD82979CFF";
shapes = (
{
closed = 1;
nodes = (
(136,0,l),
(136,430,ls),
(136,467,o),
(135,526,o),
(132,570,c),
(379,0,l),
(505,0,l),
(505,730,l),
(463,730,l),
(463,300,ls),
(463,264,o),
(464,204,o),
(468,161,c),
(219,730,l),
(95,730,l),
(95,0,l)
);
},
{
closed = 1;
nodes = (
(125,691,l),
(191,691,l),
(475,39,l),
(408,39,l)
);
}
);
width = 600;
}
);
unicode = 8469;
}
{
glyphname = PdoubleStruck;
layers = (
{
layerId = "EDF5EB54-295C-4C90-9A2F-67CD82979CFF";
shapes = (
{
closed = 1;
nodes = (
(219,0,l),
(219,326,l),
(340,326,ls),
(467,326,o),
(550,405,o),
(550,528,cs),
(550,651,o),
(468,730,o),
(340,730,cs),
(75,730,l),
(75,0,l)
);
},
{
closed = 1;
nodes = (
(117,690,l),
(177,690,l),
(177,40,l),
(117,40,l)
);
},
{
closed = 1;
nodes = (
(219,690,l),
(340,690,ls),
(359,690,o),
(376,688,o),
(392,683,c),
(392,373,l),
(376,368,o),
(359,366,o),
(340,366,cs),
(219,366,l)
);
},
{
closed = 1;
nodes = (
(434,664,l),
(476,637,o),
(500,588,o),
(500,528,cs),
(500,468,o),
(476,420,o),
(434,392,c)
);
}
);
width = 600;
},
{
layerId = "CCC0BD40-BA8C-414E-B576-CF0B94E6C996";
shapes = (
{
closed = 1;
nodes = (
(219,0,l),
(219,326,l),
(340,326,ls),
(467,326,o),
(550,405,o),
(550,528,cs),
(550,651,o),
(468,730,o),
(340,730,cs),
(75,730,l),
(75,0,l)
);
},
{
closed = 1;
nodes = (
(117,690,l),
(177,690,l),
(177,40,l),
(117,40,l)
);
},
{
closed = 1;
nodes = (
(219,690,l),
(340,690,ls),
(359,690,o),
(376,688,o),
(392,683,c),
(392,373,l),
(376,368,o),
(359,366,o),
(340,366,cs),
(219,366,l)
);
},
{
closed = 1;
nodes = (
(434,664,l),
(476,637,o),
(500,588,o),
(500,528,cs),
(500,468,o),
(476,420,o),
(434,392,c)
);
}
);
width = 600;
},
{
layerId = "9ADF6715-3D0F-493D-8567-18A6FBCFC567";
shapes = (
{
closed = 1;
nodes = (
(219,0,l),
(219,326,l),
(340,326,ls),
(467,326,o),
(550,405,o),
(550,528,cs),
(550,651,o),
(468,730,o),
(340,730,cs),
(75,730,l),
(75,0,l)
);
},
{
closed = 1;
nodes = (
(117,690,l),
(177,690,l),
(177,40,l),
(117,40,l)
);
},
{
closed = 1;
nodes = (
(219,690,l),
(340,690,ls),
(359,690,o),
(376,688,o),
(392,683,c),
(392,373,l),
(376,368,o),
(359,366,o),
(340,366,cs),
(219,366,l)
);
},
{
closed = 1;
nodes = (
(434,664,l),
(476,637,o),
(500,588,o),
(500,528,cs),
(500,468,o),
(476,420,o),
(434,392,c)
);
}
);
width = 600;
}
);
unicode = 8473;
}
{
glyphname = QdoubleStruck;
layers = (
{
anchors = (
{
name = top;
pos = (300,730);
}
);
layerId = "EDF5EB54-295C-4C90-9A2F-67CD82979CFF";
shapes = (
{
closed = 1;
nodes = (
(510,-180,l),
(397,6,l),
(479,37,o),
(526,110,o),
(526,210,cs),
(526,520,ls),
(526,655,o),
(437,740,o),
(300,740,cs),
(163,740,o),
(74,655,o),
(74,520,cs),
(74,210,ls),
(74,75,o),
(163,-10,o),
(300,-10,cs),
(315,-10,o),
(330,-9,o),
(343,-7,c),
(449,-180,l)
);
},
{
closed = 1;
nodes = (
(138,101,o),
(116,149,o),
(116,210,cs),
(116,520,ls),
(116,581,o),
(138,629,o),
(176,660,c),
(176,70,l)
);
},
{
closed = 1;
nodes = (
(270,30,o),
(242,35,o),
(218,45,c),
(218,685,l),
(242,695,o),
(270,700,o),
(300,700,cs),
(330,700,o),
(358,695,o),
(382,685,c),
(382,45,l),
(358,35,o),
(330,30,o),
(300,30,cs)
);
},
{
closed = 1;
nodes = (
(424,660,l),
(462,629,o),
(484,581,o),
(484,520,cs),
(484,210,ls),
(484,149,o),
(462,101,o),
(424,70,c)
);
}
);
width = 600;
},
{
anchors = (
{
name = top;
pos = (300,730);
}
);
layerId = "CCC0BD40-BA8C-414E-B576-CF0B94E6C996";
shapes = (
{
closed = 1;
nodes = (
(510,-180,l),
(397,6,l),
(479,37,o),
(526,110,o),
(526,210,cs),
(526,520,ls),
(526,655,o),
(437,740,o),
(300,740,cs),
(163,740,o),
(74,655,o),
(74,520,cs),
(74,210,ls),
(74,75,o),
(163,-10,o),
(300,-10,cs),
(315,-10,o),
(330,-9,o),
(343,-7,c),
(449,-180,l)
);
},
{
closed = 1;
nodes = (
(138,101,o),
(116,149,o),
(116,210,cs),
(116,520,ls),
(116,581,o),
(138,629,o),
(176,660,c),
(176,70,l)
);
},
{
closed = 1;
nodes = (
(270,30,o),
(242,35,o),
(218,45,c),
(218,685,l),
(242,695,o),
(270,700,o),
(300,700,cs),
(330,700,o),
(358,695,o),
(382,685,c),
(382,45,l),
(358,35,o),
(330,30,o),
(300,30,cs)
);
},
{
closed = 1;
nodes = (
(424,660,l),
(462,629,o),
(484,581,o),
(484,520,cs),
(484,210,ls),
(484,149,o),
(462,101,o),
(424,70,c)
);
}
);
width = 600;
},
{
anchors = (
{
name = top;
pos = (300,730);
}
);
layerId = "9ADF6715-3D0F-493D-8567-18A6FBCFC567";
shapes = (
{
closed = 1;
nodes = (
(510,-180,l),
(397,6,l),
(479,37,o),
(526,110,o),
(526,210,cs),
(526,520,ls),
(526,655,o),
(437,740,o),
(300,740,cs),
(163,740,o),
(74,655,o),
(74,520,cs),
(74,210,ls),
(74,75,o),
(163,-10,o),
(300,-10,cs),
(315,-10,o),
(330,-9,o),
(343,-7,c),
(449,-180,l)
);
},
{
closed = 1;
nodes = (
(138,101,o),
(116,149,o),
(116,210,cs),
(116,520,ls),
(116,581,o),
(138,629,o),
(176,660,c),
(176,70,l)
);
},
{
closed = 1;
nodes = (
(270,30,o),
(242,35,o),
(218,45,c),
(218,685,l),
(242,695,o),
(270,700,o),
(300,700,cs),
(330,700,o),
(358,695,o),
(382,685,c),
(382,45,l),
(358,35,o),
(330,30,o),
(300,30,cs)
);
},
{
closed = 1;
nodes = (
(424,660,l),
(462,629,o),
(484,581,o),
(484,520,cs),
(484,210,ls),
(484,149,o),
(462,101,o),
(424,70,c)
);
}
);
width = 600;
}
);
unicode = 8474;
}
{
glyphname = RdoubleStruck;
layers = (
{
layerId = "EDF5EB54-295C-4C90-9A2F-67CD82979CFF";
shapes = (
{
closed = 1;
nodes = (
(219,0,l),
(219,326,l),
(335,326,ls),
(462,326,o),
(545,405,o),
(545,528,cs),
(545,651,o),
(463,730,o),
(335,730,cs),
(75,730,l),
(75,0,l)
);
},
{
closed = 1;
nodes = (
(117,690,l),
(177,690,l),
(177,40,l),
(117,40,l)
);
},
{
closed = 1;
nodes = (
(219,690,l),
(335,690,ls),
(433,690,o),
(503,625,o),
(503,528,cs),
(503,432,o),
(432,366,o),
(335,366,cs),
(219,366,l)
);
},
{
closed = 1;
nodes = (
(433,364,l),
(433,693,l),
(391,693,l),
(391,364,l)
);
},
{
closed = 1;
nodes = (
(403,0,l),
(570,0,l),
(396,339,l),
(352,337,l),
(500,40,l),
(433,40,l),
(278,350,l),
(234,348,l)
);
}
);
width = 600;
},
{
layerId = "CCC0BD40-BA8C-414E-B576-CF0B94E6C996";
shapes = (
{
closed = 1;
nodes = (
(219,0,l),
(219,326,l),
(335,326,ls),
(462,326,o),
(545,405,o),
(545,528,cs),
(545,651,o),
(463,730,o),
(335,730,cs),
(75,730,l),
(75,0,l)
);
},
{
closed = 1;
nodes = (
(117,690,l),
(177,690,l),
(177,40,l),
(117,40,l)
);
},
{
closed = 1;
nodes = (
(219,690,l),
(335,690,ls),
(433,690,o),
(503,625,o),
(503,528,cs),
(503,432,o),
(432,366,o),
(335,366,cs),
(219,366,l)
);
},
{
closed = 1;
nodes = (
(433,364,l),
(433,693,l),
(391,693,l),
(391,364,l)
);
},
{
closed = 1;
nodes = (
(403,0,l),
(570,0,l),
(396,339,l),
(352,337,l),
(500,40,l),
(433,40,l),
(278,350,l),
(234,348,l)
);
}
);
width = 600;
},
{
layerId = "9ADF6715-3D0F-493D-8567-18A6FBCFC567";
shapes = (
{
closed = 1;
nodes = (
(219,0,l),
(219,326,l),
(335,326,ls),
(462,326,o),
(545,405,o),
(545,528,cs),
(545,651,o),
(463,730,o),
(335,730,cs),
(75,730,l),
(75,0,l)
);
},
{
closed = 1;
nodes = (
(117,690,l),
(177,690,l),
(177,40,l),
(117,40,l)
);
},
{
closed = 1;
nodes = (
(219,690,l),
(335,690,ls),
(433,690,o),
(503,625,o),
(503,528,cs),
(503,432,o),
(432,366,o),
(335,366,cs),
(219,366,l)
);
},
{
closed = 1;
nodes = (
(433,364,l),
(433,693,l),
(391,693,l),
(391,364,l)
);
},
{
closed = 1;
nodes = (
(403,0,l),
(570,0,l),
(396,339,l),
(352,337,l),
(500,40,l),
(433,40,l),
(278,350,l),
(234,348,l)
);
}
);
width = 600;
}
);
unicode = 8477;
}
{
glyphname = rightArrow;
layers = (
{
layerId = "9ADF6715-3D0F-493D-8567-18A6FBCFC567";
shapes = (
{
closed = 1;
nodes = (
(360,35,l),
(590,331,l),
(360,625,l),
(200,625,l),
(350,430,ls),
(364,412,o),
(385,399,o),
(398,395,c),
(20,395,l),
(20,265,l),
(401,265,l),
(386,260,o),
(365,245,o),
(350,226,cs),
(201,35,l)
);
}
);
width = 600;
},
{
layerId = "CCC0BD40-BA8C-414E-B576-CF0B94E6C996";
shapes = (
{
closed = 1;
nodes = (
(370,50,l),
(590,331,l),
(371,610,l),
(266,610,l),
(424,408,ls),
(437,391,o),
(455,376,o),
(471,370,c),
(20,370,l),
(20,290,l),
(476,290,l),
(460,287,o),
(440,272,o),
(424,251,cs),
(266,50,l)
);
}
);
width = 600;
},
{
layerId = "EDF5EB54-295C-4C90-9A2F-67CD82979CFF";
shapes = (
{
closed = 1;
nodes = (
(371,50,l),
(590,332,l),
(371,610,l),
(314,610,l),
(486,391,ls),
(502,371,o),
(517,357,o),
(525,352,c),
(20,352,l),
(20,308,l),
(523,308,l),
(513,303,o),
(499,289,o),
(486,272,cs),
(313,50,l)
);
}
);
width = 600;
}
);
unicode = 8594;
}
{
glyphname = northEastArrow;
layers = (
{
layerId = "9ADF6715-3D0F-493D-8567-18A6FBCFC567";
shapes = (
{
closed = 1;
nodes = (
(261,606,ls),
(289,606,o),
(316,609,o),
(325,614,c),
(23,315,l),
(130,214,l),
(418,507,l),
(410,493,o),
(405,463,o),
(405,435,cs),
(405,195,l),
(540,330,l),
(540,730,l),
(145,730,l),
(21,606,l)
);
}
);
width = 600;
},
{
layerId = "CCC0BD40-BA8C-414E-B576-CF0B94E6C996";
shapes = (
{
closed = 1;
nodes = (
(347,651,ls),
(374,651,o),
(399,651,o),
(413,660,c),
(47,294,l),
(104,237,l),
(467,601,l),
(460,586,o),
(457,561,o),
(457,540,cs),
(457,258,l),
(540,341,l),
(540,730,l),
(155,730,l),
(76,651,l)
);
}
);
width = 600;
},
{
layerId = "EDF5EB54-295C-4C90-9A2F-67CD82979CFF";
shapes = (
{
closed = 1;
nodes = (
(415,687,ls),
(436,687,o),
(456,688,o),
(465,690,c),
(59,281,l),
(93,249,l),
(498,658,l),
(496,652,o),
(494,633,o),
(494,610,cs),
(494,295,l),
(540,341,l),
(540,730,l),
(155,730,l),
(112,687,l)
);
}
);
width = 600;
}
);
unicode = 8599;
}
